<?xml version="1.0" encoding="UTF-8"?>
<!DOCTYPE svg PUBLIC "-//W3C//DTD SVG 1.1//EN" "http://www.w3.org/Graphics/SVG/1.1/DTD/svg11.dtd">
<!-- Creator: CorelDRAW 2020 (64-Bit) -->
<svg xmlns="http://www.w3.org/2000/svg" xml:space="preserve" width="1.32284in" height="1.17015in" version="1.1" style="shape-rendering:geometricPrecision; text-rendering:geometricPrecision; image-rendering:optimizeQuality; fill-rule:evenodd; clip-rule:evenodd"
viewBox="0 0 4813.05 4257.51"
 xmlns:xlink="http://www.w3.org/1999/xlink"
 xmlns:xodm="http://www.corel.com/coreldraw/odm/2003">
 <defs>
  <style type="text/css">
   <![CDATA[
    .fil0 {fill:gray}
    .fil1 {fill:gray}
   ]]>
  </style>
 </defs>
 <g id="Capa_x0020_1">
  <metadata id="CorelCorpID_0Corel-Layer"/>
  <path class="fil0" d="M1219.43 4179.24l-875.87 2.19 1.03 73.27c796.41,-24.72 2232.16,44.91 2909.71,-44.35 843.8,-111.17 1356.56,-625.09 1513.84,-1447.91 83.43,-436.48 49.51,-914.66 -92.75,-1309.96 -268.05,-744.89 -814.89,-1241.26 -1571.66,-1389.43 -311.92,-61.07 -1101.42,-74.7 -1429.89,-54.06l-28.35 89.91c854.76,-16.22 1315.72,23.72 1808.42,526.4 366.42,373.81 631.19,996.14 604.84,1727.69 -25.54,709.08 -328.39,1296.65 -741.87,1590.22 -402.03,285.43 -976.69,229.74 -1517.72,231.46l-510.12 3.08 -69.62 1.49z"/>
  <path class="fil1" d="M1275.11 3386.61c-52.56,-74.19 -130.7,-463.8 -136.38,-571.85 -9.53,-181.31 -10.73,-515.19 20.18,-689.09 45.84,-9.12 78.64,-2.13 127.04,-17.46 38.22,-12.09 60.31,-39.02 90.86,-36.97 86.98,358.73 2.75,634.07 -57.36,982.96 -16.99,98.65 -22.49,249.36 -44.35,332.41zm22.79 63.37c-12.68,-127.87 60.84,-498.84 92.82,-638.33 27.37,-119.32 22.46,-170.5 103.55,-262.07 45.44,-51.28 115.76,-153.46 163.17,-192.38 -2.38,42.9 -30.02,86.42 -37.01,135.51 -33.19,233.15 114.72,95.42 -96.89,424.51 -180.16,280.2 -180.03,464.63 -225.64,532.76zm-446.32 -1157.3c17.35,39.88 10.59,49.32 -31.4,59.66 -5.72,-9.1 -22.25,-5.4 -8.55,-36.7 22.8,-52.14 -2.58,-18.69 39.95,-22.96zm-364.21 -267.7l44.84 -37.64c118.68,10.39 132.82,111.29 148.49,212.98 -95.7,-8.59 -21.92,-47.5 -95.13,-73 -24.92,50.65 25.87,43.96 46.63,108.25 -76.26,-14.58 -155.46,-125.98 -144.82,-210.58zm752.16 61.19l118.16 -119.05c37.79,87.06 -46.67,117.56 -118.16,119.05zm631.44 -70.59c-102.94,-0.52 5.72,-101.78 0,0zm-1201.74 -135.51c158.86,30.65 210.99,235.92 192.35,377.29 -93.9,-31.44 5.47,-137.31 -98.01,-159.06 -5.64,65.89 63.73,128.89 13.67,190.19 -57.64,-37.19 -56.35,-119.61 -70.98,-189.46 -14.75,-70.43 -39.65,-148.79 -37.03,-218.96zm533.1 182.87c9.21,-62.17 39.98,-123.13 57.14,-185.42 17.79,-64.62 14.31,-158.74 51.04,-208.59 22.86,43.62 49.85,196.43 38.66,247.5 -11.19,51.07 -103.22,133.75 -146.84,146.51zm728.39 -49.06c75.81,-41.24 194.99,26.5 213.66,-79.92 -107.3,2.95 -86.73,75.95 -207.19,20.64 -12.79,-61.35 46.68,-77.93 167.5,-142.34 59.4,-31.67 168.89,-89.37 232.7,-82.27 80.56,83.6 -3.85,198.7 -86.03,242.16 -70.56,37.3 -256.58,86.51 -320.64,41.73zm-68.07 -91c-94.18,2.42 -41.23,-159.66 -66.58,-198.98 -42.64,40.18 -16.32,91.86 -30.22,164.99 -50.11,-101.09 -125.84,-444.55 46.17,-464.76 176.68,-20.76 58.73,276.49 51.7,352.61 -5.54,59.79 14.21,90.69 -1.06,146.14zm-515.45 1462.63l18.87 -73.44c57.81,-169.37 177.38,-439.55 292.99,-578.64l27.65 6.78 32.9 -5.34 -45.37 -41.99 3.28 -130.75 -32.82 33.61c1.56,42.1 -6.7,-54.96 -6.65,-59.73 1.79,-124.94 46.35,-128.23 53.06,-219.91 3.6,-49.29 118.54,-172.17 147.84,-236.66 31.49,-9.37 61.5,-30.4 90.73,-33.62 36.05,-3.95 74.23,5 121.61,-1.62 402.98,-56.35 373.57,-304.5 302.36,-341.18 -146.77,-39.99 -271.28,112.19 -403.18,134.29 7.61,-85.86 33.16,-22.88 36.64,-96.91 -41.76,6.55 -38.99,26.59 -69.67,61.77 -21.84,-55.91 33.86,-256.67 89.2,-293.49 141.58,-34.74 177.6,83.61 234.69,168.23 -17.2,-136.73 -143.5,-258.56 -285,-170.79 -41.7,-65.65 -59.78,-165.16 -188.57,-116.4 -77.38,29.31 -102.48,122.83 -109.28,199.91 -21.97,248.63 134.75,432.13 132.85,485.33 -17.73,54.36 -304.4,478.7 -343.32,512.32 -4.35,-105.18 18.02,-176.11 2.68,-304.07 -7.89,-65.89 -32.92,-208.28 -25.54,-267.14l67.3 -53.63c52.51,5.63 25.48,16.06 65.78,2.18l-6.93 -43.37c-73.54,-2.01 -70.16,57.28 -137.23,54.73 -44.75,-235.58 128.05,-171.35 44.18,-253.86 -54.55,21.89 -26.08,41.68 -67.67,93.51l-66.41 -437.46c3.85,-16.37 -60.32,2.22 -50.05,6.96l38.39 234.13 -46.74 19.14c3.07,135.21 -30.64,308.86 -101.16,426.18 -107.08,-161.8 77.88,-460.95 77.97,-467.18 -29.18,-25.31 -1.1,-17.93 -43.99,-13.75 -8.44,71.44 6.72,41.8 -31.76,104.96 -66.25,108.77 -45.58,208.94 -48.7,313.23 -41.54,-69.34 -41.01,-292.15 -16.04,-343.76 17.65,-36.51 48.46,-22.65 14.42,-75.58l-27.32 1.98c-29.39,81.89 -18.19,228.88 -25.31,321.14 -53.33,-99.93 -19.22,-175.86 -68.67,-216.76 -16.7,50.16 -2.35,24.35 14.98,82.12l57.57 226.05c-145.57,-158.93 -109.78,-320.51 -125.87,-404.27l-41.21 -0.69c-12.82,30.02 42.19,250.21 64.17,296.57 52.6,110.94 110.71,140.62 163.27,222.87 9.48,122.07 -17.96,324.16 -19.15,460.66 -0.72,80.4 -3.82,163.07 -1.23,243.09 2.28,70.32 19.85,141.48 21.89,209.18 -137.6,-177.82 -129.69,-547.95 -187.79,-664.14 -40.45,-80.9 -55.36,-55.06 -47.97,-158.66 4.5,-63 20.01,-124.64 -14.81,-178.54 -29.87,-46.25 -188.09,-179.66 -236.12,-191.93 -21.76,43.93 -14.93,77.22 -19.64,126.7 -69.79,-4.67 -119.9,-14.48 -150.74,65.48 -53.3,138.23 121.72,335.87 294.57,275.06 24.37,91.39 34.67,86.05 119.84,54.6 51.6,74.76 94.9,334.03 128.73,443.37 86.26,278.77 245.58,610.81 259.69,879.07 5.82,110.59 -23.82,397.96 -55.95,503.78l-41.5 0.33c-0.32,0 -21.84,72.15 0.04,72.34l118.41 1.09c-2.32,-65.33 0.19,-70.89 -52.9,-80.83 49.42,-313.94 96.13,-179.23 72.74,-593.76 -4.17,-74.03 17.3,-122.56 30.97,-192.89zm-973.32 -1869.82c59.82,14.68 133.76,48.96 177.35,87.12l249.62 105.47c8.77,-101.6 -86.06,-197.31 -171.65,-237.93 -102.62,-48.7 -233.78,-34.21 -343.76,-20.73 8.09,36.16 52.33,53.1 88.44,66.06zm1270.83 1080.04l32.82 -33.61 -3.28 130.75 45.37 41.99 -32.9 5.34c58.19,66.16 147.3,25.7 230.71,11.24 2.06,1.32 4.01,19.6 24.07,17.55 52.43,-5.34 26.73,-14.27 32.65,-46.21 -82.84,0.06 -157.13,25.47 -238.85,10.33 49.76,26.3 180.9,-83.44 200.69,-93.67 54.32,-28.08 41.44,13.31 48.62,-61.7 -59.91,5.53 -25.07,0.29 -74.63,35.54 -17.4,12.38 -34.91,24.38 -54.53,38.82 -42.47,31.24 -89.81,38.32 -131.69,53.95l184.04 -197.58c26.73,-75.3 3.41,-19.61 -13.74,-48.76 -49.91,37.95 -18.35,26.66 -52.89,73.67 -41.88,57.03 -133.72,124.82 -152.38,154.29 20.91,-53.99 37.47,-104.65 80.39,-144.3 17.3,-15.97 44.55,-51.05 59.53,-60.32 51.01,-31.59 39.61,7.58 64.25,-59.29 -55.75,-24.29 -25.87,-24.75 -69.8,16.53 -19.91,18.71 -26.11,22.05 -48.3,37.14 -32.02,21.77 -62.21,57.93 -67.33,94.07 65.03,-210.14 121.92,-87.64 103.34,-194.24 -53.8,10.2 -46.53,36.51 -111.39,119.47 12.72,-45.47 24.71,-59.46 1.98,-95.43 -39.56,48.32 -44.12,132.2 -56.73,194.43zm-1177.72 -2044.29c1.16,-103.29 -104.3,-271.22 -210.56,-285.76 -73.9,43.47 -136.21,153.01 -46.58,219.04 48.95,36.05 197.16,82.18 257.14,66.72zm84.24 1051.38c-43.59,-38.16 -117.53,-72.44 -177.35,-87.12l-48.2 26.87c27.8,35.28 45.98,61.14 72.35,94.01 64.46,80.36 47.24,71.79 129.87,107.48 74.17,32.04 159.1,33.19 222.36,-20.7l-199.02 -120.54zm-24.68 -1092.87c63.09,-30.96 143.23,-205.63 44.96,-285.36 -154.16,2.33 -89.93,203.26 -44.96,285.36zm1403.96 722.8l-79.93 0.87c52.74,-66.84 122.29,-112.98 165.93,-181.59l-14.61 -46.14c-52.81,31.28 -111.06,34.78 -144.52,86.03 -38.66,59.2 -34.68,104.4 -12.26,159.5 34.65,3.44 66.08,11.86 85.39,-18.68zm-819.49 2180.46l5.34 34.08c-25.86,-8.72 -192.59,-110.01 -227.3,-134.48 -15,38.2 20.78,22.39 -18.97,31.96 2.42,30.34 58.54,102.59 88.98,117.39 80.29,39.03 101.47,17.56 172.01,-5.93l-20.07 -43.02zm905.49 -2361.18c-43.65,68.61 -113.19,114.75 -165.93,181.59l79.93 -0.87c98.02,-16.92 146.12,-137.47 140.24,-228.05l-54.23 47.33zm-1127.45 2260.78c34.71,24.47 201.45,125.75 227.3,134.48l-5.34 -34.08c-12.48,-112.55 -154.35,-142.33 -250.45,-128.25 11.76,27.8 -12.83,18.19 28.49,27.85zm-686.44 -2685.61c59.29,41.2 124.59,1.3 168.71,-44.03 -46.98,-34.44 -185.2,-59.82 -168.71,44.03zm594.37 -287.01l-52.79 -0.97c4.57,-5.23 88.81,-111.96 91.38,-116.57 -9.22,-56.88 -4.6,-23.58 -20.61,-41.11 -88.1,39.13 -127.23,89.01 -75.06,176.89 52.24,-4.07 23.46,3.41 57.08,-18.24zm38.59 -117.55c-2.56,4.61 -86.81,111.34 -91.38,116.57l52.79 0.97c70.53,-21.74 104.44,-99.66 99.86,-167.77l-61.27 50.22zm385.74 2442.57c-37.5,38.95 -51.34,61.62 -16.59,104.37 70.02,-16.92 95.2,-46.65 103.09,-120.71l-86.51 16.34zm337.87 512.92c13.29,-52.74 17.03,-43.05 -9.98,-90.9 -62.77,-0.19 -72.78,2.49 -74.75,67.87 44.98,33.55 24.87,22.96 84.73,23.03zm-1347.99 -2166.41l-78.91 4.67c-16.72,59.96 -4.58,118.84 78.86,69.69l0.06 -74.36zm1136 2373.8c39.03,41.57 28.61,42.09 90.09,25.43l-2.82 -66.42c-45.47,-9.28 -63.01,6.09 -68.4,-32.44l-18.87 73.44zm155.64 36.36c8.68,-31.41 4.7,-25.98 41.84,-33.26l-1.46 49.51 -40.38 -16.24zm-26.76 -12.73c24.28,37.37 12.3,67.84 83.86,40.19 25.51,-41.46 16.44,-58.19 -21.11,-84.11 -40.12,5.44 -44.05,7.23 -62.74,43.92zm-1068.32 -2224.94c-9.65,-44.61 -11.85,-12.38 7.09,-45.82 57.23,14.54 41.96,50.69 -7.09,45.82zm-5.04 28.78c44.74,-1.13 40.71,1.66 69.83,-35.9 -2.71,-57.27 -25.73,-79.5 -80.66,-45.87 -22.35,43.55 -14.53,45.47 10.83,81.76zm1391.4 1941.56c22.3,29.9 27.67,9.67 1.62,47.49 -38.69,-20.67 -40.77,-23.31 -1.62,-47.49zm38.48 0.52c-58.14,-48.95 -106.02,-4.13 -71.72,58.56 38.89,20.63 24.52,18.91 63.16,4.64 23.69,-41.5 16.69,-15.8 8.57,-63.2zm-1523.6 -2348.3c35.51,8.68 34.21,10.9 20.3,42.64 -24.62,-8.81 -44.62,15.44 -20.3,-42.64zm-3.51 -27.78c-39.15,37.83 -44.52,47.92 -6.06,93.73l63.1 -16.12 -0.07 -56.14 -56.97 -21.47zm1345.93 2266.16c15,-41.53 19.37,-0.37 2.51,-63.83 -58.97,0.62 -80.5,18.55 -57.84,73.4 64.99,0.16 12.68,9.94 55.34,-9.57zm-1503.97 -2390.2c18.52,35.11 23.45,20.21 -10.97,37.34 -19.07,-33.85 -6.49,-25.28 10.97,-37.34zm28.29 -4.53c-50.35,-41.23 -85.9,2.03 -62.31,53.33 38.29,18.66 37.34,15.48 70.02,-12.36l-7.71 -40.97zm2.41 118.79c-40.91,50.44 -20.38,61.15 36.24,69.45l17.58 -52.33c-30.15,-26.11 -13.47,-22.32 -53.82,-17.12zm1700.27 2171.32c-3.52,46.2 7.58,26.7 -30.5,29.98 1.96,-42.86 -14.01,-29.26 30.5,-29.98zm2.92 55.84c26.03,-28.08 24.8,-35.87 8.82,-73.76l-62.4 6.66c-10.31,43.86 -14.94,25.07 10.33,64.52l43.25 2.58zm-304.24 266.71c10.73,43.35 12.29,48.92 61.82,41.88l3.45 -54.82c-38.92,-27.4 -43.09,-20.28 -65.28,12.94zm-1217.35 -2262.43c-16.36,-4.4 -6.09,-6.78 -30.34,-5.87 -52.77,1.93 -3.58,-2.23 -26.3,11.2 -20.36,40.58 7.96,73.89 59.83,44.79l-3.19 -50.12zm1421.43 2022.76c-46.24,-1.99 -33.68,-6.73 -55.38,33.92 37.85,31.44 -1.15,27.75 58.87,31.03 22.5,-42.27 27.42,-22.45 -3.5,-64.95zm-1412.78 -1776.05c-48.14,-24.98 -68.33,-4.35 -57.44,49.81l53.4 -0.74 4.04 -49.06zm-282.92 -298.55c42.06,8.85 84.64,-53.54 0.73,-64.03 -13.82,28.19 -20.93,28.15 -0.73,64.03zm1611.48 398.64c49.42,-4.78 50.01,-0.47 35.54,-57.8 -51.3,3.57 -60.29,12.71 -35.54,57.8zm-1247.68 -6.07c28.43,-33.83 22.36,-22.4 1.46,-55.99 -60.52,12.23 -48.89,49.89 -1.46,55.99zm966.26 2121.26c-47.29,-5.14 -52.04,1.49 -38.58,50.97l41.11 -2.28 -2.54 -48.69zm133.17 -1999.33l47.1 -2.33c5.96,-37.76 11.27,-22.52 -16.99,-50.51 -33.06,14.98 -32.44,6.43 -30.11,52.84zm-53.77 1854.72c19.15,-44.52 13.95,-67.81 -38.43,-41.68 6.36,44.56 -12.38,25.25 38.43,41.68zm366.64 -462.54c3.12,-51.85 0.44,-40.81 -41.51,-41.47 -5.27,46.08 -3.02,47.8 41.51,41.47zm-440.51 779.68c22.09,-51.81 13.39,-51.08 -32.3,-40.48 -17.33,42.59 1.26,31.26 32.3,40.48zm-1414.1 -3016.37l-6.95 50.06c48.46,-3.85 41.57,4.11 47.63,-36.21l-40.68 -13.85zm1635.9 2532.46c43.62,0.09 52.17,0.42 31.97,-46.12l-34.57 5.06 2.59 41.07zm-1409.93 -2200.93c15.57,-32.76 24.6,-7.99 -3.71,-46.96 -31.93,10.08 -28.23,6.25 -31.93,45.55l35.64 1.4zm38.07 226.6c37.56,3.34 64.55,6.36 32.57,-42.19 -40.12,7.75 -29.08,1.93 -32.57,42.19zm-231.18 -378.98c37.64,-11.75 31.74,6.96 31.99,-42.33 -39.84,0.42 -55.06,-0.76 -31.99,42.33zm1694.17 2147.93l23.38 -36.23 -40.9 -16.86c-13.51,43.66 -13.24,25.05 17.52,53.09z"/>
  <path class="fil1" d="M1042.98 1302.3c-5.27,-4.33 -5.73,-11.45 0.69,-9.68 4.9,1.35 7.51,8.45 -0.69,9.68zm-12.12 -24.84c3.04,1.83 1.1,0.57 3.05,3.24 3.02,4.15 4.93,1.98 4.08,6.65 -0.44,2.45 -1.02,2.52 -3.29,2.91 -7.66,1.35 -10.81,-8.65 -3.84,-12.79zm-16.54 -18.88c12.69,-5.4 7.28,10.66 5.19,14.67l-3.35 -6.68c-1.03,-2.68 -2.06,-4.94 -1.83,-7.99zm-31.79 -47.43c-2.92,-2.59 -2.29,-4.45 -5.56,-7.76 -4.03,-4.08 -3.02,-4.68 -3.45,-10.2 -0.42,-5.4 -6.47,-3.39 -1.63,-9.11 2.59,-3.08 6.25,-3.97 10.23,-3.8 3.47,5.13 7.23,26.96 0.42,30.87zm36.05 -189.34c-5.07,-6.27 -4.74,-30.67 1.25,-33.35 4,3.97 2.65,12.39 2.12,17.75 -0.42,4.4 -0.74,12.82 -3.37,15.6zm-558.08 -119.41c-1.15,9.54 9.96,148.66 0.33,142.39 -7.55,-4.93 -4.58,-127.99 -0.33,-142.39zm565.76 9.61c-1.27,-5.8 -0.19,-4.08 1.72,-8.09 1.19,-2.51 1.09,-6.5 2.12,-8.05l14.12 -4.94c0.86,2.62 0.89,4.21 0.23,7.1 -3.92,0.92 -5.8,0.06 -9.25,1.8 -0.17,6.39 0.9,9.68 -4.27,13.81l-4.67 -1.63zm46.38 -51.37c0.87,-2.12 0.73,-1.96 3.5,-3.14 10.63,-4.56 8.81,8.65 -0.19,5.7 -3.5,-1.15 -2.22,-0.4 -3.31,-2.56zm-617.77 -44.88l5.03 -0.46c22.86,24.48 25.78,59.68 22.26,92.84 -1.23,11.5 -9.38,105.16 -9.45,105.31l-17.83 -197.69zm481.78 396.44c-3.05,1.05 -37.3,15.83 -37.73,16.13 -0.09,0.06 -21.01,25.31 -24.52,29.08 -3.74,4.04 -15.44,8.38 -19.94,4.68 -2.98,-2.44 19.61,-21.37 24.05,-51.71 2.56,-17.58 -10.63,-69.72 -16.49,-88.22 -4.35,-13.77 -4.18,-31.97 -6.62,-46.18 -2.32,-13.57 -8.11,-18.65 -10.24,-39.62 -2.21,-21.54 -12.71,-65.49 -19.85,-85.9 -4.9,-14.02 -1.98,-34.15 -7.92,-45.71 -15.28,-29.75 -8.92,-67.91 -25.44,-76.76 -6.93,-3.71 -45.01,2.91 -33.81,-5.76 20.48,-15.83 9.54,-2.42 27.42,-25.34 4.35,-5.57 10.11,-7.79 12.06,-14.94 0.13,-0.49 2.91,-22.75 3.67,-20.99 0.95,18.48 13.22,108.84 22.09,120.9 5.64,7.68 5.94,20.76 6.62,30.17 1.23,16.97 4.98,15.4 8.47,28.35 2.81,10.4 1.85,22.66 3.58,33.28 1.73,10.51 7.58,14.32 8.81,27.14 2.15,22.12 11.33,45.32 12.32,61.41 1.8,29.39 10.54,36.37 12.96,59.83 2.21,21.23 12.41,35.35 14.04,59.4 2.15,31.77 13.65,28.43 41.13,29.15l5.36 1.62zm45.14 -233.69c7.22,2.11 -8.75,62.11 -9.24,72.1 -1.49,30.44 -1.16,54.02 1.16,84.27 4.41,57.46 -9.58,8.59 -15.23,-10.46 -6.4,-21.63 -3.8,-59.33 -4,-82.94 -0.49,-55.38 -2.55,-109.31 0.69,-164.99 0.67,-11.5 -1.38,-30.74 4.87,-39.94 12.76,-18.78 3.08,-21.23 9.44,-34.19 1.68,-3.42 14.27,-27.17 14.63,-26.92 11.88,7.98 -7.22,27.47 -8.25,29.87l11.59 51.9 -16.82 1.42c-11.9,4.78 -15.64,130.73 2.65,137.43l8.51 -17.55zm495.07 -271.92c15.27,-5.54 7.38,9.14 22.48,-5.87 11.45,-11.36 8.24,-1.07 8.04,11.83 9.9,0.56 9.81,-0.52 14.73,2.76l-11.7 36.96 -3.38 -1.49 6.6 9.12 15.84 -2.69c1.75,1.85 3.18,17.81 3.7,21.39l0.57 -3.04c4.67,0.87 9.86,19.57 11.76,24.29 6.39,15.97 9.28,5.5 21.89,7.78 3.82,18.78 -4.41,38.25 4.44,56.74 9.04,18.89 9.2,27.16 16.46,43.93 7.02,16.24 16.82,86.46 18.42,106.36 3.31,41.23 0.54,77.41 -1.32,118.42 -1.09,23.95 -11.4,18.59 -12.76,48.13 -0.23,5.14 -14.15,44.68 -16.07,45.05 -9.98,-8.72 14.75,-80.96 16.95,-94.56 7.06,-43.78 2.52,-70.33 1.68,-112.46l-1.09 6.12c-5.54,-40.47 -26.9,-83.23 -47.8,-117.06 -3.31,-5.37 -6.53,-6.5 -9.98,-10.67 -5.2,-6.3 -1.88,-10.6 -4.66,-13.29 -8.11,-7.88 -11.55,-9.77 -18.44,-19.67 -2.91,-4.2 -19.98,-14.47 -20.9,-19.15 -1.49,-7.65 -14.74,-7.23 -25.11,-10.77 -0.17,-3.15 0.13,-9.61 -1.29,-12.15l18.54 -4.1c12.13,-10.93 -27.67,-45.67 -36.67,-49.75 -8.98,-4.08 -24.94,-6.73 -25.96,-19.9 -0.47,-5.93 -6.13,-35.81 -6.02,-36.51l1.91 -3.12 38.66 23.68 -1.8 2.84 37.59 -0.03 2.41 -14.48 -16.72 2.55c-2.45,-2.38 -2.11,-13.26 -0.97,-17.19zm-1028.97 167.83c-1.62,-21.16 3.01,-39.62 -11.06,-54.19 -2.19,-2.28 -13.61,-41.5 -14.17,-46.98 -3.07,-29.72 -1.49,-83.97 23.33,-103.65 7.55,-5.99 21.36,-33.22 22.63,-42.6 3.67,-27.02 30.91,2.09 43.63,-8.08 4.28,-3.42 9.57,-19.32 12.13,-8.27 2.13,9.27 -1.07,18.48 -3.38,27.39 -6.45,24.84 -6.68,23.84 -6.29,51.51 1.55,2.25 12.42,4.11 6.93,14.93 -5.19,10.23 -8.55,5.4 -9.28,20.87 -0.76,15.91 0.3,40.84 3.78,56.28 1.92,8.45 7.03,12.29 8.16,22.32 0.92,8.24 0.77,17.93 2.36,26.06 1.8,9.22 9.33,29.52 12.58,43.89 4.76,21.07 7.35,27.45 9.87,50.54 2.06,18.85 10,30.44 12.42,47.93 2.84,20.41 13.42,82.15 20.67,98.55 7.59,17.15 -1.56,30.85 8.9,50.35 9.27,17.29 3.41,36.7 10.01,50.45 13.25,27.59 8.85,57.13 30.17,83.84 28.76,36.05 31.8,39.13 81.56,39.09 20.1,-0.01 35.08,0.97 52.84,-7.98 7.84,-3.95 40.74,-7.08 48.12,-3.39 -0.52,2.94 -52.38,16.27 -60.16,17.39 -25.05,3.6 -48.12,1.73 -73.13,2.03 -44.19,0.52 -71.97,-36.93 -76.97,-78.27 -1.72,-14.17 -11.53,-43 -20.56,-52.83 -10.77,-11.75 -38.23,-17.13 -52.66,-27.35 -20.13,-14.25 -26.56,-14.1 -41.17,-36.94 -6.19,-9.7 -27.76,-46.97 -15.54,-55.55l8.68 25.17 2.68 -0.26 -0.66 -197.62 4.07 -0.76c-0.19,-21.79 -9.4,-59.72 -24.81,-75.6 -20.1,-20.7 -10.76,71.84 -15.61,71.74l-0.1 0zm84.87 -271.79c-6.62,-8.02 -4.35,-8.39 0.03,-22.49l5.29 0.21c0.56,9.4 -0.23,14.65 -5.31,22.27zm747.88 851.06l6.73 1.53 -19.47 -71.72 4.08 -1.26c-3.37,-8.29 -103.58,-26.9 -121.47,-37.52 -31.24,-18.55 -59.79,-44.25 -82.82,-72.11 -14.81,-17.91 -20.04,-25.76 -32.95,-44.22 -9.51,-13.61 -5.26,-21.62 -10.59,-29.41 -15.4,-22.5 -4.08,-12.22 -10.89,-28.98 -6.55,-16.12 -7.88,-3.68 -10.16,-29.72 -1.12,-12.83 -2.09,-24.37 -2.59,-37.32 -0.37,-9.43 -1.2,-70.62 9,-71.25l7.38 120.61 13.92 -1.09c9.38,26.3 33.32,65.22 38.91,88.28 1.23,5.11 9.73,8.22 16.5,16.27 5.93,7.05 8.18,13.77 14.44,19.24 6.45,5.64 17.43,8.42 16.8,14.8 -0.76,7.48 7.84,12.35 12.26,17.5 6.42,7.49 7.84,12.96 15.69,3.47 4.1,-4.97 12.45,5.01 18.65,8.95 6.57,4.17 37.4,18.32 45.64,21.66 31.21,12.66 73.24,16.29 107.69,15.46l4.23 4.98 146.65 -63.24 1.91 4.43c11.7,-17.53 8.22,-5.84 20.9,-21.39 5.37,-6.57 16.13,-3.02 -1.68,15.34 -3.88,4 -18.08,13.65 -23.78,18.21 -5.16,4.13 -4.18,8.59 -10.17,10.41 -9.15,2.79 -7.45,-1.68 -14.94,6.79 -9.75,10.99 -42.36,20 -57.6,27.52 -16.9,8.32 -15.54,6.02 -33.39,7.94 -0.85,0.09 -25.55,11.99 -28.99,13.88l4.14 72.71 2.68 -0.76c-0.07,-46.54 -14.58,-58.33 39.51,-58.32l-16.1 -10.34c8.31,-12.91 59.33,-27 77.37,-38.89 25.2,-16.6 46.04,-25.08 66.98,-49.46 7.69,-8.95 19.94,-21.64 25.25,-32.46 2.58,-5.26 18.66,-33.85 21.29,-36.84 6.15,-6.99 4.83,-14.64 6.04,-23.15 1.66,-11.53 8.65,-7.43 9.57,-19.5 0.95,-12.38 3.47,-44.64 -2.29,-54.42 -6,5.17 -6.43,37.06 -9.64,47.21 -2.06,6.5 -14.14,33.32 -17.55,39.08 -13.91,23.48 -29.45,45.68 -48.22,65.94l-11.16 -7.31c-35.41,40.85 -120.38,75.15 -174.2,75.79 -27.63,0.33 -74.32,-13.98 -100.03,-24.7 -33.65,-14.02 -49.73,-24.32 -77.74,-47.13 -18.09,-14.75 -43.8,-49.63 -53.87,-70.95 -18.61,-39.45 -20.03,-61.24 -32.17,-92.77 -9.86,-25.57 -15.28,-12.91 -13.35,-49.72 1.02,-19.19 5.73,-34.97 8.11,-53.92 3.71,-29.52 34.06,-67.37 32.76,-87.09 -26.72,22.4 -48.6,70.3 -55.65,104.3 -11.8,56.94 -13.94,81.72 1.27,138.36 6.73,25.08 36.48,87.24 53.57,106 2.55,2.79 37.87,37.69 38.52,38.1 1.85,1.17 41.38,35.18 41.67,35.63 -32.87,6.19 -83.73,-51.11 -103.49,-75.62 -23.22,-28.79 -48.57,-95.42 -55.91,-131.83 -21.69,-107.59 23.45,-200.29 102.92,-268.89 31.18,-26.92 84.82,-50.55 123.26,-65.21 36.9,-14.05 117.15,-14.85 156.62,-6.88 84.16,17.02 184.11,83.35 208.69,170.06 30.12,58.16 25.45,117.89 14.55,179.9 -2.41,13.77 -6.57,30 -10.5,43.46 -2.06,7.06 -1.92,16.9 -4.58,22.03 -3.55,6.83 -6.09,9.58 -8.71,17.55 -4.43,13.47 -37.62,64.23 -35.41,70.32l23.29 2.16 3.05 -5.5c-6.53,0.1 -17.92,1.76 -23.11,-1.32 3.07,-2.35 1.49,-1.48 6.04,-1.56 -0.3,2.45 -0.19,-0.21 -0.13,-0.29 1.53,-1.86 3.02,-1.36 4.74,-2.74l0.99 -11.8c6.23,-2.68 11.59,-5.11 11.45,-15.79 -0.11,-9.2 1.55,-6.86 3.52,-7.48 2.41,3.78 0.73,10.8 1.29,15.51 0.44,3.62 1.15,8.98 4.4,10.34l6.26 -9.21c-3.07,-14.61 13.64,-43.63 21.34,-58.21 5.11,-9.67 17.03,-52.24 18.95,-63.82 7.09,-42.84 8.39,-110.24 2.81,-153.33 -3.84,-29.69 -18.81,-110.04 -30.22,-135.31 -24.17,-53.49 21.07,-80.88 10.67,-135.6l0.06 -1.75 -39.02 -1.45c-0.14,3.5 18.59,26.44 19.37,28.99 2.98,9.78 3.57,36.24 -3.44,43.13 -18.42,8.24 -42.77,-62.98 -37.9,-77.08l17.43 -2.25 -0.89 -4.14c-9.4,-2.51 -23.38,-1.35 -29.72,-10.14 -4.01,-5.57 5.09,-22.46 -11.04,-26.54 -9.51,5.06 -10.41,35.6 -33.38,9.68 -0.03,-0.03 -32.62,-23.78 -35.52,-25.8 -16.56,-11.49 -69.52,-28.84 -90.22,-33.16 -26.27,-5.5 -19.7,-1.05 -44.82,-11.13 -2.31,-0.92 -51.14,-1.83 -58.01,-1.79 -2.44,0 -44.45,9.64 -51.01,11.02 -18.35,3.85 -7.65,-2.11 -21.21,9.37 -4.27,3.61 -24.09,1.95 -23.98,6.86 1.45,9.37 70.69,-8.51 83.24,-8.97 34.34,-1.23 58.42,-0.4 91.82,2.54 18.62,1.65 56.78,18.51 76.06,24.35 10.99,3.34 57.66,33.95 59.98,41.04l0.06 -0.36 8.71 15.14c-11.62,14.04 -21.57,-2.19 -38.65,-8.54 -77.84,-28.92 -52.97,-31.57 -150.65,-29.67l8.24 24.19c15.89,-13.84 9.71,-14.24 24.92,2.02 13.78,-13.94 8.78,-13.14 28.2,-1.46 12.15,7.29 -2.44,37.95 9.78,38.36l1.2 -35.2 16.01 -0.77c-0.11,3.04 6.42,8.22 0.17,30.78 -4.81,17.43 15.84,12.62 15.93,12.65l-1.7 0.16 -3.31 -37.03 6.49 -0.57c6.33,2.65 5.4,11.55 12.49,12.61 6.98,1.06 9.47,-5.37 14.21,-0.97 15.67,14.54 -9.94,26.07 -11.57,28.23 4.94,11.3 77.78,27.27 74.11,60.78 -10.66,7.32 -47.89,-11.43 -60.65,-15.99 -18.84,-6.72 -44.28,-14.35 -64.1,-15.71 -36.83,-2.54 -112.18,-4.86 -145.39,9.78 -43.58,19.22 -69.27,19.24 -112.55,50.61 -10.6,7.69 -38.52,25.93 -45.44,35.77 -5.69,8.12 -30.35,37.32 -37.7,44.22l-1.5 0.89 -30.77 58.01 -7.99 -2.16 -0.53 -107.42 7.19 -0.97 10.76 29.42 10.9 -0.49 10.73 -25.45 2.65 1.09 -0.95 -12.98c-0.24,-0.07 -16.39,21.6 -18.58,1.29 -0.7,-6.43 3.94,-26.41 6.16,-31.53 2.55,0.83 10.96,4.51 13.01,3.57l5.23 -25.81 -5.37 -3.17 -13.02 17.53c-6.66,-7.03 -7.63,-9.65 -13.84,-12.06l56.35 -99.21 2.01 1.13c-12.65,-14.05 -67.2,64.73 -71.12,79.42 -13.54,50.77 -22.99,76.56 -23.02,131.63 -0.03,51.27 1.53,103.08 0.7,154.16 -0.27,16.52 7.75,48.37 11.9,65.45 5.09,21 18.51,49.39 -10.03,54.36 -19.58,3.41 -44.72,17.52 -52.11,-12.12 -4.66,-18.71 -11.14,-44.13 -14.83,-62.57 -4.51,-22.68 -11.09,-40.68 -13.84,-63.53 -2.88,-23.96 -10.87,-40.47 -13.32,-63.96 -3.38,-32.56 -19.25,-93.21 -30.45,-124.42 -5.9,-16.44 -13.89,-123.2 -22.42,-125.47 -11.27,13.95 2.45,27.66 -14.88,46.43 -10.8,11.7 -19.64,20.17 -34.05,27.25 -16.57,8.14 -26.66,13.01 -45.64,15.61 -9.55,1.32 -42.23,7.21 -46.07,14.5 96.59,12.45 133.53,-57.84 143.79,19.72 3.08,23.26 12.85,58.92 18.12,83.51 5.9,27.65 11.5,55.58 18.09,83.04 7.21,30.02 33.3,145.97 31.81,170.02 -3.91,63.37 -72.75,70.1 -123.19,80.15 -63.63,12.66 -111.52,1.05 -127.72,-67.04 -12.98,-54.56 -25.5,-109.78 -38.85,-164.13 -13.08,-53.23 -26.08,-114.21 -35.01,-168.17 -7.66,-46.38 -37.69,-123.51 -26.51,-167.5l14.01 8.59 0.82 -1.32c11.77,-7.51 -10.31,-24.28 -11.82,-43.2 -1.58,-19.67 0.95,-39.45 5.26,-58.49 3.08,-13.67 15.13,-29.38 20.58,-42.9 5.29,-13.08 24.95,-19.5 25.17,-36.87 -5.29,-1.29 -33.71,18.51 -38.66,26.26 -9.24,14.45 -9.94,31.13 -28,38.35 -14.74,5.9 -32.86,1.73 -44.49,15.18 -9.22,10.67 -13.16,30.21 -23.28,44.21 -52.77,73.01 -0.34,145.02 6.76,219.38 7.21,75.25 -9.7,159.75 39.38,226.96 25.94,35.54 42.46,37.11 78.25,56.6 34.26,18.64 32.03,57.26 44.79,89.36 30.34,76.38 133.96,52.74 194.56,34.88 49.94,-14.73 49.12,-15.81 87.34,-47.7 16.89,-14.1 66.11,-44.68 86.2,-26.64 10.83,9.73 17.68,29.21 26.1,41.71 9.1,13.51 19.62,24.65 30.32,36.8 24.81,28.19 40.87,41.37 72.52,61.51 20.68,13.16 74.17,30.61 98.72,36.08 47.84,10.64 70.86,-5.54 75.6,57zm445.69 -583.64c1.07,3.09 1.45,12.36 -0.1,15.38l-2.79 3.35c-2.39,-1.76 -3.39,-4.11 -3.52,-6.57 -0.03,-0.82 0.07,-3.08 0.13,-3.98 0.27,-4.84 0.9,-9.74 6.29,-8.18zm-63.51 -100.31c-2.74,-3.57 -4.3,-41.23 -4.56,-49.28 -0.13,-3.68 -2.15,-15.59 3.78,-14.64 6.99,1.12 4.64,25.83 4.63,31.46 0,6.98 2.62,29.02 -3.85,32.46zm-12.09 -134.44l3.01 7.59c2.35,0.79 -3.17,-2.09 0.95,-1.48 -0.29,9.3 0.2,19.05 0.09,28.46 -0.06,4.08 -1.03,21.66 -4.27,25.45 -2.74,-6.83 -4.76,-37.76 -4.68,-46.96 0.01,-2.85 0.34,-8.81 2.06,-11.16 2.33,-3.17 -0.17,-1.25 2.85,-1.92zm43.72 -91.1c-0.09,-1.13 2.12,-11.1 3.04,-12.32 5.47,-7.25 9.98,14.61 3.98,18.72 -5.31,3.64 -6.85,-4.15 -7.02,-6.4zm-48.99 -16.86c-1.4,-18.91 5.31,-31.6 19.55,-11.1 6.95,9.98 13.02,26.44 17.78,37.96 6.36,15.41 8.38,23.69 17.71,38.23 9.17,14.32 14.88,23.52 14.98,41.37 0.14,25.94 -15.53,43.65 -2.12,72.97 4.23,9.25 4.31,13.18 5.24,23.12 1.73,18.61 8.18,12.52 12.41,43.52 3.17,23.15 6.68,24.18 1.58,48.95 -1.76,8.52 -7.66,36.01 -21.73,31.07 -6.33,-2.22 -7.09,-14.35 -7.25,-19.87 -0.3,-9.83 -0.64,-14.81 -3.82,-24.22 -6.33,-18.72 -5.7,-28.72 -8.69,-47.27 -2.62,-16.23 -8.28,-28.85 -10.04,-45.88 -3.02,-29.15 -7.61,-27.26 -10.79,-45.14 -2.89,-16.22 -1.55,-34.28 -5.43,-50.79 -1.69,-7.15 -4.74,-13.79 -6.59,-20.91 -2.03,-7.85 -2.68,-16.4 -3.82,-24.45 -2.08,-14.54 -7.98,-34.34 -8.95,-47.54zm-262.07 -7.72c-1.5,1.07 -11.5,4.53 -14.63,5.59 -9.3,3.12 -5.82,7.75 -9.93,10.61 -1.75,1.23 -3.39,0.86 -5.99,4 -2.25,2.71 -1.53,3.95 -5.03,5.64 -4.27,2.08 -14.3,2.23 -17.98,-0.69 -0.33,-3.35 1.5,-10.54 1.52,-15.1 0.01,-5.69 -1.3,-11.16 3.01,-14.44 3.41,1.06 10.46,6.53 13.65,6.8 2.98,-1.23 0.09,-0.57 4.24,-2.69 3.17,-1.62 2.08,-0.36 3.68,-4.08 2.65,-6.13 1.85,-4.5 2.58,-12.02 0.17,0.16 0.37,0.21 0.46,0.56l3.88 5.77c3.44,5.82 10,4.81 14.15,7.19 3.88,2.23 -0.37,0.63 2.33,1.75 1.98,0.8 1.6,-0.27 4.04,1.1zm350.43 47.9c-2.33,-2.09 -6.89,-16.54 -7.85,-20.31 -0.97,-3.88 -19.64,-26.6 -23.25,-35.11 -2.54,-6 -0.53,-17.03 6.26,-20.08 8.67,-3.9 24.34,22.33 26.97,28.94 3.29,8.25 9.25,44.88 -2.13,46.57zm-435.39 -146.91c3.8,10.89 -1.12,23.92 4.56,35.38 0.2,0.4 3.08,4.33 4.08,5.82 1.45,2.15 2.89,2.39 4.14,5.83 1.23,3.41 1.65,16.06 0.06,18.91 -3.15,-1.52 -1.95,-11.56 -11.04,-17.09 -2.42,-1.48 -8.31,-1.46 -11.9,-2.75 -2.01,-0.73 -7.32,-5.07 -7.69,-6.99 -0.52,-2.69 9.01,-14.73 10.6,-18.31 2.65,-5.97 1.17,-21.8 7.21,-20.8zm298.84 19.18c12.75,8.11 29.24,71.62 33.81,87.97 4.63,16.62 4.7,30.67 10.41,48.46 2.21,6.85 4.61,49.94 -1.89,49.95 -3.41,0 -6.1,-17.22 -6.79,-20.03 -2.35,-9.5 -6.09,-12.66 -9.37,-20.78 -2.94,-7.31 -4.61,-15.5 -8.28,-22.42 -2.59,-4.93 -24.55,-29.15 -29.14,-32.17 -22.7,-15 -35.37,-20.91 -63.33,-28.41 -13.67,-3.65 -37.79,-1.53 -53.13,-1.8 -18.24,-0.33 -39.36,-0.49 -57.34,2.39 -13.59,2.19 -41.56,8.54 -44.88,-10.5 -2.18,-12.58 -0.13,-42.07 14.38,-46.93 11.49,-3.85 90.99,3.17 109.38,3.27 19.58,0.09 37.7,-0.87 57,-4.41 13.45,-2.46 36.86,-12.41 49.16,-4.58zm138.59 207.81c-3.41,1.72 -8.61,1.63 -13.08,1.56 -3.28,-13.01 -3.38,-31.59 -3.87,-33.76 -0.95,-4.15 -6.96,-9.86 -8.21,-13.82 -1.62,-5.16 -3.02,-15.4 -4.86,-18.75 -9.45,0.23 -7.86,0.96 -9.55,-7.76 -1.1,-5.64 -3.44,-9.3 1.79,-13.41 10.21,1.49 1.59,12.28 13.21,18.49 11.45,-9.01 9.78,-4.14 11.56,-19.77 2.09,2.29 2.05,6.76 3.5,10.18 1.59,3.72 -0.07,0.21 1.25,1.23 1.17,0.9 1.12,4.77 7.66,8.28 8.22,-6.02 6.56,-9.65 8.64,-19.38 2.26,-10.59 1.83,-29.97 -1.99,-39.39 -2.33,-5.79 -3.75,-4.5 -6.35,-8.24 -3.18,-4.6 -2.42,-6.23 -3.58,-11.27 -1.52,-6.57 -4.47,-2.45 -4.17,-10.07 -6.86,-2.99 -10.14,-8.65 -18.28,-6.6 -5.27,1.32 -5.63,2.41 -9.04,5.46 -2.45,2.19 -6.6,2.36 -9.02,5.4 1.26,4.6 1.82,0.97 2.25,6.07 0.27,3.18 -0.7,4.67 0.93,7.43 2.66,4.48 6.65,4.56 5.86,11.69l-8.82 2.81 -2.51 27.06c-0.97,0.43 1.03,-1.07 -2.25,1.55 -1.56,-3.6 -4.96,-15.01 -5.43,-18.55 -1.66,-12.38 -6.73,-4.14 -9.44,-15.81 -1.75,-7.53 -6.95,-8.49 -9.65,-14.08 -3.32,-6.85 -3.28,-2.55 -5.96,-7 -2.91,-4.81 -0.33,-5.06 -6.42,-6.47 -9.68,8.52 -5.89,38.25 -11.5,45.92 -4.15,-5.36 -4.57,-25.5 -7.38,-31.13 -5.34,-10.71 -4.23,4.41 -8.51,-28.16 -1.36,-10.36 -3.37,-9.74 -8.97,-17.3l-0.01 -13.36c10.3,0.82 12.1,1.45 21.67,-2.45 5.04,-2.05 11.29,-6.47 15.76,-6.8 3.64,-0.27 10.1,2.25 12.58,4.86 6.27,6.59 -4.05,13.04 26.34,22.8 5.13,1.65 17.86,3.45 20.47,4.76 7.02,3.52 1.05,6.45 14.28,9.6 9.81,2.33 9.75,2.46 15.11,10.14 4.17,5.97 6.55,5.66 11.04,14.21 1.66,3.14 2.12,5.74 3.48,8.77 1.46,3.22 3.82,4.81 5.19,7.79 5.31,11.59 -6.43,28.42 -7.08,42.13 -0.37,7.84 -1.32,15.24 -2.26,23.02 -0.76,6.39 0.27,17.36 -3.65,21.7 -7.02,7.79 -5.21,8.28 -6.88,18.34 -1.22,7.38 -2.56,14.75 -3.85,22.12zm-181.53 -256.19c5.99,7.53 6.22,18.85 0,25.4 -7.84,-0.24 -10.69,-3.09 -13.95,-8.8 -6.7,0.2 -4.24,2.21 -8.71,3.41 -5.14,1.4 -3.9,-0.62 -9.84,2.51 -9.8,5.14 -7.63,0.03 -17,-2.74 0.11,-0.33 6.35,-11.67 6.7,-12.23 1.53,-2.33 0.69,-0.77 2.46,-2.25 3.12,-2.59 -3.54,-1.79 8.25,-3.32 6.04,-0.79 11.65,0.07 17.28,1.45 2.52,0.62 7.19,-4.03 14.81,-3.42zm22.85 -29.18c1.68,2.01 1.86,6.52 2.48,7 0.49,0.39 1.38,-3.25 2.74,5.99 0.92,6.3 0.52,11.46 4.63,16.65 8.21,10.36 1.33,9.15 6.23,25.23 1.73,5.72 0.59,3.27 4.8,6.02 -5.53,3.85 -10.36,2.69 -17.07,2.61 -3.51,-0.04 -15.9,0.72 -17.98,0.24 -2.33,-5.51 3.71,-23.92 2.31,-29.34 -0.42,-1.59 -0.76,-4.47 -0.86,-4.93 -0.46,-1.93 0.39,1.35 -1.39,-1.95 -3.31,-6.13 -6.55,-21.17 6.29,-23.08 6.23,-0.93 4.08,-2.42 7.84,-4.44zm-280.4 1.16c0.39,-5 7.81,-14.71 13.35,-13.59 4.67,0.95 7.38,12.18 11.09,16.67 6.78,8.27 16.43,27.23 19.44,37.46 6.56,22.29 6.56,3.27 12.46,44.32 2.85,19.93 2.66,32.95 1.49,52.91 -0.36,6.1 -2.52,18.36 -11.66,13.24 -4.64,-2.61 -9.61,-11.66 -12.45,-16.22 -3.35,-5.4 -8.35,-11.96 -10.87,-17.48 -3.02,-6.59 -3.11,-14.28 -6.57,-21.79 -4.54,-9.84 -6.95,-6.92 -8.35,-20.1 -0.96,-9.01 -2.52,-15.43 -4.11,-24.07 -1.43,-7.81 0.73,-17.89 -0.1,-26.79 -0.63,-6.86 -4.21,-18.12 -3.71,-24.58zm170.75 -21.53l37.73 -0.04 3.28 9.12c-2.46,1.22 -2.18,2.06 -5.29,2.85 -2.44,0.62 -4.91,0.47 -7.56,1.1 -5.77,1.35 0.23,1.68 -10.97,4.23 -6.57,1.5 -5.23,-2.11 -11.77,-4.11 -4.18,-1.27 -8.41,-2.82 -12.41,-4.56 1.62,-4.51 4.44,-5.03 6.99,-8.59zm-185.86 -2.25c-1.17,-10.7 -2.33,-6.92 -4.18,-14.44 -0.92,-3.72 -1.48,-11.73 -3.7,-13.94 -2.84,-2.84 -10.08,-3.17 -13.95,-0.04 -9.41,7.62 -5.24,9.25 -8.82,26.53 -1.19,5.73 -5.2,5.33 -7.92,9.54 -4.54,7.05 -2.16,6.37 -12.26,6.25 -4.1,-0.04 -11.13,0.74 -11.04,-5.06 0.06,-3.21 7.68,-21.69 9.9,-24.55 9.33,-12.06 5.97,-15.81 5.72,-30.44 -0.06,-3.28 0.16,-12.62 5.17,-6.1 9.3,12.05 3.77,0.74 41.38,12.66 3.72,1.17 16.92,12.1 18.71,15.81 2.85,5.89 3.8,4.08 8.77,7.31 5.63,3.65 2.88,7.18 5.31,12.06 1.99,4.01 6.57,4.2 9.61,8.12 2.65,3.42 3.39,7.51 6.29,11.33 3.62,4.8 4.98,4.64 7.55,10.73 2.61,6.22 4.41,5.37 8.25,9.58 5.09,5.57 8.81,15.59 17.53,17.96 28.49,7.78 5.99,-36 34.64,-33.69 1.96,4.5 5.37,16.24 7.92,18.48 6.39,5.66 9.86,-1.49 18.66,7.94 -0.36,7.66 -2.56,16.3 -3.42,24.44 -0.89,8.28 -0.6,18.24 1.65,24.81l-3.48 4.43c-8.68,-0.36 -29.04,-1.65 -36.46,-0.29 -4.84,0.87 -12.46,0.86 -15.48,4.15 -1.82,1.99 -6.15,9.9 -5.77,11.62 -0.04,-3.8 2.12,-5.57 -0.77,-8.41l-2.66 10.61c-0.1,-4.7 -2.95,-37.46 -5.01,-41.11 -1.39,-2.45 -6.16,-3.71 -7.36,-6.16 -2.86,-5.87 -1.65,-17.96 -8.22,-22.85 -6.62,-4.93 -5.37,-15.41 -8.9,-21.64 -3.48,-1.86 -5.72,-0.83 -7.62,-4.48 -1.42,-2.74 -2.16,-5.4 -3.91,-8.31 -4.21,-6.99 -1.3,-14.01 -11.93,-9.35 -3.28,1.43 -6.47,2.72 -8.06,4.56 -3.51,4.03 -6.73,11.55 -7.56,16.42 -0.62,3.58 -1.6,4.76 -4.13,6.98l-4.41 -31.44zm-72.45 -60.71c8.84,-1.72 7.35,-1.19 13.44,3.77 8.08,6.6 7.19,24.41 5.54,29.65 -2.35,7.48 -34.81,3.64 -35.27,-13.26 -0.34,-12.63 4.51,-17.88 16.29,-20.15zm-504.31 225.88c3.9,-0.04 41.03,-4.21 45.37,-5.53 4.64,-1.42 7.03,-4.34 11.06,-5.83 6.29,-2.35 20.89,-2.19 29.44,-4.21 9.17,-2.18 17.26,-5.77 26.72,-7.72 9.37,-1.93 18.81,-3.65 28.19,-5.53 9.55,-1.91 15.06,-5.86 25.97,-7.65 9.8,-1.62 18.38,-4.03 28.29,-5.4 9.51,-1.3 16.83,-6.13 26.61,-7.92 9.28,-1.69 17.33,-3.37 25.21,-8.88 9.67,-6.79 9.5,-10.54 16.43,-17.43 10.9,-10.83 8.54,-7.12 11.86,-22.36 1.1,-5.07 3.14,-7.02 5.2,-11.4 2.02,-4.28 2.88,-9.08 4.18,-13.61 3.12,-10.9 7.62,-12.68 12.1,-21.43 2.23,-4.34 2.19,-7.02 6.2,-10.36 15.46,-12.91 18.98,-23.92 22.89,-28.63 3.15,-3.8 10.89,-17 14.32,-16 3.5,6.75 -1.05,19.27 0.97,27.69 1.55,6.46 3.65,21.76 -2.82,25.45l0.63 0.9c0.32,0.04 -4.24,-5.36 -5.97,-8.39 -2.51,-4.38 -1.85,-5.86 -5.79,-9.17 -9.07,-0.53 -5.99,7.91 -13.44,14.27 -12.62,10.77 -8.02,31.54 -6.33,45.67 1.65,13.69 5.51,9.41 8.97,18.89 2.56,7.05 1.65,14.88 4.7,22.9 1.78,4.67 4.57,5.43 5.47,8.24 2.32,7.32 2.03,24.37 10.57,31.31 4.11,3.32 2.71,4.37 5.64,7.99 4.03,4.97 1.2,5.34 4.03,9.84 4.27,2.84 7.68,2.42 13.75,6.93 -2.01,0.16 -6.98,8.52 -7.98,10.66 -3.58,7.59 -0.33,9.98 -3.51,16.43 -3.38,6.88 -3.12,9.9 -3.05,17.4 0.06,6.95 -1.89,12.18 -1.59,19.18 0.43,9.71 11.53,40.9 -20.11,28.91 -8.92,-3.38 -5.94,-1.43 -12.81,-7.26 0.53,1.82 19.35,-13.21 21.93,-17.49 4.76,-7.88 3.54,-63.9 -2.02,-78.28 -2.15,-5.53 -5.8,-6.68 -7.16,-11.79 -1.59,-5.93 -2.28,-11.04 -4.2,-17.3 -1.91,-6.25 -4.81,-8.59 -6.93,-13.85 -2.26,-5.64 -2.45,-11.76 -3.81,-17.62 -2.08,-8.92 -7.1,-22.65 -17.48,-25.25 -6.62,-1.66 -10.6,2.41 -11.92,8.44 -1.83,8.44 -5.56,8.45 -6.86,14.63 -1.5,7.05 0.1,31.44 -7.53,33.96l-9.01 -8.35c-3.18,-3.6 -0.46,-2.22 -4.77,-3.7 -5.5,8.77 -26.99,6.98 -36.03,9.5 -6.6,1.83 -9.61,7.92 -11.66,13.91 -2.51,7.36 -5.72,6.35 -13.55,6.72 -12.73,0.59 -55.44,0.93 -66.57,7.43 -9.14,5.33 -33.59,7.08 -40.58,8.98 -7.74,2.12 -9.86,4.27 -18.95,5.47l-41.51 8.28c-5.76,1.16 -13.08,3.91 -18.97,5.63 -7.72,2.25 -13.41,2.28 -21.1,3.37 -3.25,0.46 -7.19,0.92 -10.27,1.93 -2.98,0.99 -5.94,3.25 -8.78,3.75 -7.42,1.33 -10.7,-5.69 -12.42,-11.37 0.87,0.43 8.08,-3.6 9.35,-4.34 4.78,-2.85 13.72,-0.46 27.53,-4.4 6.55,-1.86 4.07,-1.56 7.28,-3.45 0.95,-0.56 0.54,1.29 3.37,-1.95 -9.04,-0.63 -13.15,1.43 -21.29,4.15 -6.96,2.33 -13.61,0.23 -21.42,3.27 -6.43,2.49 -11.93,5.27 -19.3,5.06 -8.8,-0.27 -12.89,-2.74 -20.46,2.02 7,8.32 10.93,3.82 19.3,3.01 9.6,-0.95 9.24,6.55 13.65,11.52 4.86,5.46 12.05,5.56 17.99,1.92 9.87,-6.04 26.73,-7.99 40.67,-11.5 20.41,-5.13 12.48,0.04 40.42,-9.91 6.62,-2.35 14.21,-3.02 21.14,-4.17 14.73,-2.44 25.97,-8.27 42.56,-9.45 13.05,-0.93 28.49,-7.75 42.6,-9.6 4.28,-0.57 8.31,-0.24 12.56,-0.49 5.99,-0.34 22.66,-4.27 31.53,4.88 3.81,3.95 3.18,11.43 3.62,16.62 0.93,10.53 1.35,10.37 -4.13,19.55 5.92,1.72 5.94,3.74 19.35,2.22 5.31,-11.06 4.44,-16.1 0.01,-26.97 -10.6,-6 -10.33,-7.78 -10.49,-20.24 -0.26,-20.44 23.16,-18.35 39.79,-23.06 11.77,-3.35 10.69,5.33 18.02,10.51 8.54,2.11 8.91,-24.31 10.21,-31.31 1.19,-6.43 8.8,-25.1 14.78,-28.06 6.39,3.54 9.73,11.35 13.49,17.86 4.58,7.89 4.27,16.93 7.71,24.49 4.34,9.54 2.54,-3.97 9.11,22.25 2.98,11.92 5.2,13.45 8.91,23.33 4.73,12.68 2.78,45.21 2.39,59.96 -0.34,13.55 -5.74,12.26 -13.78,17.79 -4.3,2.95 -17.13,6.42 -19.87,11.66 3.88,2.41 6.75,1.82 11.39,6.27 6.29,6.03 1.95,5.16 11.9,6.5 52.36,7.08 28.92,-6.2 26.37,-24.09 -1.55,-10.77 0.83,-18.55 0.7,-28.95 -0.14,-11.8 3.58,-14.88 5.4,-25.93 2.84,-17.33 6.3,-13.72 12.75,-18.55 -3.57,-8.38 -14.28,-6.26 -17.72,-11.17 -4,-5.72 -5.94,-13.52 -10.41,-19.5 -4.78,-6.37 -5.79,-14.68 -7.71,-22.22 -2.59,-10.26 -6.17,-12.82 -9.02,-20.71 -3.01,-8.32 -0.73,-13.34 -6.07,-23.15 -4.21,-7.74 -6.75,-13.67 -7.25,-22.7 -1.36,-24.22 5.1,-24.65 17.65,-42.24 2.82,1.95 5.4,7.79 7.16,10.66 7.82,12.81 -0.1,6.96 7.13,11.03 4.23,2.38 4.34,8.29 5.53,12.55 2.05,7.28 1.5,7.78 10.1,7.69 7.09,-0.07 9.18,-0.56 15.6,2.39 5.29,2.44 7.61,-0.01 13.02,-1.86 5.1,-1.75 12.2,-0.8 16.26,-2.12 3.82,-1.23 5.37,-6.1 10.89,-7.15 8.14,3.77 8.51,10.06 17.96,3.81 3.72,-2.45 4.05,-4.64 8.44,-4.35 5.62,0.36 7.08,0.72 12.76,-0.5 6.3,-1.36 17.55,-2.39 22.58,-5.01 18.25,-9.48 18.77,-7.38 34.29,-7.82 8.82,-0.26 24.41,-3.07 31.41,-9.98 5.89,-5.8 8.81,-8.24 10.66,-17.02 1.79,-8.52 -0.69,-14.91 6.9,-21.26 9.88,1.7 15.86,23.18 17.82,31.86l4.96 45.48c-0.06,8.94 -0.63,14.2 -0.11,23.69 0.37,6.7 1.25,17.58 -1.4,23.58 -2.29,5.2 -4.45,13.35 -11.24,13.92 -4.01,0.34 -7.78,-0.4 -12,0.34 -3.18,0.56 -6.95,1.99 -10.26,2.78 2.92,13.19 4.11,14.6 18.46,13.16 9.25,-0.93 20.05,0.27 28.55,4.23 10.84,5.06 6.43,13.49 12.89,20.01 5.34,5.4 4.21,0.69 7.31,9.6 0.47,1.36 2.06,8.41 2.29,8.72 5.3,7.22 3.02,18.21 -2.79,24.74 -10.33,11.62 -29.97,4.24 -52.21,13.84 -4.83,2.06 -8.05,1.09 -13.19,3.67 -5.01,2.51 -9.1,2.26 -14.63,2.12 3.15,-0.54 2.72,-0.32 4.33,0.97 -6.25,1.29 -42.14,4.41 -43.8,5.23 -6.99,3.42 -1.23,-1.16 -14.84,6.22 -9.04,4.91 -26.63,5.4 -31.11,6.52 -16.04,3.98 -18.48,1.38 -32.29,5.36 -7.08,2.03 -6.49,7.29 -17.58,7.09 -7.74,-0.14 -14.12,0.06 -21.54,1.99 -2.72,3.97 -1.45,11.82 -8.54,12.26 34.34,1.93 18.11,-9.1 53.69,-7.39 23.92,1.15 38.7,-7.13 60.62,-11.5 10.66,-2.13 21.09,-2.51 31.69,-4.27 10.4,-1.73 20.58,-4.13 31.03,-5.74 20.93,-3.25 39.79,-10.31 60.31,-12.48 20.08,-2.11 36.31,-7.59 52.26,-20.25 15.06,-11.98 28.66,-18.54 45.75,-27.1 20.43,-10.27 41.08,-4.83 62.9,-3.32 19.61,1.35 40.64,7.1 60.06,11.45 17.65,3.95 34.55,11.85 47.73,24.38 18.69,17.78 17.15,24.7 25.14,47.66 12.63,36.33 22.29,78.18 29.48,116.03 3.77,19.75 10.08,40.42 12.85,59.96 1.49,10.54 1.99,21.27 4.38,31.66 2.29,9.94 6.22,18.66 7.86,28.91 1.75,10.8 2.32,19.9 5.3,30.7 2.97,10.69 5.82,18.42 7,29.74 1.25,11.69 1.91,19.6 4.94,31.13 2.35,8.88 5.11,21.95 5.97,30.96l0.52 -4.83c1.35,10.28 4.24,35.75 7.78,44.56 4.96,12.3 5.72,31.56 -2.61,42.56 -8.47,11.2 -18.29,15.77 -31.03,21.03 -5.79,2.41 -15.74,2.21 -18.78,7.18 -3.05,5.01 -4.33,14.77 -2.29,20.17 3.51,9.31 6.78,8.64 17.56,7.15 7.02,-0.96 44.23,-15.9 52.1,-22.68 8.09,-7 16.36,-22.43 19.52,-32.65 3.45,-11.12 5.94,-36.05 2.71,-46.97 -0.99,2.06 -0.42,0.76 -2.62,1.1 -0.33,-1.89 -0.49,-3.28 -0.9,-4.88 -0.85,-3.28 -0.27,-2.61 -2.54,-3.35 0.43,3.6 1.72,6.04 2.08,9.02 1.62,13.42 4.08,7.59 0.5,29.58 -1.72,10.5 -5.37,27.03 -13.26,34.42 -3.94,3.68 -6.46,11.2 -10.37,13.09 -4.34,2.09 -11.56,7.19 -16.13,8.24 -8.04,1.83 -37.1,7.39 -43.35,4.04 -2.13,-3.95 3.19,-10.43 6.8,-12.33 18.64,-9.81 30.2,-6.06 43.05,-23.81 8.21,-11.36 7.81,-22.46 7.75,-35.97 -0.07,-17.96 -1.55,-21.53 -7.66,-37.66 -7.59,-20.03 -4.28,-51.02 -6.9,-60.48 -1.62,-5.89 -5.99,-8.06 -8.05,-13.16 -5.01,-12.35 2.86,-22.76 -6.32,-37.72 -8.84,-14.4 -4.94,-21.87 -7.81,-37.04 -2.33,-12.35 -5.21,-24.68 -8.52,-36.8 -3.61,-13.19 -4.28,-25.43 -6.22,-38.78 -1.89,-12.91 -7.65,-22.13 -9.12,-36.31 -1.19,-11.35 0.29,-28.13 -6.26,-37.13 -6.79,-9.35 -4.77,-23.39 -7.48,-35.07 -2.82,-12.15 -5.4,-7.31 -10.39,-33.1 -2.62,-13.52 -9.02,-16.65 -11.29,-33.92 -2.03,-15.47 -10.67,-16.69 -16.53,-29.01 2.06,-1.36 2.88,-2.62 6.8,-2.81 1.2,2.75 2.68,7.06 4.5,9.31 2.99,3.68 6.26,2.74 9.14,5.41 2.39,2.22 2.65,6.29 5.21,9.33 2.54,3.02 5.03,3.78 6.59,7.92 2.42,6.47 1.63,15.99 5.77,22.63 7.58,12.2 5.63,6.99 7.41,21.84 0.74,6.26 2.48,18.49 3.94,24.34 2.28,9.11 6.16,9.12 7.35,21.72 0.79,8.38 2.35,16.7 2.99,25.05 0.86,11.35 -1.12,13.05 6.19,21.82 4.37,5.26 5.83,42.11 6.43,50.85 0.57,8.32 -2.56,18.77 4.9,23.56 15.16,9.77 3.14,23.82 7.26,48.55 1.15,6.93 7.94,8.08 10.24,17.36 2.89,11.62 4.33,39.49 9.34,47.1 9.78,-0.93 7.63,-13.64 6.66,-20.78 -1.2,-8.95 -0.01,-19.68 -0.03,-28.81 -0.01,-4.73 -4.05,-17.62 -6.63,-21.31 -6.56,-9.45 -0.17,-18.08 -3.39,-24.95 -2.35,-5.01 -2.38,-1.79 -2.23,-9.54 0.07,-4.1 -1.73,-23.26 -3.25,-26.24 -2.29,-4.48 -4.13,-2.39 -5.69,-8.67 -2.84,-11.3 -2.45,-14.75 -2.56,-26.39 -0.06,-4.9 0.03,-9.75 0,-14.64 -0.03,-5.19 1.2,-7.96 1.45,-12.53l0.47 4.2c1.13,-3.92 -0.21,-4.05 2.64,-5.67 3.21,3.41 4.4,33.49 5.54,40.7 2.33,14.64 8.69,6.69 8.88,39.26 0.21,37.92 7.85,26.34 10.51,37.89 1.29,5.57 1.52,14.94 2.28,21.21 1.35,11.03 1.92,9.24 7.15,17.92l13.87 -0.24c1.72,2.16 -4.13,2.84 -6.03,5.01 -2.68,3.07 -4.34,19.37 -2.33,23.29 10.14,19.68 19.07,-6.27 20.05,-7.39 3.6,-4 5.73,-13.25 8.37,-19.19 4.38,-9.87 0.93,-2.26 6.93,-7.36 3.21,-2.74 2.71,-9.08 2.38,-12.95 -0.36,-4.25 -0.46,-9.73 -1.03,-13.64 -0.93,-6.42 1.09,-6.82 0.92,-11.67 1.72,1.95 1.2,-0.76 7.88,-0.67 0.07,3.27 1.85,11.29 2.26,15.59 0.54,5.46 0.1,12.52 0.07,18.16 -0.03,6.39 -2.03,10.1 0.39,16.82 3.37,9.38 5.03,-0.3 4.33,12.99 -1.76,33.32 -11.4,25.48 -17.79,37.82 -2.78,5.36 -6.36,6.8 -8.41,11.37 4.9,-1.05 19.87,-17.29 21.53,-19.95 1.55,-2.52 1.62,-4.24 3.54,-6.43 5.72,-6.47 6.36,-12.99 9.55,-21.1 3.07,-7.78 6.96,-7.19 8.77,-11.2 6.12,-13.57 7.69,-39.69 -0.49,-52 -4.66,4.57 -4.28,17.13 -5.03,24.57 -1.19,11.95 -0.1,13.16 -7.15,21.56l-4.93 -8.59c-1.4,-2.72 -0.53,1.5 -1,-1.26l-0.16 -42.17c-3.85,-2.84 -8.95,-4.33 -11.09,-8.18 -3.25,-5.9 -3.01,-9.28 -4.73,-15.27 -1.65,-5.74 -3.04,-8.67 -5.13,-14.01 -1.96,-5.06 -2.69,-10.26 -4.2,-15.67 -1.17,-4.17 -2.05,-11.09 -4.51,-14.65 -3.91,-5.63 -5.89,-2.48 -7.1,-12.79 -0.52,-4.24 -0.62,-14.67 -1.59,-17.62 -3.92,-11.88 -5.23,-5.72 -9.17,-10.6 0,-5.29 0.43,-21.77 1.27,-26.26 2.92,-15.47 8.45,-4.57 17.2,-8.04 5.37,-6.73 6.82,-33.03 9.22,-42.9 1.68,-6.86 4.17,-13.42 5.73,-20.33 1.78,-7.92 1.88,-15.61 3.39,-23.38 3.42,-17.55 8.57,-22.36 9.3,-43.16 0.62,-17.32 -1.39,-27.75 -10.53,-42.5 -19.78,-31.9 -43.73,-29.14 -65.52,-39.46 -17.06,-8.09 -15.89,-21.79 -26.14,-26.21 -15.97,-6.88 -25.8,9.96 -40.7,8.54 -9.98,-0.95 -20.11,-20.47 -23.59,-29.16 -4.67,-11.69 -3.9,-30.21 -8.78,-44.05 -3.15,-8.95 -17.85,-25.23 -28.06,-22.1 -12.66,3.87 4.04,24.77 -21.84,28.1 -7.36,0.95 -11.16,3.25 -17.32,4.35 -6.1,1.1 -11.89,-1.09 -17.79,-0.03 -15.57,2.82 0.62,25.41 -1.88,36.56 -1.91,8.55 -7.36,9.63 -14.83,10.7 -8.41,1.22 -9.15,3.48 -16.03,6.16 -7.78,3.02 -14.25,0.69 -22.03,0.32 -7.59,-0.34 -11.53,1.95 -18.21,4.38 -1.29,-2.15 -1.7,-2.86 -2.64,-5.26 -1.59,-4.05 0.11,-0.99 -3.17,-4.34 0,-6.62 -0.32,-13.19 0.56,-19.5 1.33,-9.44 2.33,-7.91 5.49,-14.51 11.63,4.47 11.92,7.75 12.02,15.53 1.62,0.01 -1.7,-0.54 1.62,-0.26 16.42,1.39 8.02,6.29 24.05,-12.98l11.56 3.18c1.25,-2.12 4.94,-7.82 4.97,-9.73 0.09,-5.3 -2.92,-8.11 -3.19,-11.52 3.42,-3.44 14.04,-5.06 18.95,-6.92 2.65,-9.7 7.63,-7.55 13.95,-12.94 6.69,-5.7 4.54,-10.34 9,-16.97 -15.5,-4.14 -21.53,-5.9 -38.09,-3.68 -11.63,1.55 -30.28,-1.03 -39.82,4.14l1.52 12.3c6.4,1.36 4.03,2.56 9.18,4.63 3.01,1.2 7.66,2.97 10.21,4.33 2.64,1.43 11.12,12.71 12.42,15.6 -8.72,14.67 -15.03,4.86 -18.15,4.25 -6.39,-0.09 -13.09,0.32 -19.31,0.11 -5.06,-0.17 -10.01,-2.91 -15.08,-4.28 -6.07,-1.65 -8.71,-1.17 -13.74,-5.5 -8.59,-7.36 -3.15,-5.76 -7.53,-11.67l-0.67 4.56c-1.79,-16.66 -17.73,-8.01 -22.68,-3.37 -5.73,5.37 -1.17,21.19 -10.99,28.18 -2.89,-0.07 -11.67,-3.24 -13.97,-4.81 -3.62,-2.48 -6.3,-9.48 -10.04,-12.92 -7.95,-7.35 -22.83,-31.49 -23.72,-32.27 -2.79,-2.49 -3.19,-1.02 -5.97,-5.39 -4.03,-6.32 -0.36,-7.08 -8.55,-14.48 -4.56,-4.14 -4.86,-7.05 -10.47,-11.77 -2.03,-1.72 -11.43,-9.77 -11.98,-10.92 3.5,-0.64 6.5,1.4 9.02,4.25 -0.14,-0.36 -16.44,-11.79 -18.09,-12.59 -13.01,-6.39 -19.77,-1.6 -28.49,-4.4 -4.34,-1.38 -5.27,-5.19 -8.64,-7.68 -3.88,-2.86 -7.48,-1.36 -11.17,-5.89 -4.45,-5.47 -2.49,-5.53 -10.83,-5.31 -5.37,0.13 -11.6,-0.5 -16.72,0.07 -5.99,0.66 -6.26,3.85 -11.57,4.7 -5.11,0.8 -11.1,-1.75 -15.37,1.03 -9.75,6.36 -19.97,5.83 -24.14,8.81 -4.27,3.05 -1.83,4.76 -9.08,7.06 -4.1,1.3 -8.65,3.39 -12.51,4.4 -3.44,0.9 -9.78,0.87 -12.33,2.78 -2.01,1.49 -5.5,6.83 -5.37,9.4 4.17,4.27 13.11,0.89 18.84,0.72 21,-0.66 7.69,-0.46 20.67,-2.54 3.62,-0.57 19.19,-0.42 23.11,0.03 7.94,0.89 8.9,9.1 7.99,15.8 -0.86,6.35 -4.04,11.04 -8.04,15.41 -4.41,4.83 -12.03,3.54 -18.45,3.48 -6.73,-0.07 -12.28,2.88 -19.17,3.65 -4.68,0.52 -4.56,1.15 -8.91,2.52 -7.33,2.33 -3.97,0.09 -6.26,4.2l-18.08 0.33c-4.37,-11.92 -10.43,-14.17 -5.34,-29.58 3.95,-11.96 6.36,-14.71 -5.4,-22.5 -9.5,-6.29 -19.51,-5.96 -21.83,6.98 -0.42,2.31 3.64,10.06 4.76,13.44 1.73,5.19 6.2,6.43 8.68,10.56 1.55,8.67 -7.38,17.93 -7.66,24.51 -0.42,9.02 3.97,20.9 -9.55,23.39 -3.98,-2.46 -1.13,-1.99 -6.39,-4.63 -2.94,-1.48 -4.76,-2.39 -7.86,-3.71 -2.19,-5.01 -2.84,-25.5 -3.67,-32.76 -0.54,-4.76 0.76,-12.05 1.35,-16.93 0.36,-3.11 -0.14,-5.47 1.19,-8.24 2.26,-4.73 2.48,-1.03 4.78,-4.6 -4.8,-7.46 -16.93,-2.15 -21.03,6.04 -4.05,8.14 -9.12,13.55 -14.37,20.8 -5.39,7.43 -11.32,12.46 -16.26,18.99 -2.81,3.7 -3.92,7.59 -6,11.62 -2.02,3.9 -4.73,6.96 -7.02,10.6 -4.9,7.78 -4.47,16.76 -9.65,25.63 -5.13,8.77 -4.87,15.61 -10.9,24.34 -5.23,7.58 -8.48,13.42 -15.21,20.01 -6.57,6.46 -15.77,7.46 -24.22,11.04 -9.93,4.21 -17.03,5.37 -27.59,6.9 -10.64,1.55 -17.92,5.93 -27.62,7.68 -11.42,2.05 -17.66,3.72 -28.62,6.49 -9.25,2.33 -18.95,5.14 -28.2,7.05 -9.53,1.98 -52.79,10.1 -58.4,12.15 -4.21,1.53 -7.61,4.04 -12,5.46 -12.75,4.11 -28.91,3.97 -44.32,9.43zm-238.65 224.08c0.47,-7.71 20.11,-42.84 26.97,-13.91 2.76,11.69 10.28,46.21 10.6,56.8 0.82,28.28 16.63,80.75 23.56,109.78 7.82,32.75 11.09,75.65 18.79,107.46 5.96,24.58 21.39,87.72 21.95,110.36 1.27,51.87 -54.06,-18.46 -58.67,-31.51 -9.41,-26.59 -17.16,-90.49 -13.39,-117.9 3.97,-28.98 11.75,-97.41 4.23,-123.76 -4.77,-16.72 -34.77,-85.27 -34.04,-97.31zm-18.36 145.57l0.1 0c4.86,0.1 -4.48,-92.44 15.61,-71.74 15.41,15.89 24.62,53.82 24.81,75.6l-4.07 0.76 0.66 197.62 -2.68 0.26 -8.68 -25.17c-12.22,8.58 9.35,45.85 15.54,55.55 14.61,22.85 21.04,22.69 41.17,36.94 14.42,10.21 41.88,15.6 52.66,27.35 9.02,9.83 18.84,38.66 20.56,52.83 5,41.34 32.77,78.78 76.97,78.27 25.01,-0.3 48.07,1.56 73.13,-2.03 7.78,-1.12 59.65,-14.45 60.16,-17.39 -7.38,-3.68 -40.28,-0.56 -48.12,3.39 -17.76,8.95 -32.75,7.96 -52.84,7.98 -49.76,0.04 -52.8,-3.04 -81.56,-39.09 -21.31,-26.72 -16.92,-56.25 -30.17,-83.84 -6.6,-13.75 -0.74,-33.16 -10.01,-50.45 -10.46,-19.5 -1.3,-33.2 -8.9,-50.35 -7.25,-16.4 -17.83,-78.14 -20.67,-98.55 -2.42,-17.49 -10.36,-29.08 -12.42,-47.93 -2.52,-23.09 -5.11,-29.47 -9.87,-50.54 -3.25,-14.37 -10.77,-34.67 -12.58,-43.89 -1.59,-8.12 -1.45,-17.82 -2.36,-26.06 -1.13,-10.03 -6.25,-13.87 -8.16,-22.32 -3.48,-15.44 -4.54,-40.37 -3.78,-56.28 0.73,-15.47 4.1,-10.64 9.28,-20.87 5.49,-10.81 -5.39,-12.68 -6.93,-14.93 -0.39,-27.67 -0.16,-26.67 6.29,-51.51 2.31,-8.91 5.51,-18.12 3.38,-27.39 -2.56,-11.06 -7.85,4.84 -12.13,8.27 -12.72,10.17 -39.97,-18.94 -43.63,8.08 -1.27,9.38 -15.08,36.61 -22.63,42.6 -24.82,19.68 -26.4,73.93 -23.33,103.65 0.56,5.49 11.98,44.71 14.17,46.98 14.07,14.57 9.44,33.03 11.06,54.19zm1028.97 -167.83c-1.13,3.92 -1.48,14.81 0.97,17.19l16.72 -2.55 -2.41 14.48 -37.59 0.03 1.8 -2.84 -38.66 -23.68 -1.91 3.12c-0.11,0.7 5.54,30.58 6.02,36.51 1.02,13.16 16.97,15.81 25.96,19.9 9,4.08 48.8,38.82 36.67,49.75l-18.54 4.1c1.42,2.54 1.12,9 1.29,12.15 10.37,3.54 23.62,3.12 25.11,10.77 0.92,4.68 17.99,14.95 20.9,19.15 6.89,9.9 10.33,11.79 18.44,19.67 2.78,2.69 -0.54,6.99 4.66,13.29 3.45,4.17 6.68,5.3 9.98,10.67 20.9,33.83 42.26,76.59 47.8,117.06l1.09 -6.12c0.85,42.13 5.39,68.69 -1.68,112.46 -2.19,13.59 -26.93,85.83 -16.95,94.56 1.92,-0.37 15.84,-39.91 16.07,-45.05 1.36,-29.54 11.67,-24.18 12.76,-48.13 1.86,-41.01 4.63,-77.19 1.32,-118.42 -1.6,-19.9 -11.4,-90.12 -18.42,-106.36 -7.26,-16.77 -7.42,-25.04 -16.46,-43.93 -8.85,-18.49 -0.62,-37.96 -4.44,-56.74 -12.61,-2.28 -15.5,8.19 -21.89,-7.78 -1.91,-4.73 -7.09,-23.42 -11.76,-24.29l-0.57 3.04c-0.52,-3.58 -1.95,-19.54 -3.7,-21.39l-15.84 2.69 -6.6 -9.12 3.38 1.49 11.7 -36.96c-4.91,-3.28 -4.83,-2.21 -14.73,-2.76 0.2,-12.91 3.41,-23.19 -8.04,-11.83 -15.1,15.01 -7.21,0.33 -22.48,5.87zm-189.48 748.63l37.3 -0.77 -4.14 -72.71c3.44,-1.89 28.15,-13.79 28.99,-13.88 17.85,-1.92 16.49,0.39 33.39,-7.94 15.24,-7.52 47.84,-16.53 57.6,-27.52 7.49,-8.47 5.79,-4 14.94,-6.79 5.99,-1.82 5.01,-6.29 10.17,-10.41 5.7,-4.56 19.9,-14.21 23.78,-18.21 17.81,-18.36 7.05,-21.92 1.68,-15.34 -12.68,15.54 -9.2,3.85 -20.9,21.39l-1.91 -4.43 -146.65 63.24 -4.23 -4.98c-34.45,0.83 -76.48,-2.79 -107.69,-15.46 -8.24,-3.34 -39.06,-17.49 -45.64,-21.66 -6.2,-3.94 -14.55,-13.92 -18.65,-8.95 -7.85,9.5 -9.27,4.03 -15.69,-3.47 -4.43,-5.16 -13.02,-10.03 -12.26,-17.5 0.63,-6.37 -10.36,-9.15 -16.8,-14.8 -6.26,-5.47 -8.51,-12.19 -14.44,-19.24 -6.78,-8.05 -15.27,-11.16 -16.5,-16.27 -5.59,-23.06 -29.52,-61.98 -38.91,-88.28l-13.92 1.09 -7.38 -120.61c-10.2,0.63 -9.37,61.82 -9,71.25 0.5,12.95 1.48,24.48 2.59,37.32 2.28,26.04 3.61,13.61 10.16,29.72 6.8,16.76 -4.51,6.47 10.89,28.98 5.33,7.79 1.07,15.8 10.59,29.41 12.91,18.46 18.13,26.31 32.95,44.22 23.03,27.86 51.58,53.56 82.82,72.11 17.89,10.61 118.11,29.22 121.47,37.52l-4.08 1.26 19.47 71.72zm431.53 -471.46c-3.32,-7.18 -3.08,-22.92 -1.16,-30.54 1.59,-6.27 9.6,-19.95 15.9,-18.94l-0.4 2.05 7.88 -8.91c2.05,-4.57 5.63,-6.02 8.41,-11.37 6.39,-12.33 16.03,-4.5 17.79,-37.82 0.7,-13.29 -0.96,-3.61 -4.33,-12.99 -2.42,-6.72 -0.42,-10.43 -0.39,-16.82 0.03,-5.64 0.47,-12.71 -0.07,-18.16 -0.42,-4.3 -2.19,-12.32 -2.26,-15.59 -6.68,-0.09 -6.16,2.62 -7.88,0.67 0.17,4.86 -1.85,5.26 -0.92,11.67 0.57,3.91 0.67,9.38 1.03,13.64 0.33,3.87 0.83,10.21 -2.38,12.95 -6,5.1 -2.55,-2.51 -6.93,7.36 -2.64,5.94 -4.77,15.2 -8.37,19.19 -0.99,1.12 -9.91,27.07 -20.05,7.39 -2.01,-3.92 -0.34,-20.23 2.33,-23.29 1.91,-2.18 7.75,-2.85 6.03,-5.01l-13.87 0.24c-5.23,-8.68 -5.8,-6.89 -7.15,-17.92 -0.76,-6.27 -0.99,-15.64 -2.28,-21.21 -2.66,-11.55 -10.3,0.03 -10.51,-37.89 -0.19,-32.57 -6.55,-24.62 -8.88,-39.26 -1.15,-7.21 -2.33,-37.29 -5.54,-40.7 -2.85,1.62 -1.5,1.75 -2.64,5.67l-0.47 -4.2c-0.24,4.57 -1.48,7.35 -1.45,12.53 0.03,4.88 -0.06,9.74 0,14.64 0.11,11.63 -0.27,15.08 2.56,26.39 1.56,6.27 3.39,4.18 5.69,8.67 1.52,2.98 3.32,22.15 3.25,26.24 -0.14,7.75 -0.11,4.53 2.23,9.54 3.22,6.88 -3.17,15.5 3.39,24.95 2.58,3.7 6.62,16.59 6.63,21.31 0.01,9.12 -1.17,19.85 0.03,28.81 0.97,7.15 3.12,19.85 -6.66,20.78 -5.01,-7.61 -6.45,-35.48 -9.34,-47.1 -2.31,-9.28 -9.1,-10.43 -10.24,-17.36 -4.13,-24.72 7.89,-38.78 -7.26,-48.55 -7.46,-4.8 -4.33,-15.24 -4.9,-23.56 -0.6,-8.74 -2.06,-45.59 -6.43,-50.85 -7.31,-8.77 -5.33,-10.47 -6.19,-21.82 -0.64,-8.35 -2.21,-16.67 -2.99,-25.05 -1.19,-12.59 -5.07,-12.61 -7.35,-21.72 -1.46,-5.84 -3.19,-18.08 -3.94,-24.34 -1.78,-14.85 0.17,-9.64 -7.41,-21.84 -4.14,-6.65 -3.35,-16.16 -5.77,-22.63 -1.56,-4.14 -4.05,-4.9 -6.59,-7.92 -2.56,-3.04 -2.82,-7.1 -5.21,-9.33 -2.88,-2.68 -6.15,-1.73 -9.14,-5.41 -1.82,-2.25 -3.29,-6.56 -4.5,-9.31 -3.92,0.19 -4.74,1.45 -6.8,2.81 5.86,12.32 14.5,13.54 16.53,29.01 2.26,17.28 8.67,20.4 11.29,33.92 4.98,25.8 7.56,20.96 10.39,33.1 2.71,11.67 0.69,25.71 7.48,35.07 6.55,9 5.07,25.78 6.26,37.13 1.48,14.18 7.23,23.41 9.12,36.31 1.93,13.35 2.61,25.58 6.22,38.78 3.31,12.12 6.19,24.45 8.52,36.8 2.86,15.17 -1.03,22.65 7.81,37.04 9.18,14.95 1.3,25.37 6.32,37.72 2.06,5.1 6.43,7.28 8.05,13.16 2.62,9.45 -0.69,40.45 6.9,60.48 6.12,16.13 7.59,19.7 7.66,37.66 0.06,13.51 0.46,24.61 -7.75,35.97 -12.85,17.75 -24.41,14 -43.05,23.81 -3.61,1.91 -8.94,8.38 -6.8,12.33 6.25,3.35 35.31,-2.21 43.35,-4.04 4.57,-1.05 11.79,-6.15 16.13,-8.24 3.91,-1.89 6.43,-9.41 10.37,-13.09 7.89,-7.39 11.55,-23.92 13.26,-34.42 3.58,-21.99 1.12,-16.16 -0.5,-29.58 -0.36,-2.98 -1.65,-5.43 -2.08,-9.02zm-420.61 -286.06c5.06,3.24 5.37,4.61 5.62,10.53 0.33,8.29 -0.52,5.87 -4.51,11.6 -5.04,-2.71 -4.44,-3.82 -4.87,-10.11 -0.64,-9.6 -3.45,-6.17 3.77,-12.02zm-97.45 9.34c-3.64,-3.45 -2.82,-6.35 -2.78,-11.13 0.06,-6.27 -0.8,-6.23 2.82,-11.04 2.89,0.52 7.28,3.02 9.58,4.96 -4.63,11.42 -3.62,15 -9.63,17.22zm15.8 -18.42c1.65,-1.92 7.41,-8.35 9.21,-9.1l14 7.86 9.5 -9.91c18.77,-0.97 26.36,18.75 -5.27,15.2 -12.48,-1.39 -25.64,22.1 -27.43,-4.05zm-209.94 231.33c7.35,-6.9 32.02,-36.1 37.7,-44.22 6.92,-9.84 34.84,-28.08 45.44,-35.77 43.27,-31.37 68.97,-31.38 112.55,-50.61 33.22,-14.64 108.57,-12.32 145.39,-9.78 19.83,1.36 45.27,9 64.1,15.71 12.76,4.56 49.99,23.31 60.65,15.99 3.67,-33.5 -69.17,-49.48 -74.11,-60.78 1.63,-2.16 27.25,-13.69 11.57,-28.23 -4.74,-4.4 -7.23,2.03 -14.21,0.97 -7.09,-1.06 -6.16,-9.96 -12.49,-12.61l-6.49 0.57 3.31 37.03 1.7 -0.16c-0.09,-0.03 -20.74,4.78 -15.93,-12.65 6.25,-22.56 -0.29,-27.75 -0.17,-30.78l-16.01 0.77 -1.2 35.2c-12.22,-0.42 2.36,-31.07 -9.78,-38.36 -19.42,-11.67 -14.42,-12.48 -28.2,1.46 -15.21,-16.26 -9.04,-15.86 -24.92,-2.02l-8.24 -24.19c97.68,-1.91 72.81,0.74 150.65,29.67 17.07,6.35 27.03,22.58 38.65,8.54l-8.71 -15.14 1.86 15.18c-5.6,2.05 -45.98,-21.29 -56.9,-24.44 -9.88,-2.86 -20.97,-8.55 -31.07,-12.25 -12.69,-4.64 -22.63,-3.88 -34.98,-7.62 -13.19,-4 -59.8,-5.66 -73.5,-3.22 -13.49,2.39 -23.21,3.31 -36.1,2.65 -6.03,-0.3 -7.31,5.62 -11.86,8.32 -6.35,3.8 -7.38,-2.22 -16.85,-0.13l-3.25 0.06 0.5 32.96 5.64 1.27 10.79 -11.1 15.86 9.8 0.56 -8.41 44.81 -8.65 4.56 -3.07 4.98 47.31 1.42 -2.32 73.81 7.81c-1.72,-10.49 -2.71,-25.23 -3.72,-36.23 22.02,-2.05 2.56,26.94 8.55,37.24 9.86,16.93 26.07,4.76 37.6,14.85 10.87,9.53 63.6,20.03 60.75,40.62 -5.63,7.71 -51.32,-10.94 -61.08,-14.41 -18.36,-6.52 -45.18,-13.29 -64.5,-15.5 -39.97,-4.57 -106.66,1.2 -144.35,15.31 -36.74,13.77 -75.75,25.38 -107,51.02 -32.87,26.94 -56.9,43.17 -77.77,82.31zm-36.38 -459.03c-3.44,-1.36 -2.66,-2.71 -3.5,-6.07 -0.83,-3.37 -1.99,-3.24 -2.12,-6.42 -0.13,-2.97 3.9,-8.74 5.57,-11.6l1.43 2.65c0.26,0.73 0.62,2.38 0.77,3.15 0.95,4.73 0.56,14.77 -2.16,18.29zm-265.42 43.86l-1.23 0.8c-2.82,3.24 -2.42,1.39 -3.37,1.95 -3.21,1.89 -0.73,1.59 -7.28,3.45 -13.81,3.94 -22.75,1.55 -27.53,4.4 -1.27,0.74 -8.48,4.77 -9.35,4.34 1.72,5.69 5,12.71 12.42,11.37 2.84,-0.5 5.8,-2.76 8.78,-3.75 3.08,-1.02 7.02,-1.48 10.27,-1.93 7.69,-1.09 13.38,-1.12 21.1,-3.37 5.89,-1.72 13.21,-4.47 18.97,-5.63l41.51 -8.28c9.1,-1.2 11.22,-3.35 18.95,-5.47 6.99,-1.91 31.44,-3.65 40.58,-8.98 11.13,-6.5 53.83,-6.85 66.57,-7.43 7.84,-0.37 11.04,0.64 13.55,-6.72 2.05,-5.99 5.06,-12.08 11.66,-13.91 9.04,-2.52 30.53,-0.73 36.03,-9.5 4.31,1.48 1.59,0.1 4.77,3.7l9.01 8.35c7.63,-2.52 6.03,-26.92 7.53,-33.96 1.3,-6.17 5.03,-6.19 6.86,-14.63 1.32,-6.03 5.3,-10.1 11.92,-8.44 10.37,2.61 15.4,16.33 17.48,25.25 1.36,5.86 1.55,11.98 3.81,17.62 2.12,5.26 5.03,7.61 6.93,13.85 1.92,6.26 2.61,11.37 4.2,17.3 1.36,5.11 5.01,6.26 7.16,11.79 5.56,14.38 6.78,70.4 2.02,78.28 -2.58,4.28 -21.4,19.31 -21.93,17.49 6.86,5.83 3.88,3.88 12.81,7.26 31.64,11.99 20.54,-19.19 20.11,-28.91 -0.3,-7 1.65,-12.23 1.59,-19.18 -0.07,-7.51 -0.33,-10.53 3.05,-17.4 3.18,-6.45 -0.07,-8.84 3.51,-16.43 1,-2.13 5.97,-10.5 7.98,-10.66 -6.07,-4.51 -9.48,-4.1 -13.75,-6.93 -2.82,-4.5 0,-4.87 -4.03,-9.84 -2.94,-3.62 -1.53,-4.67 -5.64,-7.99 -8.54,-6.95 -8.25,-23.99 -10.57,-31.31 -0.9,-2.81 -3.7,-3.57 -5.47,-8.24 -3.05,-8.02 -2.13,-15.86 -4.7,-22.9 -3.45,-9.48 -7.32,-5.2 -8.97,-18.89 -1.69,-14.12 -6.29,-34.89 6.33,-45.67 7.45,-6.36 4.37,-14.8 13.44,-14.27 3.94,3.31 3.28,4.78 5.79,9.17 1.73,3.04 6.29,8.44 5.97,8.39l-0.63 -0.9c6.47,-3.7 4.37,-18.99 2.82,-25.45 -2.02,-8.42 2.52,-20.94 -0.97,-27.69 -3.44,-1 -11.17,12.2 -14.32,16 -3.91,4.71 -7.43,15.73 -22.89,28.63 -4.01,3.34 -3.97,6.02 -6.2,10.36 -4.48,8.75 -8.98,10.53 -12.1,21.43 -1.3,4.53 -2.16,9.33 -4.18,13.61 -2.06,4.38 -4.1,6.33 -5.2,11.4 -3.32,15.24 -0.96,11.53 -11.86,22.36 -6.93,6.89 -6.76,10.64 -16.43,17.43 -7.88,5.51 -15.93,7.19 -25.21,8.88 -9.78,1.79 -17.1,6.62 -26.61,7.92 -9.91,1.38 -18.49,3.78 -28.29,5.4 -10.92,1.79 -16.42,5.74 -25.97,7.65 -9.38,1.88 -18.82,3.6 -28.19,5.53 -9.45,1.95 -17.55,5.54 -26.72,7.72 -8.55,2.02 -23.15,1.86 -29.44,4.21 -4.03,1.49 -6.42,4.41 -11.06,5.83 -4.34,1.32 -41.47,5.49 -45.37,5.53zm561.18 453.96c-34.89,24.41 -72.67,22.9 -80.99,71.46 -6.93,40.44 3.7,86.03 37.36,112.43 33.42,26.21 74.9,28.36 108.29,0.69 12.22,-10.13 26.46,-30.71 30.84,-45.9 13.89,-48.02 19.54,-9.07 15.06,5.9 -25.13,83.93 -130.31,102.51 -188.88,30.25 -60.85,-75.05 14.71,-194.01 78.33,-174.84zm-17.5 -13.69c-44.29,6.27 -72.42,46.17 -84.16,85.85 -14.41,48.69 -1.1,90.07 33.5,126.23 78.53,82.04 213.02,-16.65 188.25,-92.24 -13.04,-39.79 -27.45,18.92 -30.35,26.64 -7.98,21.24 -16.77,37.13 -36.54,49 -40.71,24.44 -94.37,11.4 -116.17,-30.77 -21.62,-41.8 -22.85,-95.6 24.9,-118.68 16.59,-8.01 54.25,-15.53 60.19,-19.98 28.88,-21.6 -22.55,-28.48 -39.62,-26.06zm487.29 -297.45c1.29,-7.36 2.64,-14.74 3.85,-22.12 1.66,-10.06 -0.14,-10.54 6.88,-18.34 3.92,-4.34 2.89,-15.31 3.65,-21.7 0.95,-7.78 1.89,-15.18 2.26,-23.02 0.64,-13.71 12.39,-30.54 7.08,-42.13 -1.36,-2.98 -3.72,-4.57 -5.19,-7.79 -1.36,-3.02 -1.82,-5.63 -3.48,-8.77 -4.5,-8.55 -6.88,-8.24 -11.04,-14.21 -5.36,-7.68 -5.3,-7.81 -15.11,-10.14 -13.24,-3.15 -7.26,-6.07 -14.28,-9.6 -2.61,-1.3 -15.34,-3.11 -20.47,-4.76 -30.4,-9.77 -20.07,-16.22 -26.34,-22.8 -2.48,-2.61 -8.94,-5.13 -12.58,-4.86 -4.47,0.33 -10.71,4.76 -15.76,6.8 -9.57,3.9 -11.37,3.27 -21.67,2.45l0.01 13.36c5.6,7.56 7.61,6.95 8.97,17.3 4.28,32.57 3.17,17.45 8.51,28.16 2.81,5.63 3.22,25.77 7.38,31.13 5.62,-7.68 1.82,-37.4 11.5,-45.92 6.09,1.42 3.51,1.66 6.42,6.47 2.68,4.45 2.64,0.16 5.96,7 2.71,5.59 7.91,6.55 9.65,14.08 2.71,11.67 7.78,3.44 9.44,15.81 0.47,3.54 3.87,14.95 5.43,18.55 3.28,-2.62 1.27,-1.12 2.25,-1.55l2.51 -27.06 8.82 -2.81c0.79,-7.13 -3.19,-7.21 -5.86,-11.69 -1.63,-2.76 -0.66,-4.25 -0.93,-7.43 -0.43,-5.1 -0.99,-1.48 -2.25,-6.07 2.42,-3.04 6.57,-3.21 9.02,-5.4 3.41,-3.05 3.77,-4.14 9.04,-5.46 8.14,-2.05 11.42,3.61 18.28,6.6 -0.3,7.62 2.65,3.5 4.17,10.07 1.16,5.04 0.4,6.68 3.58,11.27 2.59,3.74 4.01,2.45 6.35,8.24 3.82,9.43 4.25,28.81 1.99,39.39 -2.08,9.73 -0.42,13.36 -8.64,19.38 -6.55,-3.51 -6.49,-7.38 -7.66,-8.28 -1.32,-1.02 0.34,2.49 -1.25,-1.23 -1.45,-3.42 -1.4,-7.89 -3.5,-10.18 -1.78,15.63 -0.11,10.76 -11.56,19.77 -11.62,-6.22 -2.99,-17 -13.21,-18.49 -5.23,4.11 -2.89,7.76 -1.79,13.41 1.69,8.72 0.1,7.99 9.55,7.76 1.83,3.35 3.24,13.59 4.86,18.75 1.25,3.97 7.26,9.67 8.21,13.82 0.49,2.18 0.59,20.76 3.87,33.76 4.47,0.07 9.67,0.16 13.08,-1.56zm-538.86 644.42c9,-1.86 29.32,2.31 30.98,6.1 -4.51,3.05 -23.69,5.51 -32.62,-0.7l1.63 -5.4zm-137.77 -193.84c0.42,-20.78 6.75,-81.23 18.91,-96.76 8.69,-11.1 36.6,-67.27 52.86,-60.25 3.55,4.18 -36.64,67 -41.63,76.09 -11.73,21.42 -18.05,80.39 -13.36,104.71 5.33,27.57 19.34,63.03 34.92,86.15 10.3,15.27 11.49,21.26 24.88,35.65 3.9,4.21 29.41,29.28 29.15,30.05l-14.02 0.96c-13.08,-17.12 -33.18,-22.26 -63.39,-70.18 -11.3,-17.93 -14.15,-26.27 -20.7,-46.65 -3.64,-11.36 -6.39,-57.4 -8.08,-59.83 -3.15,64.42 9.28,64.45 13.35,85.5 2.54,13.15 8.22,10.87 12.09,21.73 4.64,13.02 48.39,66.01 61.47,70.49 16.53,5.69 23.95,12.15 39.58,21.24 3.25,1.89 47.93,16.32 50.79,16.44 29.82,1.38 94.5,5.33 115.05,-16.9l-2.29 -7.66c-58.42,10.07 -116.66,9.28 -171.25,-15.99 -36.28,-16.8 -76.48,-80.3 -88.1,-117.49 -18.34,-58.67 -13.62,-109.18 17.68,-162.8 12.35,-21.13 25.63,-41.99 45.34,-57.11 10.46,-8.02 18.65,-14.27 29.48,-21.86 8.27,-5.8 33.76,-16.76 34.39,-17.3l-0.42 -9.34c-13.55,-10.37 -53.96,15.44 -64.47,24.45 -7.39,6.33 -16.19,11.29 -26.54,20.23 -13.49,11.66 -12.45,14.07 -22.36,23.61 -21.95,21.16 -57.71,114.98 -43.33,142.82zm226.84 -727.13c2.52,-2.22 3.51,-3.39 4.13,-6.98 0.83,-4.87 4.05,-12.39 7.56,-16.42 1.59,-1.83 4.78,-3.12 8.06,-4.56 10.63,-4.66 7.72,2.36 11.93,9.35 1.75,2.91 2.49,5.57 3.91,8.31 1.91,3.65 4.14,2.62 7.62,4.48 3.52,6.23 2.28,16.72 8.9,21.64 6.57,4.88 5.36,16.97 8.22,22.85 1.2,2.45 5.97,3.71 7.36,6.16 2.06,3.65 4.91,36.41 5.01,41.11l2.66 -10.61c2.89,2.84 0.73,4.61 0.77,8.41 -0.37,-1.72 3.95,-9.63 5.77,-11.62 3.02,-3.29 10.64,-3.28 15.48,-4.15 7.42,-1.36 27.78,-0.07 36.46,0.29l3.48 -4.43c-2.25,-6.57 -2.54,-16.53 -1.65,-24.81 0.86,-8.14 3.07,-16.77 3.42,-24.44 -8.81,-9.43 -12.28,-2.28 -18.66,-7.94 -2.55,-2.23 -5.96,-13.98 -7.92,-18.48 -28.65,-2.31 -6.15,41.47 -34.64,33.69 -8.72,-2.38 -12.45,-12.39 -17.53,-17.96 -3.84,-4.21 -5.64,-3.37 -8.25,-9.58 -2.56,-6.09 -3.92,-5.93 -7.55,-10.73 -2.89,-3.82 -3.64,-7.91 -6.29,-11.33 -3.04,-3.92 -7.62,-4.11 -9.61,-8.12 -2.44,-4.88 0.32,-8.41 -5.31,-12.06 -4.97,-3.22 -5.92,-1.42 -8.77,-7.31 -1.79,-3.71 -14.98,-14.64 -18.71,-15.81 -37.62,-11.92 -32.09,-0.62 -41.38,-12.66 -5.01,-6.52 -5.23,2.82 -5.17,6.1 0.26,14.63 3.61,18.38 -5.72,30.44 -2.22,2.86 -9.84,21.34 -9.9,24.55 -0.09,5.8 6.95,5.01 11.04,5.06 10.1,0.13 7.72,0.8 12.26,-6.25 2.72,-4.21 6.73,-3.81 7.92,-9.54 3.58,-17.28 -0.59,-18.91 8.82,-26.53 3.87,-3.12 11.12,-2.79 13.95,0.04 2.22,2.21 2.78,10.21 3.7,13.94 1.85,7.52 3.01,3.74 4.18,14.44l4.41 31.44zm-349.42 841.16l-5.36 -1.62c-27.47,-0.72 -38.98,2.62 -41.13,-29.15 -1.63,-24.05 -11.83,-38.17 -14.04,-59.4 -2.42,-23.46 -11.16,-30.44 -12.96,-59.83 -0.99,-16.09 -10.17,-39.29 -12.32,-61.41 -1.23,-12.82 -7.08,-16.63 -8.81,-27.14 -1.73,-10.61 -0.77,-22.88 -3.58,-33.28 -3.48,-12.95 -7.23,-11.37 -8.47,-28.35 -0.67,-9.41 -0.97,-22.49 -6.62,-30.17 -8.87,-12.06 -21.14,-102.42 -22.09,-120.9 -0.76,-1.76 -3.54,20.5 -3.67,20.99 -1.95,7.15 -7.71,9.37 -12.06,14.94 -17.88,22.92 -6.93,9.51 -27.42,25.34 -11.2,8.67 26.87,2.05 33.81,5.76 16.52,8.85 10.16,47.01 25.44,76.76 5.94,11.56 3.02,31.69 7.92,45.71 7.15,20.41 17.65,64.36 19.85,85.9 2.13,20.97 7.92,26.06 10.24,39.62 2.44,14.21 2.26,32.42 6.62,46.18 5.86,18.51 19.05,70.65 16.49,88.22 -4.44,30.34 -27.03,49.28 -24.05,51.71 4.5,3.7 16.2,-0.64 19.94,-4.68 3.51,-3.77 24.44,-29.02 24.52,-29.08 0.43,-0.3 34.68,-15.08 37.73,-16.13zm-222.5 -472.38c0.54,-4.8 1.12,-2.59 5,-3.98 2.54,-0.92 8.61,-6.66 11.39,-1.5 0.44,0.82 0.47,1.86 0.92,2.92 0.21,0.5 1.17,1.85 1.58,2.54 -5.64,0.76 -13.21,2.38 -18.88,0.03zm-159.13 -13.49c-8.02,13.88 34.61,28.49 47.6,29.29 24.67,1.52 48.66,0.16 72.31,1.78 34.31,2.36 84.27,-16.06 111.4,-37.07 47.14,-36.53 39.15,-50.26 68.1,-88.32 6.16,-8.11 34.49,-20.46 46.33,-26.69 17.69,-9.3 55.78,-6.68 59.4,-17.68 8.44,-25.66 -101.09,20.18 -109.5,26.17 -9.87,7.03 -46.11,68.71 -66.68,89.59 -24.61,24.98 -27.63,9.08 -54.13,17.4 -20.08,6.3 -25,19.08 -53.97,23.58 -23.36,3.62 -44.26,1.63 -66.21,-7.32 -17,-6.95 -35.98,-35.04 -39.72,-1.72l-14.93 -9.01zm133.35 -100.19c-25.73,3.61 -51.08,7.23 -70.22,27.09 -5.93,6.15 -8.22,32.46 4.23,38.1 17.46,7.92 17.96,12.2 38.38,12.28 6.66,0.03 30.9,-5.6 37.64,-7.69 22.79,-7.09 14.53,-14.01 26.66,-23.86 13.48,-10.94 8.81,-21.47 0.27,-33.85 -8.91,-12.91 -20.81,-14.34 -36.96,-12.06zm190.43 -120.61c4.37,-2.15 7.74,-2.03 11.89,0.07 4.45,2.28 3.22,-0.04 1.53,3.81 -3.42,7.81 -15.36,6.35 -13.42,-3.88zm3.05 -6.96c-16.52,1.63 -123.71,22.05 -132.79,27.16 -6.23,3.51 -50.25,9.83 -62.38,13.34 -3.35,0.97 -21.7,13.55 -23.45,15.99 -4.37,6.04 11.59,17.46 17.18,17.45 6.68,0 16.46,-8.37 29.95,-9.31 16.23,-1.13 16.82,-1.53 31.6,-5.83 21.49,-6.25 43.2,-9.17 64.33,-15.3 17.85,-5.17 44.19,-11.2 62.3,-15.04 8.8,-1.86 29.42,-0.87 32.12,-7.49 4.88,-11.99 -6.8,-22.16 -18.85,-20.96zm176.92 599.54l0.46 0.06c-14.38,-27.83 21.39,-121.66 43.33,-142.82 9.91,-9.54 8.87,-11.95 22.36,-23.61 10.36,-8.94 19.15,-13.89 26.54,-20.23 10.51,-9.01 50.92,-34.82 64.47,-24.45l0.42 9.34c-0.63,0.54 -26.13,11.5 -34.39,17.3 -10.83,7.59 -19.02,13.84 -29.48,21.86 -19.71,15.13 -32.99,35.98 -45.34,57.11 -31.3,53.62 -36.01,104.12 -17.68,162.8 11.62,37.19 51.81,100.69 88.1,117.49 54.59,25.27 112.83,26.06 171.25,15.99l2.29 7.66c-20.56,22.23 -85.23,18.28 -115.05,16.9 -2.86,-0.13 -47.54,-14.55 -50.79,-16.44 -15.63,-9.1 -23.05,-15.56 -39.58,-21.24 -13.08,-4.48 -56.83,-57.47 -61.47,-70.49 -3.87,-10.86 -9.55,-8.58 -12.09,-21.73 -4.07,-21.06 -16.5,-21.09 -13.35,-85.5zm10.28 -89.74c-37.11,92.54 -10.14,185.12 56.47,254.09 16.79,17.38 28.03,23.98 49.81,34.64 10.1,4.94 55.06,19.98 65.16,20.34 29.78,1.07 50.68,1.88 80.22,-2.98 18.66,-3.05 15.54,-6.22 29.85,-12.73 16.3,-7.42 5.96,-8.49 17.32,-16.57 1.91,-2.58 -17.71,-10.07 -23.05,-7.65 -14.15,6.4 0.09,6.13 -25.45,10.13 -61.29,9.58 -116.8,-0.42 -167.38,-38.73 -2.54,-6.37 -12.75,-12.66 -18.45,-18.95 -9.86,-10.92 -7.63,-15.7 -14.88,-24.24 -6.32,-7.45 -24.42,-41.9 -27.3,-50.69 -4.56,-13.95 -12.69,-51.07 -12.69,-65.35 0,-7.49 11.65,-57.84 15.16,-62.6 7.05,-9.51 17.89,-33.99 26.44,-47.83 2.72,-4.38 34.09,-38.86 37.47,-40.78 11.02,-6.26 37.13,-29.97 43.82,-33.03 11.09,-5.06 48.2,-6.16 37.69,-32.34 -14.02,-0.82 -50.92,5 -63,12.72 -8.19,5.24 -11.36,10.99 -19.74,16.12 -5.03,3.08 -6.86,6.57 -10.83,9.21 -6.49,4.31 -9.98,0.97 -14.9,3.5l-1.43 -1 -60.29 94.76zm300.99 96.92c-3.68,-5.67 -1.1,-23.13 1.6,-27.99 -0.32,0.92 2.76,10.39 2.78,13.98l-1.75 11.59c-1.75,3.85 -0.16,1.48 -2.64,2.42zm-193.87 -80.82c4.81,-2.91 4.81,56.47 6.03,64.42 0.14,0.86 30.6,59.72 18.19,49.28 -11.77,-9.9 -27.33,-28.71 -29.16,-47.18 -0.99,-9.97 -3.85,-61.21 4.94,-66.51zm89.9 -65.74c-63.62,-19.17 -139.18,99.8 -78.33,174.84 58.57,72.25 163.76,53.67 188.88,-30.25 4.48,-14.97 -1.16,-53.92 -15.06,-5.9 -4.38,15.18 -18.62,35.77 -30.84,45.9 -33.39,27.67 -74.87,25.53 -108.29,-0.69 -33.66,-26.4 -44.29,-71.99 -37.36,-112.43 8.32,-48.56 46.1,-47.06 80.99,-71.46zm-443.31 168.64c-2.97,-2.01 -3.67,-12.63 -4.28,-17.72 -0.8,-6.69 -1.76,-15.71 1.49,-18.69 4.31,7.16 5.49,29.41 2.79,36.41zm-38.7 -165.59c0.29,2.86 14.75,73.97 15.57,76.59 1.98,6.35 15.27,67.9 16,74.62 1.69,15.44 3.47,23.12 7.96,37.37 4.47,14.15 4.05,26.01 6.32,40.28 5.46,34.49 26.93,32.79 13.97,-7 -5.19,-15.96 -5.51,-17.71 -7.61,-35.4 -2.49,-21.27 -4.05,-18.34 -8.15,-35.05 -2.62,-10.67 -2.64,-24.07 -5.41,-36.54 -2.99,-13.36 -6.7,-22.48 -8.54,-36.7 -0.46,-3.55 -14.87,-73.04 -15.57,-75.45 -8.01,-27.93 -20.24,-58.47 -14.54,-2.72zm197.74 16.73l-8.51 17.55c-18.29,-6.7 -14.55,-132.64 -2.65,-137.43l16.82 -1.42 -11.59 -51.9c1.03,-2.39 20.13,-21.89 8.25,-29.87 -0.36,-0.26 -12.95,23.49 -14.63,26.92 -6.36,12.96 3.32,15.41 -9.44,34.19 -6.25,9.2 -4.2,28.43 -4.87,39.94 -3.24,55.68 -1.17,109.61 -0.69,164.99 0.2,23.61 -2.41,61.31 4,82.94 5.64,19.05 19.64,67.91 15.23,10.46 -2.32,-30.25 -2.65,-53.83 -1.16,-84.27 0.49,-9.98 16.46,-69.99 9.24,-72.1zm92.67 170.83c2.02,-1.4 3.07,-2.75 5.79,-2.84 0.83,3.04 5.5,32.27 -0.13,33.63 -1.73,-1.16 -3.09,-11.67 -3.62,-14.6l-2.03 -16.2zm-6.8 -9.31c-2.21,-2.99 -3.12,-37.52 -3.68,-43.69 -0.63,-7.09 0.06,-14.84 1.33,-21.83 0.77,-4.28 -0.86,-18.82 2.46,-20.56 2.82,4.3 5.31,83.24 -0.11,86.08zm-8.42 -41.87l-0.46 -0.06c1.69,2.44 4.44,48.47 8.08,59.83 6.55,20.38 9.4,28.72 20.7,46.65 30.21,47.92 50.31,53.06 63.39,70.18l14.02 -0.96c0.26,-0.77 -25.25,-25.84 -29.15,-30.05 -13.39,-14.4 -14.58,-20.38 -24.88,-35.65 -15.59,-23.12 -29.59,-58.57 -34.92,-86.15 -4.68,-24.32 1.63,-83.3 13.36,-104.71 4.98,-9.1 45.18,-71.91 41.63,-76.09 -16.26,-7.02 -44.16,49.15 -52.86,60.25 -12.16,15.53 -18.49,75.98 -18.91,96.76zm239.19 -33.88c-7.28,-1.76 -6.8,-7.74 -6.82,-14.4 -0.01,-6.89 -0.8,-12.51 6.65,-14.3 6.15,5.46 4.35,22.83 0.17,28.69zm-22.03 -4.08c-6.42,2.12 -46.76,-9.44 -26.8,22.23 0.17,0.16 21.04,3.85 24.85,5.04 14.88,4.66 12.03,3.11 20.1,-6.04 13.72,-15.56 17.49,-23.76 11.22,-46.74 -2.69,-9.87 -20.73,-31.11 -30.37,-15.34 -11.19,18.29 15.99,17.02 1,40.85zm-588.02 -434.06c16.14,-2.28 28.05,-0.85 36.96,12.06 8.54,12.38 13.21,22.9 -0.27,33.85 -12.13,9.86 -3.87,16.77 -26.66,23.86 -6.75,2.09 -30.98,7.72 -37.64,7.69 -20.41,-0.07 -20.91,-4.35 -38.38,-12.28 -12.45,-5.64 -10.16,-31.96 -4.23,-38.1 19.14,-19.85 44.49,-23.48 70.22,-27.09zm46.87 6.16c3.54,-26.74 -19.78,-11.06 -33.02,-12.28 -55.08,-5.07 -112.69,30.91 -90.87,67.81 14.73,24.94 62.76,26.76 85.83,14.63 26.64,-14.02 13.62,-4.61 31.44,-26.06 18.36,-22.09 3.88,-23.38 6.62,-44.11zm841.94 -270.09c-3.75,2.02 -1.6,3.51 -7.84,4.44 -12.83,1.91 -9.6,16.95 -6.29,23.08 1.78,3.29 0.93,0.01 1.39,1.95 0.1,0.46 0.44,3.34 0.86,4.93 1.4,5.41 -4.64,23.82 -2.31,29.34 2.08,0.47 14.47,-0.29 17.98,-0.24 6.72,0.09 11.55,1.25 17.07,-2.61 -4.21,-2.75 -3.07,-0.3 -4.8,-6.02 -4.9,-16.07 1.98,-14.87 -6.23,-25.23 -4.11,-5.19 -3.71,-10.34 -4.63,-16.65 -1.36,-9.24 -2.25,-5.6 -2.74,-5.99 -0.62,-0.49 -0.8,-5 -2.48,-7zm153.07 341.35c0.32,4.6 34.34,131.96 36.84,73.58 0.46,-10.61 -0.89,-20.54 -8.75,-27.99 -6.04,-5.72 -5.8,-17.75 -9.12,-25.81 -5.17,-12.61 -7.75,-5.9 -10.3,-25.07 -3.05,-22.93 -9.14,-1.46 -8.67,5.29zm-554.07 320.9c-8.8,5.3 -5.93,56.54 -4.94,66.51 1.83,18.48 17.39,37.29 29.16,47.18 12.41,10.44 -18.05,-48.42 -18.19,-49.28 -1.22,-7.95 -1.22,-67.33 -6.03,-64.42zm207.22 -504.85c-2.44,-1.38 -2.06,-0.3 -4.04,-1.1 -2.71,-1.12 1.55,0.49 -2.33,-1.75 -4.15,-2.38 -10.71,-1.38 -14.15,-7.19l-3.88 -5.77c-0.09,-0.34 -0.29,-0.4 -0.46,-0.56 -0.73,7.52 0.07,5.89 -2.58,12.02 -1.6,3.72 -0.52,2.46 -3.68,4.08 -4.15,2.12 -1.26,1.46 -4.24,2.69 -3.19,-0.27 -10.24,-5.74 -13.65,-6.8 -4.31,3.28 -2.99,8.75 -3.01,14.44 -0.01,4.56 -1.85,11.75 -1.52,15.1 3.68,2.92 13.71,2.76 17.98,0.69 3.5,-1.69 2.78,-2.94 5.03,-5.64 2.59,-3.14 4.24,-2.76 5.99,-4 4.11,-2.86 0.63,-7.49 9.93,-10.61 3.12,-1.06 13.12,-4.51 14.63,-5.59zm-262.91 -197.75c-2.59,0.52 -23.42,-1.39 -16.33,5.43 4.25,4.1 56.15,-0.52 63.07,-6.1 26.77,-21.59 -24.27,-11.98 -35.58,-9.33 -12.09,2.84 -7.94,7.79 -11.16,10zm0 0c3.22,-2.21 -0.93,-7.16 11.16,-10 11.32,-2.65 62.35,-12.26 35.58,9.33 -6.92,5.59 -58.82,10.2 -63.07,6.1 -7.09,-6.82 13.74,-4.91 16.33,-5.43zm-16.54 15.04c10.07,1.45 37.32,-5.59 49.05,-6.95 14.61,-1.69 41.54,-13.98 19.05,-24.24 -10.11,-4.61 -35.88,0.46 -47.04,3.82 -4.08,1.23 -21.47,4.83 -21.76,5.14 -4.11,4.57 -3.15,18.06 0.7,22.22zm-643.43 565.49c-4.25,14.4 -7.22,137.46 0.33,142.39 9.63,6.27 -1.48,-132.85 -0.33,-142.39zm607.39 -550.98c4.47,-9.96 12.88,-50.62 -6.25,-42.69 -12.08,5 -16.01,53.5 6.25,42.69zm230.54 69.19c-6.03,-1 -4.56,14.83 -7.21,20.8 -1.59,3.58 -11.12,15.61 -10.6,18.31 0.37,1.92 5.69,6.26 7.69,6.99 3.6,1.29 9.48,1.27 11.9,2.75 9.1,5.53 7.89,15.57 11.04,17.09 1.59,-2.85 1.17,-15.5 -0.06,-18.91 -1.25,-3.44 -2.69,-3.68 -4.14,-5.83 -1,-1.49 -3.88,-5.41 -4.08,-5.82 -5.67,-11.46 -0.76,-24.49 -4.56,-35.38zm-81.79 268.01c1.79,26.16 14.95,2.66 27.43,4.05 31.63,3.55 24.04,-16.17 5.27,-15.2l-9.5 9.91 -14 -7.86c-1.8,0.74 -7.56,7.18 -9.21,9.1zm243.89 -338.17c4,1.73 8.22,3.28 12.41,4.56 6.55,2.01 5.2,5.62 11.77,4.11 11.2,-2.55 5.2,-2.88 10.97,-4.23 2.65,-0.63 5.13,-0.49 7.56,-1.1 3.11,-0.79 2.82,-1.63 5.29,-2.85l-3.28 -9.12 -37.73 0.04c-2.55,3.57 -5.37,4.08 -6.99,8.59zm90.56 948.27l9.2 -15.11c-3.25,-1.36 -3.95,-6.72 -4.4,-10.34 -0.56,-4.71 1.12,-11.73 -1.29,-15.51 -1.98,0.62 -3.64,-1.72 -3.52,7.48 0.14,10.67 -5.21,13.11 -11.45,15.79l-0.99 11.8c-1.72,1.38 -3.21,0.87 -4.74,2.74 -0.06,0.07 -0.17,2.74 0.13,0.29 -4.56,0.09 -2.98,-0.79 -6.04,1.56 5.19,3.08 16.57,1.42 23.11,1.32zm-672.21 -668.05c-6.22,7.68 -10.44,35.24 2.38,37.56 15.11,2.74 27.72,-4.04 36.05,-13.06 -4.96,-21.96 -28.08,-20.81 -38.43,-24.49zm188.77 509.38c5.43,-2.84 2.94,-81.78 0.11,-86.08 -3.32,1.73 -1.69,16.27 -2.46,20.56 -1.27,6.99 -1.96,14.74 -1.33,21.83 0.56,6.17 1.48,40.7 3.68,43.69zm-271.43 -547c2.94,6.59 10.5,6.07 15.11,15.9 3.84,-0.73 2.56,-1.66 5.93,-2.22 3.08,-0.5 4.74,0.32 7.96,-0.76 5.24,-15.28 -23.15,-25.98 -29.01,-12.92zm-32.67 97.76c7.45,-5.26 8.42,-41.4 -0.39,-48.04 -2.08,8.72 -2.49,14.61 -3.08,24.01 -0.37,6.23 -1.1,21.19 3.47,24.04zm955.36 292.95c2.26,0.74 1.69,0.07 2.54,3.35 0.42,1.6 0.57,2.99 0.9,4.88 2.21,-0.34 1.63,0.96 2.62,-1.1 0.11,-12.22 -4.63,-15.41 -2.33,-30.65 0.56,-3.74 8.44,-20.28 10.61,-23.91l0.4 -2.05c-6.3,-1.02 -14.31,12.66 -15.9,18.94 -1.92,7.62 -2.16,23.36 1.16,30.54zm-736.37 227.39c6.82,-3.91 3.05,-25.74 -0.42,-30.87 -3.98,-0.17 -7.63,0.72 -10.23,3.8 -4.84,5.72 1.22,3.71 1.63,9.11 0.43,5.51 -0.57,6.12 3.45,10.2 3.27,3.31 2.64,5.17 5.56,7.76zm315.88 -146.85c4.18,-5.86 5.97,-23.23 -0.17,-28.69 -7.45,1.79 -6.66,7.41 -6.65,14.3 0.01,6.66 -0.46,12.63 6.82,14.4zm-103.05 233.12c8.92,6.22 28.1,3.75 32.62,0.7 -1.66,-3.8 -21.99,-7.96 -30.98,-6.1l-1.63 5.4zm5.47 -590.37c6,-2.22 5,-5.8 9.63,-17.22 -2.31,-1.93 -6.69,-4.44 -9.58,-4.96 -3.62,4.81 -2.76,4.77 -2.82,11.04 -0.04,4.78 -0.86,7.68 2.78,11.13zm-174.57 204.97l4.67 1.63c5.17,-4.13 4.1,-7.42 4.27,-13.81 3.45,-1.75 5.33,-0.89 9.25,-1.8 0.66,-2.89 0.63,-4.48 -0.23,-7.1l-14.12 4.94c-1.03,1.55 -0.93,5.54 -2.12,8.05 -1.91,4.01 -2.99,2.29 -1.72,8.09zm185.7 -440.59c2.12,1.58 14.78,1.93 17.3,1.95 6.06,0.03 13.05,0.44 17.4,-2.58 -2.44,-9.5 -19.88,-3.41 -29.67,-1.23l-5.04 1.86zm-135.48 694.14c0.53,2.92 1.89,13.44 3.62,14.6 5.63,-1.36 0.96,-30.6 0.13,-33.63 -2.72,0.09 -3.77,1.43 -5.79,2.84l2.03 16.2zm-57.9 -143.75c2.62,-2.78 2.95,-11.2 3.37,-15.6 0.53,-5.36 1.88,-13.78 -2.12,-17.75 -5.99,2.68 -6.32,27.07 -1.25,33.35zm279.7 -324.11c-7.22,5.84 -4.41,2.42 -3.77,12.02 0.43,6.29 -0.17,7.41 4.87,10.11 4,-5.73 4.84,-3.31 4.51,-11.6 -0.24,-5.92 -0.56,-7.29 -5.62,-10.53zm396.16 -153.5c0.17,2.25 1.7,10.04 7.02,6.4 6,-4.11 1.49,-25.97 -3.98,-18.72 -0.92,1.22 -3.12,11.19 -3.04,12.32zm-1161.69 58.43c5.09,-7.62 5.87,-12.88 5.31,-22.27l-5.29 -0.21c-4.38,14.1 -6.65,14.47 -0.03,22.49zm437.56 -141.71c2.72,-3.52 3.11,-13.57 2.16,-18.29 -0.16,-0.77 -0.52,-2.42 -0.77,-3.15l-1.43 -2.65c-1.68,2.86 -5.7,8.64 -5.57,11.6 0.13,3.18 1.29,3.05 2.12,6.42 0.83,3.37 0.06,4.71 3.5,6.07zm417.14 313.91c4.5,3.74 12.85,3.98 17.73,0.8 -1.4,-2.55 -2.28,-1.95 -5.17,-3.84 -0.44,-0.29 -1.7,-1.3 -2.09,-1.66 -6.43,-5.92 -10.34,0.89 -10.47,4.7zm-17.42 330.47c2.48,-0.95 0.89,1.43 2.64,-2.42l1.75 -11.59c-0.01,-3.6 -3.09,-13.06 -2.78,-13.98 -2.71,4.86 -5.29,22.32 -1.6,27.99zm356.29 -235.24c-5.39,-1.56 -6.02,3.34 -6.29,8.18 -0.06,0.9 -0.16,3.17 -0.13,3.98 0.13,2.46 1.13,4.81 3.52,6.57l2.79 -3.35c1.55,-3.02 1.17,-12.29 0.1,-15.38zm-1012.18 -130.22c5.67,2.35 13.24,0.73 18.88,-0.03 -0.4,-0.69 -1.36,-2.03 -1.58,-2.54 -0.44,-1.06 -0.47,-2.11 -0.92,-2.92 -2.78,-5.16 -8.85,0.59 -11.39,1.5 -3.88,1.39 -4.45,-0.82 -5,3.98zm316.71 537.63c-6.98,4.14 -3.82,14.14 3.84,12.79 2.28,-0.39 2.85,-0.46 3.29,-2.91 0.85,-4.67 -1.06,-2.49 -4.08,-6.65 -1.95,-2.66 -0.01,-1.4 -3.05,-3.24zm-287.56 -649.07c0.52,3.74 5.3,6.23 8.77,7.15 5.56,-3.92 3.45,-6.68 0,-10.51 -3.34,0.26 -6.56,0.7 -8.77,3.37zm271.02 630.19c-0.23,3.05 0.8,5.31 1.83,7.99l3.35 6.68c2.09,-4.01 7.51,-20.07 -5.19,-14.67zm-424.36 -726.95c0.37,4.4 0.44,3.21 3.28,5.83 3.07,-0.3 12.58,-3.75 14.15,-5.77 -4.31,-1.79 -13.32,-2.11 -17.43,-0.06zm453.03 770.67c8.19,-1.23 5.59,-8.34 0.69,-9.68 -6.42,-1.76 -5.96,5.36 -0.69,9.68zm29.67 -441.65c1.09,2.16 -0.19,1.42 3.31,2.56 9,2.95 10.81,-10.26 0.19,-5.7 -2.76,1.17 -2.62,1.02 -3.5,3.14z"/>
 </g>
</svg>
