<?xml version="1.0" encoding="UTF-8"?>
<!DOCTYPE svg PUBLIC "-//W3C//DTD SVG 1.1//EN" "http://www.w3.org/Graphics/SVG/1.1/DTD/svg11.dtd">
<!-- Creator: CorelDRAW 2020 (64-Bit) -->
<svg xmlns="http://www.w3.org/2000/svg" xml:space="preserve" width="1.69532in" height="1.56546in" version="1.1" style="shape-rendering:geometricPrecision; text-rendering:geometricPrecision; image-rendering:optimizeQuality; fill-rule:evenodd; clip-rule:evenodd"
viewBox="0 0 1792.54 1655.23"
 xmlns:xlink="http://www.w3.org/1999/xlink"
 xmlns:xodm="http://www.corel.com/coreldraw/odm/2003">
 <defs>
  <style type="text/css">
   <![CDATA[
    .fil1 {fill:gray}
    .fil2 {fill:gray}
    .fil0 {fill:gray;fill-rule:nonzero}
   ]]>
  </style>
 </defs>
 <g id="Capa_x0020_1">
  <metadata id="CorelCorpID_0Corel-Layer"/>
  <g id="_2453905808448">
   <path class="fil0" d="M24.78 1497.04c-7.93,0 -16.08,0.09 -24.41,0.28l-0.37 -3.9 12.08 -3.34c1.72,-0.49 2.59,-1.42 2.66,-2.81 0.07,-2.41 0.13,-5.13 0.17,-8.1 0.03,-3 0.03,-6.31 0.03,-9.92l0 -73.43c0,-3.09 0,-5.84 -0.03,-8.31 -0.03,-2.47 -0.1,-4.73 -0.17,-6.71 -0.07,-1.58 -0.84,-2.6 -2.35,-3.09l-12.19 -3.52 -0.2 -3.89c8.46,0.25 16.68,0.37 24.68,0.37 6.55,0 12.86,-0.15 18.97,-0.47 6.07,-0.31 12.32,-0.46 18.77,-0.46 22.9,0 40.15,4.82 51.68,14.46 11.51,9.61 17.29,23.92 17.29,42.9 0,22.34 -6.41,39.71 -19.2,52.04 -12.83,12.36 -30.79,18.55 -53.9,18.55 -6.38,0 -12.02,-0.1 -17.02,-0.31 -4.97,-0.22 -10.48,-0.34 -16.49,-0.34zm9.5 -7.94c3.86,0.5 7.66,0.8 11.35,0.96 3.69,0.15 7.42,0.22 11.14,0.22 17.3,0 30.46,-4.7 39.49,-14.09 9.03,-9.37 13.56,-23.77 13.56,-43.14 0,-18.82 -4.3,-32.79 -12.86,-41.87 -8.6,-9.09 -22.2,-13.63 -40.77,-13.63 -2.95,0 -6.21,0.06 -9.8,0.18 -3.56,0.12 -7.58,0.34 -12.12,0.62l0 110.76zm174.67 -120.65l43.69 110.67c1.64,4.17 3.12,6.99 4.46,8.47 1.34,1.48 3.26,2.6 5.78,3.31l9.23 2.54 0.2 3.9c-8.59,-0.19 -16.56,-0.28 -23.91,-0.28 -7.48,0 -16.32,0.09 -26.46,0.28l-0.4 -3.9 9.33 -2.54c1.32,-0.43 2.25,-0.89 2.82,-1.42 0.54,-0.5 0.84,-1.3 0.84,-2.38 0,-1.2 -0.37,-2.81 -1.04,-4.76 -0.71,-1.98 -1.65,-4.57 -2.89,-7.85l-9.27 -24.26 -47.41 0 -10.34 24.16c-1.38,3.4 -2.45,6.09 -3.22,8.07 -0.81,2.01 -1.18,3.58 -1.18,4.73 0,1.02 0.3,1.79 0.91,2.29 0.64,0.52 1.57,0.96 2.81,1.33l9.13 2.44 0.2 4.08c-9.3,-0.19 -16.93,-0.28 -22.8,-0.28 -5.91,0 -12.53,0.09 -19.77,0.28l-0.51 -3.9 9.94 -2.81c2.49,-0.71 4.33,-1.82 5.5,-3.34 1.18,-1.52 2.49,-3.86 3.93,-7.08l50.26 -110.39 10.14 -1.36zm-31.39 73.61l40.53 0 -19.17 -49.88 -21.36 49.88zm136.99 -46.57l0 73.64c0,6.71 0.07,13.32 0.2,19.84l47.91 0 12.59 -24.01 4.4 -0.65 -2.15 32.45 -0.6 0.65c-16.96,-0.19 -32.67,-0.28 -47.11,-0.28l-24.71 0c-7.96,0 -16.12,0.06 -24.45,0.19l-0.37 -3.9 12.08 -3.34c1.65,-0.43 2.52,-1.36 2.66,-2.81 0.07,-2.41 0.13,-5.13 0.17,-8.1 0.03,-3 0.03,-6.31 0.03,-9.92l0 -73.43c0,-3.09 0,-5.84 -0.03,-8.31 -0.03,-2.47 -0.1,-4.73 -0.17,-6.71 -0.07,-1.58 -0.84,-2.6 -2.35,-3.09l-12.19 -3.52 -0.2 -3.89c8.46,0.25 16.59,0.37 24.41,0.37 7.89,0 16.05,-0.12 24.44,-0.37l0.37 3.89 -12.19 3.34c-1.58,0.37 -2.41,1.3 -2.55,2.81 -0.07,2.14 -0.14,5.2 -0.17,9.24 -0.04,4.05 -0.04,6.03 -0.04,5.9zm204.22 -25.18c6.18,0.25 11.75,0.37 16.72,0.37 4.87,0 11.39,-0.12 19.61,-0.37l0.37 3.89 -12.39 3.52c-1.51,0.5 -2.28,1.52 -2.35,3.09 -0.13,3.98 -0.2,8.99 -0.2,15.02l0 73.43c0,7.11 0.07,13.13 0.2,18.02 0.07,1.39 0.97,2.32 2.75,2.81l11.82 3.34 0.17 3.9c-8.63,-0.19 -16.92,-0.28 -24.84,-0.28 -7.79,0 -15.48,0.09 -23,0.28l-0.4 -3.9 11.31 -3.18c1.58,-0.4 2.39,-1.45 2.45,-3.15 0.13,-4.76 0.2,-10.72 0.2,-17.83l0 -78.41 -48.76 106.28 -7.15 0.71 -49.05 -106.99 0 78.41c0,7.11 0.07,13.07 0.2,17.83 0.07,1.7 0.91,2.75 2.55,3.15l11.01 3.18 0.2 3.9c-7.79,-0.19 -14.34,-0.28 -19.61,-0.28 -5.13,0 -11.95,0.09 -20.41,0.28l-0.37 -3.9 12.09 -3.34c1.71,-0.49 2.58,-1.42 2.65,-2.81 0.14,-4.88 0.2,-10.91 0.2,-18.02l0 -73.43c0,-6.03 -0.07,-11.04 -0.2,-15.02 -0.07,-1.58 -0.84,-2.6 -2.35,-3.09l-12.19 -3.52 -0.2 -3.89c8.46,0.25 15.14,0.37 20.09,0.37 5.64,0 11.51,-0.12 17.59,-0.37l45.7 99.32 45.59 -99.32zm120.38 -1.86l43.69 110.67c1.64,4.17 3.12,6.99 4.46,8.47 1.34,1.48 3.26,2.6 5.78,3.31l9.23 2.54 0.2 3.9c-8.59,-0.19 -16.56,-0.28 -23.91,-0.28 -7.48,0 -16.32,0.09 -26.46,0.28l-0.4 -3.9 9.33 -2.54c1.32,-0.43 2.25,-0.89 2.82,-1.42 0.54,-0.5 0.84,-1.3 0.84,-2.38 0,-1.2 -0.37,-2.81 -1.04,-4.76 -0.71,-1.98 -1.65,-4.57 -2.89,-7.85l-9.27 -24.26 -47.41 0 -10.34 24.16c-1.38,3.4 -2.45,6.09 -3.22,8.07 -0.81,2.01 -1.18,3.58 -1.18,4.73 0,1.02 0.3,1.79 0.91,2.29 0.64,0.52 1.57,0.96 2.81,1.33l9.13 2.44 0.2 4.08c-9.3,-0.19 -16.93,-0.28 -22.8,-0.28 -5.91,0 -12.53,0.09 -19.77,0.28l-0.51 -3.9 9.94 -2.81c2.49,-0.71 4.33,-1.82 5.5,-3.34 1.18,-1.52 2.49,-3.86 3.93,-7.08l50.26 -110.39 10.14 -1.36zm-31.39 73.61l40.53 0 -19.17 -49.88 -21.36 49.88zm257.3 -40.11l-3.93 0.52 -6.78 -23.7c-8.03,-1.95 -15.51,-2.91 -22.53,-2.91 -16.42,0 -29.18,5.1 -38.38,15.33 -9.17,10.23 -13.77,24.32 -13.77,42.31 0,18.17 5,32.6 15.01,43.3 9.97,10.72 23.43,16.07 40.36,16.07 5.68,0 11.28,-0.65 16.76,-1.98l0 -24.16c0,-3 0,-5.75 -0.04,-8.22 -0.03,-2.47 -0.1,-4.73 -0.17,-6.77 -0.07,-1.57 -0.84,-2.56 -2.35,-3l-12.19 -3.52 -0.2 -3.89c8.46,0.18 16.58,0.27 24.38,0.27 7.93,0 15.55,-0.09 22.9,-0.27l0.47 3.89 -10.72 2.91c-1.57,0.46 -2.41,1.42 -2.55,2.81 -0.07,2.41 -0.13,4.85 -0.17,7.39 -0.03,2.5 -0.03,5.19 -0.03,8.1l0 28.99 -0.61 0.62c-13.4,2.96 -25.72,4.45 -36.93,4.45 -23.07,0 -41.4,-5.62 -55.04,-16.84 -13.63,-11.22 -20.45,-26.89 -20.45,-47.01 0,-21.36 7.08,-38.1 21.25,-50.22 14.17,-12.08 33.48,-18.14 57.96,-18.14 10.54,0 21.63,1.24 33.24,3.7l0.6 0.75 -6.11 29.24zm55.98 30.22c0,19.66 4.33,34.73 12.96,45.18 8.67,10.47 21.32,15.7 38.01,15.7 16.46,0 28.58,-4.76 36.4,-14.25 7.82,-9.49 11.75,-24.41 11.75,-44.72 0,-19.07 -4.16,-33.71 -12.49,-43.94 -8.29,-10.26 -21.15,-15.39 -38.48,-15.39 -16.85,0 -29.08,4.76 -36.7,14.25 -7.62,9.49 -11.45,23.89 -11.45,43.17zm120.68 -1.17c0,20.89 -6.45,37.7 -19.31,50.4 -12.86,12.7 -30.85,19.07 -53.96,19.07 -21.96,0 -38.91,-5.87 -50.94,-17.62 -12.02,-11.74 -18.03,-27.63 -18.03,-47.68 0,-20.89 6.48,-37.42 19.41,-49.57 12.93,-12.18 30.85,-18.26 53.75,-18.26 22.03,0 39.02,5.69 51.04,17.06 12.02,11.4 18.03,26.92 18.03,46.6zm43.55 -34.89l0 73.15c0,7.11 0.07,13.04 0.2,17.74 0.07,1.7 0.87,2.72 2.45,3.09l11.72 3.16 0.2 4.08c-8.23,-0.19 -14.94,-0.28 -20.21,-0.28 -5.14,0 -11.95,0.09 -20.41,0.28l-0.37 -3.9 12.09 -3.34c1.71,-0.49 2.59,-1.42 2.65,-2.81 0.14,-4.88 0.2,-10.91 0.2,-18.02l0 -73.43c0,-6.03 -0.07,-11.04 -0.2,-15.02 -0.07,-1.58 -0.84,-2.6 -2.35,-3.09l-12.19 -3.52 -0.2 -3.89c8.46,0.25 15.14,0.37 20.05,0.37 2.95,0 5.94,-0.12 8.96,-0.37l82.64 95.03 0 -69.91c0,-5.87 -0.07,-10.91 -0.2,-15.14 -0.07,-1.39 -0.91,-2.35 -2.55,-2.81l-11.62 -3.09 -0.2 -4.08c8.39,0.25 15.21,0.37 20.41,0.37 5.27,0 11.99,-0.12 20.21,-0.37l0.37 3.89 -12.39 3.52c-1.52,0.5 -2.28,1.52 -2.35,3.09 -0.13,3.98 -0.2,8.99 -0.2,15.05l0 101.27 -8.26 0.71 -88.44 -101.74zm124.33 101.31l-0.4 -3.9 75.85 -114.87 -58.05 0 -7.26 21.82 -3.93 0.65 -5.14 -30.07 0.7 -0.74c16.32,0.25 31.83,0.37 46.51,0.37l23.23 0c9.3,0 18.67,-0.12 28.14,-0.37l0.37 3.83 -75.61 114.84 59.9 0 13.16 -24.44 4.43 -0.65 -2.65 32.88 -0.6 0.65c-18.4,-0.19 -34.82,-0.28 -49.16,-0.28l-23.71 0c-9.2,0 -17.8,0.09 -25.79,0.28zm183.37 -128.96l43.68 110.67c1.64,4.17 3.12,6.99 4.47,8.47 1.34,1.48 3.26,2.6 5.77,3.31l9.23 2.54 0.2 3.9c-8.6,-0.19 -16.56,-0.28 -23.91,-0.28 -7.48,0 -16.32,0.09 -26.46,0.28l-0.4 -3.9 9.34 -2.54c1.31,-0.43 2.25,-0.89 2.82,-1.42 0.53,-0.5 0.84,-1.3 0.84,-2.38 0,-1.2 -0.37,-2.81 -1.04,-4.76 -0.7,-1.98 -1.64,-4.57 -2.88,-7.85l-9.27 -24.26 -47.41 0 -10.34 24.16c-1.38,3.4 -2.45,6.09 -3.23,8.07 -0.8,2.01 -1.17,3.58 -1.17,4.73 0,1.02 0.3,1.79 0.91,2.29 0.64,0.52 1.57,0.96 2.82,1.33l9.13 2.44 0.2 4.08c-9.3,-0.19 -16.93,-0.28 -22.8,-0.28 -5.91,0 -12.52,0.09 -19.77,0.28l-0.51 -3.9 9.94 -2.81c2.48,-0.71 4.33,-1.82 5.5,-3.34 1.17,-1.52 2.49,-3.86 3.93,-7.08l50.27 -110.39 10.14 -1.36zm-31.4 73.61l40.53 0 -19.17 -49.88 -21.36 49.88zm49.86 -94.72l-42.91 14.25 -2.66 -4.17 32.07 -22.16 13.5 10.72 0 1.36zm87.14 48.15l0 73.64c0,6.71 0.07,13.32 0.2,19.84l47.92 0 12.59 -24.01 4.4 -0.65 -2.15 32.45 -0.61 0.65c-16.96,-0.19 -32.67,-0.28 -47.11,-0.28l-24.71 0c-7.96,0 -16.12,0.06 -24.44,0.19l-0.37 -3.9 12.08 -3.34c1.65,-0.43 2.52,-1.36 2.66,-2.81 0.07,-2.41 0.13,-5.13 0.17,-8.1 0.03,-3 0.03,-6.31 0.03,-9.92l0 -73.43c0,-3.09 0,-5.84 -0.03,-8.31 -0.04,-2.47 -0.1,-4.73 -0.17,-6.71 -0.07,-1.58 -0.84,-2.6 -2.35,-3.09l-12.19 -3.52 -0.2 -3.89c8.46,0.25 16.58,0.37 24.41,0.37 7.89,0 16.05,-0.12 24.44,-0.37l0.37 3.89 -12.19 3.34c-1.58,0.37 -2.41,1.3 -2.55,2.81 -0.07,2.14 -0.13,5.2 -0.17,9.24 -0.03,4.05 -0.03,6.03 -0.03,5.9zm102.08 -24.81l23.94 0c14.67,0 30.19,-0.12 46.54,-0.37l0.57 0.74 -5.71 28 -3.93 0.65 -6.11 -21.05 -45.43 0 0 49.88 8.97 0c6.81,0 14.4,-0.06 22.8,-0.18 1.71,-0.06 2.82,-0.84 3.36,-2.32l3.42 -12.15 5.34 -0.18c-0.2,8.43 -0.3,14.68 -0.3,18.7 0,3.93 0.1,10.07 0.3,18.42l-5.34 0.37 -3.53 -12.43c-0.53,-1.57 -1.54,-2.38 -3.06,-2.44 -8.53,-0.12 -16.22,-0.19 -23.1,-0.19l-8.87 0 0 33.01c0,6.71 0.07,13.32 0.2,19.84l47.21 0 12.02 -23.02 4.4 -0.71 -2.15 31.52 -0.71 0.65c-16.96,-0.19 -32.64,-0.28 -47.01,-0.28l-23.44 0c-7.96,0 -16.12,0.06 -24.45,0.19l-0.37 -3.9 12.08 -3.34c1.65,-0.43 2.52,-1.36 2.66,-2.81 0.07,-2.41 0.13,-5.13 0.17,-8.1 0.03,-3 0.03,-6.31 0.03,-9.92l0 -73.43c0,-3.09 0,-5.84 -0.03,-8.31 -0.03,-2.47 -0.1,-4.73 -0.17,-6.71 -0.07,-1.58 -0.84,-2.6 -2.35,-3.09l-12.19 -3.52 -0.2 -3.89c8.46,0.25 16.59,0.37 24.41,0.37zm89.98 126.74l-0.4 -3.9 75.85 -114.87 -58.06 0 -7.26 21.82 -3.93 0.65 -5.14 -30.07 0.71 -0.74c16.32,0.25 31.83,0.37 46.5,0.37l23.24 0c9.3,0 18.67,-0.12 28.14,-0.37l0.37 3.83 -75.62 114.84 59.9 0 13.16 -24.44 4.43 -0.65 -2.66 32.88 -0.6 0.65c-18.4,-0.19 -34.83,-0.28 -49.16,-0.28l-23.7 0c-9.2,0 -17.8,0.09 -25.79,0.28z"/>
   <path class="fil0" d="M550.19 1608.95l0 29.09c0,0.89 -0.39,1.64 -1.19,2.27 -0.97,0.76 -2.28,1.13 -3.91,1.13 -1.94,0 -3.38,-0.48 -4.35,-1.45 -0.52,-0.52 -0.75,-1.16 -0.75,-1.95l0 -56.72c0,-5.48 3.66,-8.22 10.95,-8.22l32.03 0c1.2,0 2.21,0.31 3.01,0.9 0.92,0.69 1.39,1.58 1.39,2.69 0,1.26 -0.62,2.24 -1.83,2.96 -0.67,0.42 -1.53,0.61 -2.58,0.61l-29.81 0c-1.99,0 -2.97,0.65 -2.97,1.94l0 19.8 28.44 0c0.93,0 1.72,0.22 2.39,0.66 1.14,0.72 1.7,1.68 1.7,2.83 0,1.39 -0.69,2.39 -2.09,3.02 -0.62,0.29 -1.29,0.43 -2,0.43l-28.44 0zm78.41 -15.35c8.48,0 15.04,2.86 19.66,8.59 3.27,4.1 4.91,9.22 4.91,15.4 0,5.72 -1.36,10.64 -4.09,14.74 -4.45,6.67 -11.36,10.01 -20.73,10.01 -7.81,0 -14.01,-2.47 -18.59,-7.42 -4.09,-4.43 -6.11,-10.24 -6.11,-17.38 0,-7.11 2.17,-12.83 6.54,-17.15 4.58,-4.53 10.72,-6.79 18.42,-6.79zm-0.32 6.56c-4.78,0 -8.55,1.84 -11.27,5.53 -2.19,3.01 -3.29,6.96 -3.29,11.85 0,4.47 0.84,8.19 2.54,11.14 2.61,4.66 6.67,6.99 12.22,6.99 4.41,0 7.94,-1.59 10.59,-4.77 2.69,-3.21 4.04,-7.66 4.04,-13.32 0,-4.98 -1.14,-8.98 -3.42,-11.99 -2.68,-3.63 -6.48,-5.44 -11.4,-5.44zm59.87 -5.01l0 -10.99c0,-0.95 0.4,-1.71 1.2,-2.27 0.97,-0.7 2.18,-1.03 3.59,-1.03 1.72,0 3.06,0.45 3.98,1.35 0.54,0.52 0.82,1.16 0.82,1.95l0 10.99 12.28 0c0.97,0 1.79,0.21 2.46,0.61 1.27,0.72 1.89,1.74 1.89,3.03 0,1.45 -0.71,2.51 -2.14,3.21 -0.64,0.29 -1.38,0.42 -2.21,0.42l-12.28 0 0 35.8c0,0.89 -0.41,1.64 -1.2,2.27 -0.93,0.66 -2.13,0.99 -3.6,0.99 -1.72,0 -3.06,-0.45 -3.98,-1.37 -0.54,-0.5 -0.82,-1.13 -0.82,-1.89l0 -35.8 -12.29 0c-1.06,0 -1.96,-0.24 -2.71,-0.74 -1.09,-0.73 -1.64,-1.69 -1.64,-2.89 0,-1.45 0.71,-2.5 2.15,-3.16 0.63,-0.32 1.35,-0.48 2.19,-0.48l12.29 0zm69.53 -1.55c8.48,0 15.04,2.86 19.66,8.59 3.27,4.1 4.9,9.22 4.9,15.4 0,5.72 -1.35,10.64 -4.09,14.74 -4.45,6.67 -11.36,10.01 -20.73,10.01 -7.81,0 -14.01,-2.47 -18.59,-7.42 -4.09,-4.43 -6.11,-10.24 -6.11,-17.38 0,-7.11 2.17,-12.83 6.54,-17.15 4.58,-4.53 10.72,-6.79 18.42,-6.79zm-0.32 6.56c-4.78,0 -8.55,1.84 -11.27,5.53 -2.19,3.01 -3.29,6.96 -3.29,11.85 0,4.47 0.84,8.19 2.54,11.14 2.6,4.66 6.67,6.99 12.22,6.99 4.41,0 7.94,-1.59 10.59,-4.77 2.68,-3.21 4.04,-7.66 4.04,-13.32 0,-4.98 -1.14,-8.98 -3.42,-11.99 -2.69,-3.63 -6.48,-5.44 -11.4,-5.44zm78.22 28.15c-4.15,4.19 -9.46,6.29 -15.87,6.29 -6.82,0 -12.42,-1.92 -16.78,-5.72 -4.32,-3.77 -6.48,-8.68 -6.48,-14.69 0,-4.72 1.47,-8.85 4.41,-12.38 2.18,-2.58 5.04,-4.61 8.56,-6.09 3.4,-1.4 6.99,-2.11 10.78,-2.11 6.44,0 11.68,2 15.75,6l1.4 -2.79c0.8,-1.61 2.13,-2.42 3.98,-2.42 1.38,0 2.41,0.42 3.08,1.24 0.3,0.37 0.45,0.79 0.45,1.27l0 38.21c0,6.22 -1.72,11.01 -5.12,14.35 -3.94,3.85 -9.98,5.77 -18.1,5.77 -5.92,0 -11.3,-1.14 -16.13,-3.45 -3.9,-1.82 -5.85,-3.58 -5.85,-5.24 0,-0.7 0.32,-1.34 0.94,-1.94 0.88,-0.92 2,-1.37 3.33,-1.37 1.1,0 2.34,0.5 3.72,1.5 3.74,2.68 8.48,4.01 14.18,4.03 9.17,-0.02 13.75,-4.43 13.75,-13.28l0 -7.18zm0 -13.7l0 -1.37c0,-3.58 -1.33,-6.67 -3.98,-9.25 -2.78,-2.74 -6.33,-4.11 -10.65,-4.11 -4.73,0 -8.52,1.58 -11.34,4.72 -2.33,2.58 -3.47,5.79 -3.47,9.59 0,2.98 0.84,5.69 2.52,8.13 2.82,4 6.93,5.99 12.35,5.99 5.17,0 9.15,-1.87 11.92,-5.62 1.76,-2.36 2.64,-5.05 2.64,-8.08zm44.94 -11.34c1.29,-3.01 3.45,-5.43 6.44,-7.22 3.1,-1.82 6.51,-2.74 10.26,-2.74 3.7,0 6.63,0.69 8.76,2.08 1.72,1.09 2.58,2.32 2.58,3.68 0,0.89 -0.5,1.74 -1.51,2.56 -0.97,0.77 -2.04,1.18 -3.2,1.18 -1.36,0 -2.65,-0.4 -3.92,-1.18 -1.38,-0.82 -3.14,-1.24 -5.29,-1.24 -2.56,0 -5.07,0.93 -7.58,2.79 -2.56,1.92 -4.73,4.66 -6.54,8.22l0 26.41c0,0.9 -0.41,1.66 -1.2,2.26 -0.92,0.69 -2.13,1.04 -3.6,1.04 -1.72,0 -3.03,-0.45 -3.95,-1.37 -0.56,-0.5 -0.84,-1.14 -0.84,-1.93l0 -40.06c0,-0.9 0.4,-1.64 1.2,-2.21 0.97,-0.7 2.17,-1.05 3.59,-1.05 1.68,0 3.02,0.47 3.98,1.37 0.54,0.5 0.82,1.14 0.82,1.89l0 5.53zm85.84 31.03c-3.48,5.35 -9.21,8.03 -17.15,8.03 -6.93,0 -12.56,-2.14 -16.89,-6.42 -4.62,-4.55 -6.93,-10.56 -6.93,-18.05 0,-6.22 1.83,-11.54 5.49,-15.96 4.56,-5.55 10.58,-8.3 18,-8.3 6.74,0 12.33,2.55 16.78,7.64l0 -4.16c0,-0.9 0.41,-1.66 1.25,-2.26 0.89,-0.7 2.07,-1.05 3.53,-1.05 1.74,0 3.06,0.47 3.98,1.37 0.54,0.53 0.82,1.18 0.82,1.94l0 41c0,0.7 -0.22,1.31 -0.63,1.86 -0.88,1.03 -2.15,1.55 -3.78,1.55 -2.24,0 -3.51,-1.03 -3.85,-3.11l-0.62 -4.06zm-0.56 -16.15l0 -1.13c0,-5.11 -1.66,-9.28 -4.92,-12.57 -2.91,-2.79 -6.42,-4.19 -10.52,-4.19 -4.45,0 -8.05,1.66 -10.78,5 -2.73,3.31 -4.1,7.55 -4.1,12.7 0,4.76 1.09,8.7 3.29,11.86 2.73,3.9 6.63,5.85 11.73,5.85 5.2,0 9.27,-2.19 12.22,-6.56 2.06,-3.09 3.09,-6.74 3.09,-10.96zm43.68 -23.01l0 -11.43c0,-2.29 0.62,-4.34 1.89,-6.14 2.73,-4.03 7.35,-6.05 13.85,-6.05 5.55,0 9.81,1.42 12.8,4.26 0.97,0.92 1.44,1.84 1.44,2.79 0,1.09 -0.67,2.01 -2,2.74 -0.92,0.47 -1.85,0.71 -2.77,0.71 -1.81,0 -3.3,-0.66 -4.41,-1.99 -1.27,-1.48 -2.95,-2.22 -5.05,-2.22 -4.11,0 -6.18,2 -6.18,5.99l0 11.34 14.83 0c0.97,0 1.78,0.2 2.45,0.57 1.06,0.63 1.57,1.53 1.57,2.69 0,1.32 -0.61,2.29 -1.83,2.89 -0.63,0.29 -1.36,0.43 -2.19,0.43l-14.83 0 0 36.55c0,0.79 -0.3,1.45 -0.94,1.98 -0.97,0.82 -2.26,1.23 -3.89,1.23 -1.9,0 -3.3,-0.52 -4.18,-1.55 -0.36,-0.48 -0.55,-1.03 -0.55,-1.66l0 -36.55 -12.55 0c-0.93,0 -1.72,-0.19 -2.39,-0.58 -1.06,-0.63 -1.59,-1.52 -1.59,-2.69 0,-2.19 1.34,-3.31 3.98,-3.31l12.55 0zm150.51 39.16c-3.48,5.35 -9.21,8.03 -17.15,8.03 -6.93,0 -12.56,-2.14 -16.89,-6.42 -4.62,-4.55 -6.93,-10.56 -6.93,-18.05 0,-6.22 1.83,-11.54 5.49,-15.96 4.56,-5.55 10.58,-8.3 18,-8.3 6.74,0 12.33,2.55 16.78,7.64l0 -4.16c0,-0.9 0.41,-1.66 1.25,-2.26 0.89,-0.7 2.07,-1.05 3.53,-1.05 1.74,0 3.06,0.47 3.98,1.37 0.54,0.53 0.82,1.18 0.82,1.94l0 41c0,0.7 -0.22,1.31 -0.63,1.86 -0.88,1.03 -2.15,1.55 -3.78,1.55 -2.24,0 -3.51,-1.03 -3.85,-3.11l-0.62 -4.06zm-0.56 -16.15l0 -1.13c0,-5.11 -1.66,-9.28 -4.92,-12.57 -2.91,-2.79 -6.41,-4.19 -10.52,-4.19 -4.45,0 -8.05,1.66 -10.78,5 -2.73,3.31 -4.1,7.55 -4.1,12.7 0,4.76 1.09,8.7 3.29,11.86 2.73,3.9 6.63,5.85 11.73,5.85 5.2,0 9.27,-2.19 12.22,-6.56 2.06,-3.09 3.1,-6.74 3.1,-10.96zm-67.63 -41.76l-14.69 9.55c-1.03,0.69 -2.11,1.03 -3.21,1.03 -0.88,0 -1.7,-0.25 -2.46,-0.75 -0.97,-0.61 -1.46,-1.32 -1.46,-2.17 0,-0.82 0.5,-1.62 1.46,-2.37l13.23 -10.62c1.23,-0.97 2.54,-1.47 3.98,-1.47 1.29,0 2.48,0.4 3.53,1.19 1.07,0.81 1.64,1.71 1.64,2.69 0,1.07 -0.67,2.05 -2.02,2.92zm-6.67 21.35l0 40.43c0,0.6 -0.17,1.13 -0.52,1.61 -0.84,1.13 -2.3,1.69 -4.41,1.69 -1.81,0 -3.16,-0.44 -4.09,-1.32 -0.55,-0.53 -0.82,-1.19 -0.82,-1.98l0 -40.43c0,-1.07 0.56,-1.9 1.7,-2.5 0.97,-0.5 2.02,-0.76 3.21,-0.76 1.18,0 2.24,0.26 3.17,0.76 1.16,0.6 1.76,1.44 1.76,2.5z"/>
   <path class="fil1" d="M575.61 1214.51l-254.53 0.64 0.3 21.29c231.44,-7.18 648.68,13.05 845.58,-12.89 245.21,-32.31 394.22,-181.66 439.93,-420.77 24.24,-126.84 14.39,-265.81 -26.95,-380.68 -77.9,-216.47 -236.81,-360.72 -456.73,-403.78 -90.64,-17.75 -320.08,-21.71 -415.53,-15.71l-8.24 26.13c248.4,-4.71 382.36,6.89 525.54,152.97 106.48,108.63 183.43,289.48 175.77,502.08 -7.42,206.06 -95.43,376.82 -215.59,462.13 -116.83,82.95 -283.83,66.76 -441.06,67.26l-148.25 0.89 -20.23 0.43z"/>
   <path class="fil2" d="M591.79 984.17c-15.27,-21.56 -37.98,-134.78 -39.63,-166.18 -2.77,-52.69 -3.12,-149.72 5.87,-200.25 13.32,-2.65 22.85,-0.62 36.92,-5.07 11.11,-3.51 17.53,-11.34 26.4,-10.74 25.28,104.25 0.8,184.27 -16.67,285.65 -4.94,28.67 -6.54,72.47 -12.89,96.6zm6.62 18.42c-3.68,-37.16 17.68,-144.96 26.97,-185.5 7.96,-34.68 6.53,-49.55 30.09,-76.16 13.2,-14.9 33.64,-44.6 47.42,-55.91 -0.69,12.47 -8.73,25.11 -10.76,39.38 -9.65,67.75 33.34,27.73 -28.16,123.36 -52.36,81.43 -52.32,135.02 -65.57,154.82zm-129.7 -336.32c5.04,11.59 3.08,14.33 -9.12,17.34 -1.66,-2.64 -6.46,-1.57 -2.49,-10.67 6.63,-15.15 -0.75,-5.43 11.61,-6.67zm-105.84 -77.79l13.03 -10.94c34.49,3.02 38.6,32.34 43.15,61.89 -27.81,-2.5 -6.37,-13.8 -27.65,-21.21 -7.24,14.72 7.52,12.78 13.55,31.46 -22.16,-4.24 -45.18,-36.61 -42.09,-61.2zm218.58 17.78l34.34 -34.6c10.98,25.3 -13.56,34.16 -34.34,34.6zm183.5 -20.51c-29.91,-0.15 1.66,-29.58 0,0zm-349.23 -39.38c46.17,8.91 61.31,68.56 55.9,109.64 -27.29,-9.14 1.59,-39.9 -28.48,-46.22 -1.64,19.15 18.52,37.46 3.97,55.27 -16.75,-10.81 -16.38,-34.76 -20.63,-55.06 -4.29,-20.47 -11.52,-43.24 -10.76,-63.63zm154.92 53.14c2.68,-18.07 11.62,-35.78 16.61,-53.88 5.17,-18.78 4.16,-46.13 14.83,-60.62 6.64,12.68 14.49,57.08 11.24,71.92 -3.25,14.84 -30,38.87 -42.67,42.58zm211.67 -14.26c22.03,-11.98 56.66,7.7 62.09,-23.22 -31.18,0.86 -25.21,22.07 -60.21,6 -3.72,-17.83 13.57,-22.65 48.68,-41.37 17.26,-9.2 49.08,-25.97 67.62,-23.91 23.41,24.29 -1.12,57.74 -25,70.37 -20.51,10.84 -74.56,25.14 -93.18,12.13zm-19.78 -26.45c-27.37,0.7 -11.98,-46.4 -19.35,-57.83 -12.39,11.68 -4.74,26.7 -8.78,47.95 -14.56,-29.38 -36.57,-129.19 13.42,-135.06 51.34,-6.03 17.07,80.35 15.02,102.47 -1.61,17.38 4.13,26.35 -0.31,42.47zm-149.79 425.05l5.48 -21.34c16.8,-49.22 51.55,-127.74 85.15,-168.16l8.03 1.97 9.56 -1.55 -13.18 -12.2 0.95 -38 -9.54 9.77c0.45,12.23 -1.95,-15.97 -1.93,-17.36 0.52,-36.31 13.47,-37.27 15.42,-63.91 1.04,-14.32 34.45,-50.03 42.96,-68.77 9.15,-2.72 17.87,-8.83 26.37,-9.77 10.48,-1.15 21.57,1.45 35.34,-0.47 117.11,-16.38 108.56,-88.49 87.87,-99.15 -42.65,-11.62 -78.83,32.6 -117.17,39.03 2.21,-24.95 9.64,-6.65 10.65,-28.16 -12.13,1.9 -11.33,7.73 -20.25,17.95 -6.35,-16.25 9.84,-74.59 25.92,-85.29 41.14,-10.09 51.61,24.3 68.2,48.89 -5,-39.73 -41.7,-75.14 -82.82,-49.63 -12.12,-19.08 -17.37,-48 -54.8,-33.83 -22.49,8.52 -29.78,35.7 -31.76,58.1 -6.39,72.25 39.16,125.58 38.61,141.04 -5.15,15.8 -88.46,139.11 -99.77,148.88 -1.27,-30.57 5.24,-51.18 0.78,-88.36 -2.29,-19.15 -9.57,-60.53 -7.42,-77.63l19.56 -15.59c15.26,1.64 7.41,4.67 19.12,0.63l-2.01 -12.6c-21.37,-0.58 -20.39,16.65 -39.88,15.91 -13,-68.46 37.21,-49.8 12.84,-73.77 -15.85,6.36 -7.58,12.11 -19.66,27.17l-19.3 -127.13c1.12,-4.76 -17.53,0.65 -14.54,2.02l11.16 68.04 -13.58 5.56c0.89,39.29 -8.9,89.76 -29.4,123.85 -31.12,-47.02 22.63,-133.95 22.66,-135.77 -8.48,-7.36 -0.32,-5.21 -12.78,-4 -2.45,20.76 1.95,12.15 -9.23,30.5 -19.25,31.61 -13.25,60.72 -14.15,91.03 -12.07,-20.15 -11.92,-84.9 -4.66,-99.9 5.13,-10.61 14.08,-6.58 4.19,-21.96l-7.94 0.57c-8.54,23.8 -5.29,66.51 -7.36,93.33 -15.5,-29.04 -5.59,-51.11 -19.96,-62.99 -4.85,14.58 -0.68,7.08 4.35,23.87l16.73 65.69c-42.3,-46.19 -31.9,-93.14 -36.58,-117.48l-11.98 -0.2c-3.73,8.73 12.26,72.71 18.65,86.19 15.29,32.24 32.17,40.87 47.45,64.77 2.76,35.48 -5.22,94.2 -5.57,133.87 -0.21,23.37 -1.11,47.39 -0.36,70.64 0.66,20.44 5.77,41.12 6.36,60.79 -39.99,-51.68 -37.69,-159.24 -54.57,-193 -11.76,-23.51 -16.09,-16 -13.94,-46.11 1.31,-18.31 5.82,-36.22 -4.3,-51.88 -8.68,-13.44 -54.66,-52.21 -68.62,-55.78 -6.32,12.77 -4.34,22.44 -5.71,36.82 -20.28,-1.36 -34.84,-4.21 -43.8,19.03 -15.49,40.17 35.37,97.6 85.6,79.93 7.08,26.56 10.07,25.01 34.83,15.87 14.99,21.73 27.58,97.07 37.41,128.85 25.07,81.01 71.37,177.51 75.47,255.46 1.69,32.14 -6.92,115.65 -16.26,146.4l-12.06 0.1c-0.09,0 -6.35,20.97 0.01,21.02l34.41 0.32c-0.67,-18.99 0.05,-20.6 -15.37,-23.49 14.36,-91.23 27.94,-52.08 21.14,-172.55 -1.21,-21.51 5.03,-35.62 9,-56.06zm-282.85 -543.38c17.38,4.27 38.87,14.23 51.54,25.32l72.54 30.65c2.55,-29.53 -25.01,-57.34 -49.88,-69.14 -29.82,-14.15 -67.94,-9.94 -99.9,-6.02 2.35,10.51 15.21,15.43 25.7,19.2zm369.31 313.87l9.54 -9.77 -0.95 38 13.18 12.2 -9.56 1.55c16.91,19.23 42.81,7.47 67.05,3.27 0.6,0.38 1.17,5.69 6.99,5.1 15.24,-1.55 7.77,-4.15 9.49,-13.43 -24.07,0.02 -45.66,7.4 -69.41,3 14.46,7.64 52.57,-24.25 58.32,-27.22 15.79,-8.16 12.04,3.87 14.13,-17.93 -17.41,1.61 -7.28,0.08 -21.69,10.33 -5.06,3.6 -10.14,7.09 -15.85,11.28 -12.34,9.08 -26.1,11.14 -38.27,15.68l53.48 -57.42c7.77,-21.88 0.99,-5.7 -3.99,-14.17 -14.5,11.03 -5.33,7.75 -15.37,21.41 -12.17,16.57 -38.86,36.27 -44.28,44.84 6.08,-15.69 10.89,-30.41 23.36,-41.94 5.03,-4.64 12.95,-14.84 17.3,-17.53 14.82,-9.18 11.51,2.2 18.67,-17.23 -16.2,-7.06 -7.52,-7.19 -20.29,4.8 -5.79,5.44 -7.59,6.41 -14.04,10.79 -9.3,6.33 -18.08,16.83 -19.57,27.34 18.9,-61.07 35.43,-25.47 30.03,-56.45 -15.64,2.96 -13.52,10.61 -32.37,34.72 3.7,-13.21 7.18,-17.28 0.57,-27.73 -11.5,14.04 -12.82,38.42 -16.48,56.5zm-342.25 -594.08c0.34,-30.02 -30.31,-78.82 -61.19,-83.04 -21.48,12.63 -39.58,44.47 -13.54,63.65 14.22,10.48 57.3,23.88 74.73,19.39zm24.48 305.54c-12.67,-11.09 -34.16,-21.05 -51.54,-25.32l-14.01 7.81c8.08,10.25 13.36,17.77 21.03,27.32 18.73,23.35 13.73,20.86 37.74,31.23 21.55,9.31 46.24,9.65 64.62,-6.02l-57.84 -35.03zm-7.17 -317.6c18.33,-9 41.62,-59.76 13.07,-82.93 -44.8,0.68 -26.13,59.07 -13.07,82.93zm408 210.05l-23.23 0.25c15.33,-19.42 35.54,-32.83 48.22,-52.77l-4.25 -13.41c-15.35,9.09 -32.27,10.11 -42,25 -11.24,17.2 -10.08,30.34 -3.56,46.35 10.07,1 19.2,3.45 24.81,-5.43zm-238.15 633.65l1.55 9.9c-7.51,-2.54 -55.97,-31.97 -66.06,-39.08 -4.36,11.1 6.04,6.51 -5.51,9.29 0.7,8.82 17.01,29.81 25.86,34.11 23.33,11.34 29.49,5.1 49.99,-1.72l-5.83 -12.5zm263.14 -686.17c-12.68,19.94 -32.89,33.35 -48.22,52.77l23.23 -0.25c28.49,-4.92 42.46,-39.95 40.75,-66.27l-15.76 13.75zm-327.64 657c10.09,7.11 58.54,36.55 66.06,39.08l-1.55 -9.9c-3.63,-32.71 -44.85,-41.36 -72.78,-37.27 3.42,8.08 -3.73,5.29 8.28,8.09zm-199.48 -780.46c17.23,11.97 36.21,0.38 49.03,-12.8 -13.65,-10.01 -53.82,-17.38 -49.03,12.8zm172.73 -83.41l-15.34 -0.28c1.33,-1.52 25.81,-32.54 26.55,-33.88 -2.68,-16.53 -1.34,-6.85 -5.99,-11.95 -25.6,11.37 -36.97,25.87 -21.81,51.41 15.18,-1.18 6.82,0.99 16.59,-5.3zm11.21 -34.16c-0.75,1.34 -25.23,32.36 -26.55,33.88l15.34 0.28c20.5,-6.32 30.35,-28.96 29.02,-48.75l-17.8 14.59zm112.1 709.83c-10.9,11.32 -14.92,17.91 -4.82,30.33 20.35,-4.92 27.67,-13.56 29.96,-35.08l-25.14 4.75zm98.19 149.06c3.86,-15.33 4.95,-12.51 -2.9,-26.42 -18.24,-0.05 -21.15,0.72 -21.72,19.72 13.07,9.75 7.23,6.67 24.62,6.69zm-391.73 -629.57l-22.93 1.36c-4.86,17.43 -1.33,34.53 22.92,20.25l0.02 -21.61zm330.13 689.84c11.34,12.08 8.31,12.23 26.18,7.39l-0.82 -19.3c-13.21,-2.7 -18.31,1.77 -19.88,-9.43l-5.48 21.34zm45.23 10.57c2.52,-9.13 1.37,-7.55 12.16,-9.67l-0.42 14.39 -11.73 -4.72zm-7.78 -3.7c7.06,10.86 3.58,19.71 24.37,11.68 7.41,-12.05 4.78,-16.91 -6.14,-24.44 -11.66,1.58 -12.8,2.1 -18.23,12.76zm-310.46 -646.58c-2.81,-12.96 -3.44,-3.6 2.06,-13.32 16.63,4.23 12.19,14.73 -2.06,13.32zm-1.47 8.36c13,-0.33 11.83,0.48 20.29,-10.43 -0.79,-16.64 -7.48,-23.1 -23.44,-13.33 -6.49,12.65 -4.22,13.21 3.15,23.76zm404.35 564.23c6.48,8.69 8.04,2.81 0.47,13.8 -11.24,-6.01 -11.85,-6.77 -0.47,-13.8zm11.18 0.15c-16.9,-14.22 -30.81,-1.2 -20.84,17.02 11.3,5.99 7.13,5.49 18.35,1.35 6.89,-12.06 4.85,-4.59 2.49,-18.37zm-442.77 -682.43c10.32,2.52 9.94,3.17 5.9,12.39 -7.16,-2.56 -12.97,4.49 -5.9,-12.39zm-1.02 -8.07c-11.38,10.99 -12.94,13.92 -1.76,27.24l18.34 -4.68 -0.02 -16.31 -16.56 -6.24zm391.14 658.56c4.36,-12.07 5.63,-0.11 0.73,-18.55 -17.14,0.18 -23.39,5.39 -16.81,21.33 18.89,0.05 3.68,2.89 16.08,-2.78zm-437.06 -694.61c5.38,10.2 6.81,5.87 -3.19,10.85 -5.54,-9.84 -1.89,-7.35 3.19,-10.85zm8.22 -1.32c-14.63,-11.98 -24.96,0.59 -18.11,15.5 11.13,5.42 10.85,4.5 20.35,-3.59l-2.24 -11.91zm0.7 34.52c-11.89,14.66 -5.92,17.77 10.53,20.18l5.11 -15.21c-8.76,-7.59 -3.91,-6.49 -15.64,-4.97zm494.11 631c-1.02,13.42 2.2,7.76 -8.86,8.71 0.57,-12.46 -4.07,-8.5 8.86,-8.71zm0.85 16.23c7.56,-8.16 7.21,-10.42 2.56,-21.43l-18.13 1.94c-3,12.75 -4.34,7.28 3,18.75l12.57 0.75zm-88.41 77.51c3.12,12.6 3.57,14.22 17.97,12.17l1 -15.93c-11.31,-7.96 -12.52,-5.89 -18.97,3.76zm-353.77 -657.47c-4.75,-1.28 -1.77,-1.97 -8.82,-1.71 -15.34,0.56 -1.04,-0.65 -7.64,3.26 -5.92,11.79 2.31,21.47 17.39,13.02l-0.93 -14.57zm413.08 587.83c-13.44,-0.58 -9.79,-1.96 -16.09,9.86 11,9.14 -0.33,8.06 17.11,9.02 6.54,-12.28 7.97,-6.52 -1.02,-18.87zm-410.56 -516.13c-13.99,-7.26 -19.86,-1.27 -16.69,14.47l15.52 -0.22 1.17 -14.26zm-82.22 -86.76c12.22,2.57 24.6,-15.56 0.21,-18.61 -4.02,8.19 -6.08,8.18 -0.21,18.61zm468.3 115.85c14.36,-1.39 14.53,-0.14 10.33,-16.8 -14.91,1.04 -17.52,3.69 -10.33,16.8zm-362.58 -1.77c8.26,-9.83 6.5,-6.51 0.42,-16.27 -17.59,3.56 -14.21,14.5 -0.42,16.27zm280.8 616.45c-13.74,-1.49 -15.12,0.43 -11.21,14.81l11.95 -0.66 -0.74 -14.15zm38.7 -581.02l13.69 -0.68c1.73,-10.97 3.28,-6.54 -4.94,-14.68 -9.61,4.35 -9.43,1.87 -8.75,15.36zm-15.63 538.99c5.57,-12.94 4.05,-19.71 -11.17,-12.11 1.85,12.95 -3.6,7.34 11.17,12.11zm106.55 -134.42c0.91,-15.07 0.13,-11.86 -12.06,-12.05 -1.53,13.39 -0.88,13.89 12.06,12.05zm-128.01 226.58c6.42,-15.06 3.89,-14.84 -9.39,-11.76 -5.04,12.38 0.37,9.08 9.39,11.76zm-410.95 -876.57l-2.02 14.55c14.08,-1.12 12.08,1.19 13.84,-10.52l-11.82 -4.03zm475.4 735.95c12.68,0.02 15.16,0.12 9.29,-13.4l-10.04 1.47 0.75 11.93zm-409.73 -639.6c4.52,-9.52 7.15,-2.32 -1.08,-13.65 -9.28,2.93 -8.2,1.81 -9.28,13.24l10.36 0.41zm11.06 65.85c10.91,0.97 18.76,1.85 9.47,-12.26 -11.66,2.25 -8.45,0.56 -9.47,12.26zm-67.18 -110.13c10.94,-3.41 9.22,2.02 9.3,-12.3 -11.58,0.12 -16,-0.22 -9.3,12.3zm492.34 624.2l6.79 -10.53 -11.88 -4.9c-3.93,12.69 -3.85,7.28 5.09,15.43z"/>
   <path class="fil2" d="M524.34 378.46c-1.53,-1.26 -1.67,-3.33 0.2,-2.81 1.42,0.39 2.18,2.46 -0.2,2.81zm-3.52 -7.22c0.88,0.53 0.32,0.17 0.89,0.94 0.88,1.21 1.43,0.57 1.19,1.93 -0.13,0.71 -0.3,0.73 -0.96,0.85 -2.23,0.39 -3.14,-2.51 -1.12,-3.72zm-4.81 -5.49c3.69,-1.57 2.11,3.1 1.51,4.26l-0.97 -1.94c-0.3,-0.78 -0.6,-1.44 -0.53,-2.32zm-9.24 -13.78c-0.85,-0.75 -0.67,-1.29 -1.62,-2.26 -1.17,-1.19 -0.88,-1.36 -1,-2.96 -0.12,-1.57 -1.88,-0.99 -0.47,-2.65 0.75,-0.89 1.81,-1.15 2.97,-1.1 1.01,1.49 2.1,7.83 0.12,8.97zm10.48 -55.02c-1.47,-1.82 -1.38,-8.91 0.36,-9.69 1.16,1.15 0.77,3.6 0.62,5.16 -0.12,1.28 -0.22,3.73 -0.98,4.53zm-162.18 -34.7c-0.33,2.77 2.89,43.2 0.1,41.38 -2.19,-1.43 -1.33,-37.19 -0.1,-41.38zm164.41 2.79c-0.37,-1.69 -0.05,-1.19 0.5,-2.35 0.35,-0.73 0.32,-1.89 0.62,-2.34l4.1 -1.44c0.25,0.76 0.26,1.22 0.07,2.06 -1.14,0.27 -1.69,0.02 -2.69,0.52 -0.05,1.86 0.26,2.81 -1.24,4.01l-1.36 -0.47zm13.48 -14.93c0.25,-0.62 0.21,-0.57 1.02,-0.91 3.09,-1.32 2.56,2.51 -0.05,1.66 -1.02,-0.33 -0.65,-0.12 -0.96,-0.75zm-179.53 -13.04l1.46 -0.13c6.64,7.11 7.49,17.34 6.47,26.98 -0.36,3.34 -2.73,30.56 -2.75,30.6l-5.18 -57.45zm140.01 115.21c-0.89,0.3 -10.84,4.6 -10.96,4.69 -0.02,0.02 -6.11,7.36 -7.13,8.45 -1.09,1.17 -4.49,2.44 -5.79,1.36 -0.87,-0.71 5.7,-6.21 6.99,-15.03 0.75,-5.11 -3.09,-20.26 -4.79,-25.64 -1.27,-4 -1.22,-9.29 -1.92,-13.42 -0.67,-3.94 -2.36,-5.42 -2.98,-11.51 -0.64,-6.26 -3.69,-19.03 -5.77,-24.96 -1.42,-4.08 -0.57,-9.92 -2.3,-13.28 -4.44,-8.65 -2.59,-19.74 -7.39,-22.31 -2.01,-1.08 -13.08,0.85 -9.82,-1.67 5.95,-4.6 2.77,-0.7 7.97,-7.36 1.27,-1.62 2.94,-2.26 3.51,-4.34 0.04,-0.14 0.85,-6.61 1.07,-6.1 0.27,5.37 3.84,31.63 6.42,35.13 1.64,2.23 1.73,6.03 1.92,8.77 0.36,4.93 1.45,4.47 2.46,8.24 0.82,3.02 0.54,6.59 1.04,9.67 0.5,3.06 2.2,4.16 2.56,7.89 0.62,6.43 3.29,13.17 3.58,17.85 0.52,8.54 3.06,10.57 3.77,17.39 0.64,6.17 3.6,10.27 4.08,17.26 0.62,9.23 3.97,8.26 11.95,8.47l1.56 0.47zm13.12 -67.91c2.1,0.61 -2.54,18.05 -2.68,20.95 -0.43,8.85 -0.34,15.7 0.34,24.49 1.28,16.7 -2.78,2.5 -4.43,-3.04 -1.86,-6.29 -1.1,-17.24 -1.16,-24.1 -0.14,-16.09 -0.74,-31.77 0.2,-47.95 0.2,-3.34 -0.4,-8.93 1.42,-11.61 3.71,-5.46 0.89,-6.17 2.74,-9.94 0.49,-0.99 4.15,-7.9 4.25,-7.82 3.45,2.32 -2.1,7.98 -2.4,8.68l3.37 15.08 -4.89 0.41c-3.46,1.39 -4.55,37.99 0.77,39.94l2.47 -5.1zm143.87 -79.02c4.44,-1.61 2.14,2.66 6.53,-1.71 3.33,-3.3 2.39,-0.31 2.34,3.44 2.88,0.16 2.85,-0.15 4.28,0.8l-3.4 10.74 -0.98 -0.43 1.92 2.65 4.6 -0.78c0.51,0.54 0.92,5.17 1.07,6.22l0.17 -0.88c1.36,0.25 2.86,5.69 3.42,7.06 1.86,4.64 2.7,1.6 6.36,2.26 1.11,5.46 -1.28,11.11 1.29,16.49 2.63,5.49 2.67,7.89 4.78,12.77 2.04,4.72 4.89,25.13 5.35,30.91 0.96,11.98 0.16,22.5 -0.38,34.41 -0.32,6.96 -3.31,5.4 -3.71,13.99 -0.07,1.49 -4.11,12.98 -4.67,13.09 -2.9,-2.54 4.29,-23.53 4.92,-27.48 2.05,-12.72 0.73,-20.44 0.49,-32.68l-0.32 1.78c-1.61,-11.76 -7.82,-24.19 -13.89,-34.02 -0.96,-1.56 -1.9,-1.89 -2.9,-3.1 -1.51,-1.83 -0.55,-3.08 -1.35,-3.86 -2.36,-2.29 -3.36,-2.84 -5.36,-5.72 -0.85,-1.22 -5.81,-4.2 -6.07,-5.57 -0.43,-2.22 -4.28,-2.1 -7.3,-3.13 -0.05,-0.92 0.04,-2.79 -0.37,-3.53l5.39 -1.19c3.53,-3.18 -8.04,-13.27 -10.66,-14.46 -2.61,-1.19 -7.25,-1.96 -7.54,-5.78 -0.14,-1.72 -1.78,-10.41 -1.75,-10.61l0.55 -0.91 11.24 6.88 -0.52 0.82 10.92 -0.01 0.7 -4.21 -4.86 0.74c-0.71,-0.69 -0.61,-3.85 -0.28,-5zm-299.03 48.77c-0.47,-6.15 0.87,-11.51 -3.21,-15.75 -0.64,-0.66 -3.95,-12.06 -4.12,-13.65 -0.89,-8.64 -0.43,-24.4 6.78,-30.12 2.19,-1.74 6.21,-9.65 6.58,-12.38 1.07,-7.85 8.98,0.61 12.68,-2.35 1.24,-0.99 2.78,-5.62 3.53,-2.4 0.62,2.69 -0.31,5.37 -0.98,7.96 -1.87,7.22 -1.94,6.93 -1.83,14.97 0.45,0.65 3.61,1.19 2.01,4.34 -1.51,2.97 -2.49,1.57 -2.7,6.07 -0.22,4.62 0.09,11.87 1.1,16.36 0.56,2.46 2.04,3.57 2.37,6.49 0.27,2.39 0.22,5.21 0.69,7.57 0.52,2.68 2.71,8.58 3.65,12.75 1.38,6.12 2.14,7.98 2.87,14.69 0.6,5.48 2.91,8.85 3.61,13.93 0.82,5.93 3.9,23.87 6.01,28.64 2.21,4.98 -0.45,8.97 2.59,14.63 2.69,5.02 0.99,10.67 2.91,14.66 3.85,8.02 2.57,16.6 8.77,24.36 8.36,10.48 9.24,11.37 23.7,11.36 5.84,-0 10.19,0.28 15.36,-2.32 2.28,-1.15 11.84,-2.06 13.98,-0.99 -0.15,0.85 -15.22,4.73 -17.48,5.05 -7.28,1.04 -13.98,0.5 -21.25,0.59 -12.84,0.15 -20.91,-10.73 -22.37,-22.75 -0.5,-4.12 -3.35,-12.5 -5.97,-15.35 -3.13,-3.41 -11.11,-4.98 -15.3,-7.95 -5.85,-4.14 -7.72,-4.1 -11.96,-10.74 -1.8,-2.82 -8.07,-13.65 -4.52,-16.14l2.52 7.31 0.78 -0.07 -0.19 -57.43 1.18 -0.22c-0.05,-6.33 -2.73,-17.35 -7.21,-21.97 -5.84,-6.02 -3.13,20.88 -4.54,20.85l-0.03 0zm24.66 -78.98c-1.92,-2.33 -1.27,-2.44 0.01,-6.54l1.54 0.06c0.16,2.73 -0.07,4.26 -1.54,6.47zm217.34 247.32l1.96 0.45 -5.66 -20.84 1.19 -0.37c-0.98,-2.41 -30.1,-7.82 -35.3,-10.9 -9.08,-5.39 -17.38,-12.86 -24.07,-20.96 -4.3,-5.2 -5.82,-7.48 -9.57,-12.85 -2.76,-3.95 -1.53,-6.28 -3.08,-8.55 -4.47,-6.54 -1.19,-3.55 -3.16,-8.42 -1.9,-4.68 -2.29,-1.07 -2.95,-8.64 -0.32,-3.73 -0.61,-7.08 -0.75,-10.84 -0.11,-2.74 -0.35,-20.52 2.61,-20.71l2.14 35.05 4.05 -0.32c2.73,7.64 9.68,18.95 11.31,25.66 0.36,1.49 2.83,2.39 4.8,4.73 1.72,2.05 2.38,4 4.2,5.59 1.87,1.64 5.07,2.45 4.88,4.3 -0.22,2.17 2.28,3.59 3.56,5.09 1.86,2.18 2.28,3.77 4.56,1.01 1.19,-1.44 3.62,1.46 5.42,2.6 1.91,1.21 10.87,5.32 13.26,6.29 9.07,3.68 21.28,4.73 31.3,4.49l1.23 1.45 42.62 -18.38 0.55 1.29c3.4,-5.1 2.39,-1.7 6.07,-6.22 1.56,-1.91 4.69,-0.88 -0.49,4.46 -1.13,1.16 -5.25,3.97 -6.91,5.29 -1.5,1.2 -1.22,2.5 -2.96,3.03 -2.66,0.81 -2.16,-0.49 -4.34,1.97 -2.83,3.19 -12.31,5.81 -16.74,8 -4.91,2.42 -4.52,1.75 -9.7,2.31 -0.25,0.02 -7.43,3.48 -8.43,4.03l1.2 21.13 0.78 -0.22c-0.02,-13.52 -4.24,-16.95 11.48,-16.95l-4.68 -3.01c2.41,-3.75 17.24,-7.85 22.48,-11.3 7.32,-4.82 13.38,-7.29 19.47,-14.37 2.24,-2.6 5.79,-6.29 7.34,-9.43 0.75,-1.53 5.42,-9.84 6.19,-10.71 1.79,-2.03 1.4,-4.25 1.76,-6.73 0.48,-3.35 2.51,-2.16 2.78,-5.67 0.27,-3.6 1.01,-12.97 -0.67,-15.81 -1.74,1.5 -1.87,10.77 -2.8,13.72 -0.6,1.89 -4.11,9.68 -5.1,11.36 -4.04,6.82 -8.56,13.28 -14.01,19.16l-3.24 -2.12c-10.29,11.87 -34.98,21.84 -50.62,22.03 -8.03,0.1 -21.6,-4.06 -29.07,-7.18 -9.78,-4.08 -14.45,-7.07 -22.59,-13.7 -5.26,-4.29 -12.73,-14.42 -15.66,-20.62 -5.41,-11.46 -5.82,-17.8 -9.35,-26.96 -2.86,-7.43 -4.44,-3.75 -3.88,-14.45 0.3,-5.58 1.67,-10.16 2.36,-15.67 1.08,-8.58 9.9,-19.58 9.52,-25.31 -7.76,6.51 -14.12,20.43 -16.17,30.31 -3.43,16.55 -4.05,23.75 0.37,40.21 1.96,7.29 10.6,25.35 15.57,30.8 0.74,0.81 11.01,10.95 11.19,11.07 0.54,0.34 12.03,10.22 12.11,10.35 -9.55,1.8 -24.33,-14.85 -30.08,-21.98 -6.75,-8.37 -14.12,-27.73 -16.25,-38.31 -6.3,-31.27 6.81,-58.2 29.91,-78.14 9.06,-7.82 24.65,-14.69 35.82,-18.95 10.72,-4.08 34.04,-4.32 45.52,-2 24.46,4.95 53.5,24.22 60.65,49.42 8.75,16.9 7.4,34.26 4.23,52.28 -0.7,4 -1.91,8.72 -3.05,12.63 -0.6,2.05 -0.56,4.91 -1.33,6.4 -1.03,1.99 -1.77,2.78 -2.53,5.1 -1.29,3.91 -10.93,18.67 -10.29,20.44l6.77 0.63 0.89 -1.6c-1.9,0.03 -5.21,0.51 -6.71,-0.38 0.89,-0.68 0.43,-0.43 1.76,-0.45 -0.09,0.71 -0.05,-0.06 -0.04,-0.08 0.45,-0.54 0.88,-0.4 1.38,-0.8l0.29 -3.43c1.81,-0.78 3.37,-1.49 3.33,-4.59 -0.03,-2.67 0.45,-1.99 1.02,-2.17 0.7,1.1 0.21,3.14 0.37,4.51 0.13,1.05 0.33,2.61 1.28,3.01l1.82 -2.68c-0.89,-4.25 3.96,-12.68 6.2,-16.92 1.49,-2.81 4.95,-15.18 5.51,-18.55 2.06,-12.45 2.44,-32.04 0.82,-44.56 -1.12,-8.63 -5.47,-31.98 -8.78,-39.32 -7.02,-15.54 6.12,-23.5 3.1,-39.4l0.02 -0.51 -11.34 -0.42c-0.04,1.02 5.4,7.68 5.63,8.43 0.87,2.84 1.04,10.53 -1,12.53 -5.35,2.39 -12.43,-18.3 -11.01,-22.4l5.07 -0.65 -0.26 -1.2c-2.73,-0.73 -6.79,-0.39 -8.64,-2.95 -1.17,-1.62 1.48,-6.53 -3.21,-7.71 -2.76,1.47 -3.03,10.34 -9.7,2.81 -0.01,-0.01 -9.48,-6.91 -10.32,-7.5 -4.81,-3.34 -20.2,-8.38 -26.22,-9.64 -7.63,-1.6 -5.72,-0.3 -13.03,-3.23 -0.67,-0.27 -14.86,-0.53 -16.86,-0.52 -0.71,0 -12.92,2.8 -14.82,3.2 -5.33,1.12 -2.22,-0.61 -6.17,2.72 -1.24,1.05 -7,0.57 -6.97,1.99 0.42,2.72 20.54,-2.47 24.19,-2.61 9.98,-0.36 16.98,-0.12 26.68,0.74 5.41,0.48 16.5,5.38 22.1,7.08 3.19,0.97 16.76,9.87 17.43,11.93l0.02 -0.1 2.53 4.4c-3.38,4.08 -6.27,-0.64 -11.23,-2.48 -22.62,-8.4 -15.39,-9.17 -43.78,-8.62l2.39 7.03c4.62,-4.02 2.82,-4.14 7.24,0.59 4,-4.05 2.55,-3.82 8.2,-0.42 3.53,2.12 -0.71,11.03 2.84,11.15l0.35 -10.23 4.65 -0.22c-0.03,0.88 1.86,2.39 0.05,8.95 -1.4,5.07 4.6,3.67 4.63,3.68l-0.5 0.05 -0.96 -10.76 1.89 -0.17c1.84,0.77 1.57,3.36 3.63,3.66 2.03,0.31 2.75,-1.56 4.13,-0.28 4.55,4.23 -2.89,7.58 -3.36,8.2 1.44,3.28 22.6,7.93 21.54,17.66 -3.1,2.13 -13.92,-3.32 -17.63,-4.65 -5.47,-1.95 -12.87,-4.17 -18.63,-4.57 -10.7,-0.74 -32.6,-1.41 -42.25,2.84 -12.66,5.59 -20.13,5.59 -32.71,14.71 -3.08,2.24 -11.19,7.53 -13.2,10.39 -1.65,2.36 -8.82,10.84 -10.96,12.85l-0.44 0.26 -8.94 16.86 -2.32 -0.63 -0.15 -31.22 2.09 -0.28 3.13 8.55 3.17 -0.14 3.12 -7.4 0.77 0.32 -0.27 -3.77c-0.07,-0.02 -4.76,6.28 -5.4,0.37 -0.2,-1.87 1.14,-7.68 1.79,-9.16 0.74,0.24 3.18,1.31 3.78,1.04l1.52 -7.5 -1.56 -0.92 -3.78 5.1c-1.94,-2.04 -2.22,-2.81 -4.02,-3.51l16.38 -28.83 0.58 0.33c-3.68,-4.08 -19.53,18.81 -20.67,23.08 -3.93,14.75 -6.68,22.25 -6.69,38.25 -0.01,14.9 0.45,29.96 0.2,44.8 -0.08,4.8 2.25,14.06 3.46,19.02 1.48,6.1 5.38,14.35 -2.91,15.8 -5.69,0.99 -13,5.09 -15.14,-3.52 -1.35,-5.44 -3.24,-12.83 -4.31,-18.18 -1.31,-6.59 -3.22,-11.82 -4.02,-18.46 -0.84,-6.96 -3.16,-11.76 -3.87,-18.59 -0.98,-9.46 -5.59,-27.09 -8.85,-36.16 -1.72,-4.78 -4.04,-35.8 -6.51,-36.46 -3.28,4.05 0.71,8.04 -4.33,13.49 -3.14,3.4 -5.71,5.86 -9.89,7.92 -4.82,2.36 -7.75,3.78 -13.26,4.54 -2.78,0.38 -12.27,2.09 -13.39,4.21 28.07,3.62 38.81,-16.81 41.79,5.73 0.89,6.76 3.73,17.12 5.27,24.27 1.72,8.03 3.34,16.15 5.26,24.13 2.09,8.73 9.68,42.42 9.25,49.41 -1.14,18.42 -21.14,20.37 -35.8,23.29 -18.49,3.68 -32.41,0.3 -37.12,-19.48 -3.77,-15.86 -7.41,-31.9 -11.29,-47.7 -3.8,-15.47 -7.58,-33.19 -10.17,-48.87 -2.23,-13.48 -10.95,-35.89 -7.71,-48.68l4.07 2.5 0.24 -0.38c3.42,-2.18 -3,-7.06 -3.43,-12.55 -0.46,-5.72 0.27,-11.46 1.53,-17 0.89,-3.97 4.4,-8.54 5.98,-12.47 1.54,-3.8 7.25,-5.67 7.31,-10.72 -1.54,-0.37 -9.8,5.38 -11.24,7.63 -2.68,4.2 -2.89,9.05 -8.14,11.14 -4.28,1.72 -9.55,0.5 -12.93,4.41 -2.68,3.1 -3.83,8.78 -6.76,12.85 -15.34,21.22 -0.1,42.14 1.96,63.75 2.09,21.87 -2.82,46.42 11.44,65.96 7.54,10.33 12.34,10.79 22.74,16.45 9.96,5.42 9.31,16.64 13.02,25.97 8.82,22.2 38.93,15.33 56.54,10.14 14.51,-4.28 14.27,-4.6 25.38,-13.86 4.91,-4.1 19.21,-12.98 25.05,-7.74 3.15,2.83 5.14,8.49 7.58,12.12 2.64,3.93 5.7,7.16 8.81,10.69 7.21,8.19 11.88,12.02 21.08,17.87 6.01,3.83 21.55,8.9 28.69,10.49 13.9,3.09 20.59,-1.61 21.97,16.56zm129.52 -169.61c0.31,0.9 0.42,3.59 -0.03,4.47l-0.81 0.97c-0.7,-0.51 -0.99,-1.19 -1.02,-1.91 -0.01,-0.24 0.02,-0.89 0.04,-1.16 0.08,-1.41 0.26,-2.83 1.83,-2.38zm-18.46 -29.15c-0.8,-1.04 -1.25,-11.98 -1.32,-14.32 -0.04,-1.07 -0.62,-4.53 1.1,-4.25 2.03,0.32 1.35,7.51 1.34,9.14 0,2.03 0.76,8.43 -1.12,9.43zm-3.51 -39.07l0.87 2.21c0.68,0.23 -0.92,-0.61 0.27,-0.43 -0.08,2.7 0.06,5.54 0.02,8.27 -0.02,1.19 -0.3,6.29 -1.24,7.4 -0.8,-1.99 -1.38,-10.97 -1.36,-13.65 0,-0.83 0.1,-2.56 0.6,-3.24 0.68,-0.92 -0.05,-0.36 0.83,-0.56zm12.7 -26.48c-0.02,-0.33 0.62,-3.23 0.88,-3.58 1.59,-2.11 2.9,4.25 1.16,5.44 -1.54,1.06 -1.99,-1.21 -2.04,-1.86zm-14.24 -4.9c-0.41,-5.49 1.54,-9.18 5.68,-3.23 2.02,2.9 3.78,7.68 5.17,11.03 1.85,4.48 2.44,6.89 5.15,11.11 2.66,4.16 4.33,6.84 4.35,12.02 0.04,7.54 -4.51,12.68 -0.62,21.21 1.23,2.69 1.25,3.83 1.52,6.72 0.5,5.41 2.38,3.64 3.6,12.65 0.92,6.73 1.94,7.03 0.46,14.22 -0.51,2.48 -2.23,10.47 -6.31,9.03 -1.84,-0.65 -2.06,-4.17 -2.11,-5.77 -0.09,-2.86 -0.19,-4.3 -1.11,-7.04 -1.84,-5.44 -1.66,-8.35 -2.53,-13.74 -0.76,-4.72 -2.41,-8.38 -2.92,-13.33 -0.88,-8.47 -2.21,-7.92 -3.13,-13.12 -0.84,-4.71 -0.45,-9.96 -1.58,-14.76 -0.49,-2.08 -1.38,-4.01 -1.91,-6.08 -0.59,-2.28 -0.78,-4.77 -1.11,-7.11 -0.6,-4.23 -2.32,-9.98 -2.6,-13.82zm-76.16 -2.24c-0.44,0.31 -3.34,1.32 -4.25,1.62 -2.7,0.91 -1.69,2.25 -2.88,3.08 -0.51,0.36 -0.99,0.25 -1.74,1.16 -0.65,0.79 -0.45,1.15 -1.46,1.64 -1.24,0.6 -4.15,0.65 -5.22,-0.2 -0.1,-0.97 0.44,-3.06 0.44,-4.39 0,-1.65 -0.38,-3.24 0.87,-4.2 0.99,0.31 3.04,1.9 3.97,1.98 0.87,-0.36 0.02,-0.17 1.23,-0.78 0.92,-0.47 0.6,-0.1 1.07,-1.19 0.77,-1.78 0.54,-1.31 0.75,-3.49 0.05,0.05 0.11,0.06 0.13,0.16l1.13 1.68c1,1.69 2.91,1.4 4.11,2.09 1.13,0.65 -0.11,0.18 0.68,0.51 0.57,0.23 0.47,-0.08 1.17,0.32zm101.84 13.92c-0.68,-0.61 -2,-4.81 -2.28,-5.9 -0.28,-1.13 -5.71,-7.73 -6.76,-10.2 -0.74,-1.74 -0.15,-4.95 1.82,-5.84 2.52,-1.13 7.07,6.49 7.84,8.41 0.96,2.4 2.69,13.04 -0.62,13.53zm-126.53 -42.69c1.1,3.16 -0.32,6.95 1.32,10.28 0.06,0.12 0.89,1.26 1.19,1.69 0.42,0.62 0.84,0.7 1.2,1.69 0.36,0.99 0.48,4.67 0.02,5.49 -0.92,-0.44 -0.57,-3.36 -3.21,-4.97 -0.7,-0.43 -2.41,-0.42 -3.46,-0.8 -0.58,-0.21 -2.13,-1.47 -2.24,-2.03 -0.15,-0.78 2.62,-4.28 3.08,-5.32 0.77,-1.74 0.34,-6.34 2.09,-6.04zm86.84 5.57c3.7,2.36 8.5,20.81 9.82,25.56 1.34,4.83 1.37,8.91 3.03,14.08 0.64,1.99 1.34,14.51 -0.55,14.52 -0.99,0 -1.77,-5 -1.97,-5.82 -0.68,-2.76 -1.77,-3.68 -2.72,-6.04 -0.85,-2.12 -1.34,-4.5 -2.41,-6.51 -0.75,-1.43 -7.14,-8.47 -8.47,-9.35 -6.6,-4.36 -10.28,-6.08 -18.4,-8.25 -3.97,-1.06 -10.98,-0.45 -15.44,-0.52 -5.3,-0.1 -11.44,-0.14 -16.66,0.7 -3.95,0.64 -12.08,2.48 -13.04,-3.05 -0.63,-3.65 -0.04,-12.23 4.18,-13.64 3.34,-1.12 26.44,0.92 31.79,0.95 5.69,0.02 10.96,-0.25 16.56,-1.28 3.91,-0.72 10.71,-3.6 14.29,-1.33zm40.27 60.39c-0.99,0.5 -2.5,0.47 -3.8,0.45 -0.95,-3.78 -0.98,-9.18 -1.12,-9.81 -0.27,-1.21 -2.02,-2.86 -2.39,-4.02 -0.47,-1.5 -0.88,-4.47 -1.41,-5.45 -2.75,0.07 -2.29,0.28 -2.78,-2.26 -0.32,-1.64 -1,-2.7 0.52,-3.9 2.97,0.43 0.46,3.57 3.84,5.37 3.33,-2.62 2.84,-1.2 3.36,-5.74 0.61,0.67 0.6,1.96 1.02,2.96 0.46,1.08 -0.02,0.06 0.36,0.36 0.34,0.26 0.32,1.39 2.23,2.41 2.39,-1.75 1.91,-2.81 2.51,-5.63 0.66,-3.08 0.53,-8.71 -0.58,-11.45 -0.68,-1.68 -1.09,-1.31 -1.84,-2.39 -0.92,-1.34 -0.7,-1.81 -1.04,-3.28 -0.44,-1.91 -1.3,-0.71 -1.21,-2.93 -1.99,-0.87 -2.95,-2.51 -5.31,-1.92 -1.53,0.38 -1.64,0.7 -2.63,1.59 -0.71,0.64 -1.92,0.69 -2.62,1.57 0.37,1.34 0.53,0.28 0.65,1.77 0.08,0.92 -0.2,1.36 0.27,2.16 0.77,1.3 1.93,1.32 1.7,3.4l-2.56 0.82 -0.73 7.86c-0.28,0.12 0.3,-0.31 -0.65,0.45 -0.45,-1.04 -1.44,-4.36 -1.58,-5.39 -0.48,-3.6 -1.96,-1.2 -2.74,-4.6 -0.51,-2.19 -2.02,-2.47 -2.81,-4.09 -0.97,-1.99 -0.95,-0.74 -1.73,-2.04 -0.85,-1.4 -0.1,-1.47 -1.86,-1.88 -2.81,2.48 -1.71,11.11 -3.34,13.35 -1.21,-1.56 -1.33,-7.41 -2.14,-9.05 -1.55,-3.11 -1.23,1.28 -2.47,-8.18 -0.4,-3.01 -0.98,-2.83 -2.61,-5.03l-0 -3.88c2.99,0.24 3.52,0.42 6.3,-0.71 1.47,-0.6 3.28,-1.88 4.58,-1.98 1.06,-0.08 2.93,0.65 3.65,1.41 1.82,1.91 -1.18,3.79 7.66,6.63 1.49,0.48 5.19,1 5.95,1.38 2.04,1.02 0.3,1.87 4.15,2.79 2.85,0.68 2.83,0.72 4.39,2.95 1.21,1.74 1.9,1.64 3.21,4.13 0.48,0.91 0.62,1.67 1.01,2.55 0.42,0.94 1.11,1.4 1.51,2.26 1.54,3.37 -1.87,8.26 -2.06,12.24 -0.11,2.28 -0.38,4.43 -0.66,6.69 -0.22,1.86 0.08,5.05 -1.06,6.31 -2.04,2.26 -1.52,2.41 -2,5.33 -0.35,2.14 -0.75,4.29 -1.12,6.43zm-52.75 -74.45c1.74,2.19 1.81,5.48 0,7.38 -2.28,-0.07 -3.11,-0.9 -4.05,-2.56 -1.95,0.06 -1.23,0.64 -2.53,0.99 -1.49,0.41 -1.13,-0.18 -2.86,0.73 -2.85,1.49 -2.22,0.01 -4.94,-0.8 0.03,-0.1 1.84,-3.39 1.95,-3.56 0.45,-0.68 0.2,-0.22 0.72,-0.65 0.91,-0.75 -1.03,-0.52 2.4,-0.97 1.76,-0.23 3.38,0.02 5.02,0.42 0.73,0.18 2.09,-1.17 4.3,-0.99zm6.64 -8.48c0.49,0.58 0.54,1.89 0.72,2.04 0.14,0.11 0.4,-0.94 0.8,1.74 0.27,1.83 0.15,3.33 1.34,4.84 2.39,3.01 0.39,2.66 1.81,7.33 0.5,1.66 0.17,0.95 1.39,1.75 -1.61,1.12 -3.01,0.78 -4.96,0.76 -1.02,-0.01 -4.62,0.21 -5.22,0.07 -0.68,-1.6 1.08,-6.95 0.67,-8.53 -0.12,-0.46 -0.22,-1.3 -0.25,-1.43 -0.13,-0.56 0.11,0.39 -0.4,-0.57 -0.96,-1.78 -1.9,-6.15 1.83,-6.71 1.81,-0.27 1.19,-0.7 2.28,-1.29zm-81.49 0.34c0.11,-1.45 2.27,-4.28 3.88,-3.95 1.36,0.27 2.14,3.54 3.22,4.85 1.97,2.4 4.77,7.91 5.65,10.89 1.91,6.48 1.91,0.95 3.62,12.88 0.83,5.79 0.77,9.57 0.43,15.38 -0.1,1.77 -0.73,5.34 -3.39,3.85 -1.35,-0.76 -2.79,-3.39 -3.62,-4.71 -0.97,-1.57 -2.43,-3.48 -3.16,-5.08 -0.88,-1.91 -0.9,-4.15 -1.91,-6.33 -1.32,-2.86 -2.02,-2.01 -2.43,-5.84 -0.28,-2.62 -0.73,-4.48 -1.19,-6.99 -0.42,-2.27 0.21,-5.2 -0.03,-7.78 -0.18,-1.99 -1.22,-5.27 -1.08,-7.14zm49.62 -6.26l10.96 -0.01 0.95 2.65c-0.72,0.35 -0.63,0.6 -1.54,0.83 -0.71,0.18 -1.43,0.14 -2.2,0.32 -1.68,0.39 0.07,0.49 -3.19,1.23 -1.91,0.44 -1.52,-0.61 -3.42,-1.19 -1.22,-0.37 -2.44,-0.82 -3.6,-1.32 0.47,-1.31 1.29,-1.46 2.03,-2.5zm-54.01 -0.65c-0.34,-3.11 -0.68,-2.01 -1.22,-4.2 -0.27,-1.08 -0.43,-3.41 -1.07,-4.05 -0.82,-0.82 -2.93,-0.92 -4.05,-0.01 -2.73,2.21 -1.52,2.69 -2.56,7.71 -0.35,1.67 -1.51,1.55 -2.3,2.77 -1.32,2.05 -0.63,1.85 -3.56,1.81 -1.19,-0.01 -3.23,0.22 -3.21,-1.47 0.02,-0.93 2.23,-6.3 2.88,-7.14 2.71,-3.51 1.74,-4.6 1.66,-8.85 -0.02,-0.95 0.05,-3.67 1.5,-1.77 2.7,3.5 1.09,0.22 12.03,3.68 1.08,0.34 4.92,3.52 5.44,4.6 0.83,1.71 1.1,1.19 2.55,2.12 1.64,1.06 0.84,2.09 1.54,3.51 0.58,1.17 1.91,1.22 2.79,2.36 0.77,0.99 0.99,2.18 1.83,3.29 1.05,1.39 1.45,1.35 2.19,3.12 0.76,1.81 1.28,1.56 2.4,2.78 1.48,1.62 2.56,4.53 5.1,5.22 8.28,2.26 1.74,-10.46 10.07,-9.79 0.57,1.31 1.56,4.72 2.3,5.37 1.86,1.64 2.86,-0.43 5.42,2.31 -0.1,2.23 -0.75,4.74 -0.99,7.1 -0.26,2.41 -0.17,5.3 0.48,7.21l-1.01 1.29c-2.52,-0.1 -8.44,-0.48 -10.59,-0.08 -1.41,0.25 -3.62,0.25 -4.5,1.21 -0.53,0.58 -1.79,2.88 -1.68,3.38 -0.01,-1.1 0.62,-1.62 -0.22,-2.44l-0.77 3.08c-0.03,-1.37 -0.86,-10.89 -1.46,-11.95 -0.4,-0.71 -1.79,-1.08 -2.14,-1.79 -0.83,-1.71 -0.48,-5.22 -2.39,-6.64 -1.92,-1.43 -1.56,-4.48 -2.59,-6.29 -1.01,-0.54 -1.66,-0.24 -2.21,-1.3 -0.41,-0.8 -0.63,-1.57 -1.14,-2.41 -1.22,-2.03 -0.38,-4.07 -3.47,-2.72 -0.95,0.42 -1.88,0.79 -2.34,1.32 -1.02,1.17 -1.96,3.36 -2.2,4.77 -0.18,1.04 -0.47,1.38 -1.2,2.03l-1.28 -9.14zm-21.06 -17.64c2.57,-0.5 2.14,-0.35 3.9,1.09 2.35,1.92 2.09,7.09 1.61,8.62 -0.68,2.17 -10.12,1.06 -10.25,-3.85 -0.1,-3.67 1.31,-5.2 4.73,-5.86zm-146.55 65.64c1.13,-0.01 11.92,-1.22 13.18,-1.61 1.35,-0.41 2.04,-1.26 3.21,-1.69 1.83,-0.68 6.07,-0.64 8.55,-1.22 2.66,-0.63 5.02,-1.68 7.76,-2.24 2.72,-0.56 5.47,-1.06 8.19,-1.61 2.78,-0.55 4.38,-1.7 7.55,-2.22 2.85,-0.47 5.34,-1.17 8.22,-1.57 2.76,-0.38 4.89,-1.78 7.73,-2.3 2.7,-0.49 5.04,-0.98 7.33,-2.58 2.81,-1.97 2.76,-3.06 4.77,-5.07 3.17,-3.15 2.48,-2.07 3.45,-6.5 0.32,-1.47 0.91,-2.04 1.51,-3.31 0.59,-1.24 0.84,-2.64 1.22,-3.95 0.91,-3.17 2.21,-3.68 3.52,-6.23 0.65,-1.26 0.64,-2.04 1.8,-3.01 4.49,-3.75 5.52,-6.95 6.65,-8.32 0.92,-1.1 3.16,-4.94 4.16,-4.65 1.02,1.96 -0.3,5.6 0.28,8.05 0.45,1.88 1.06,6.32 -0.82,7.4l0.18 0.26c0.09,0.01 -1.23,-1.56 -1.74,-2.44 -0.73,-1.27 -0.54,-1.7 -1.68,-2.66 -2.64,-0.15 -1.74,2.3 -3.9,4.15 -3.67,3.13 -2.33,9.17 -1.84,13.27 0.48,3.98 1.6,2.73 2.61,5.49 0.75,2.05 0.48,4.33 1.37,6.66 0.52,1.36 1.33,1.58 1.59,2.39 0.67,2.13 0.59,7.08 3.07,9.1 1.19,0.97 0.79,1.27 1.64,2.32 1.17,1.44 0.35,1.55 1.17,2.86 1.24,0.82 2.23,0.7 4,2.01 -0.58,0.05 -2.03,2.48 -2.32,3.1 -1.04,2.21 -0.1,2.9 -1.02,4.77 -0.98,2 -0.91,2.88 -0.89,5.06 0.02,2.02 -0.55,3.54 -0.46,5.57 0.12,2.82 3.35,11.88 -5.84,8.4 -2.59,-0.98 -1.73,-0.42 -3.72,-2.11 0.15,0.53 5.62,-3.84 6.37,-5.08 1.38,-2.29 1.03,-18.57 -0.59,-22.75 -0.62,-1.61 -1.69,-1.94 -2.08,-3.43 -0.46,-1.72 -0.66,-3.21 -1.22,-5.03 -0.55,-1.81 -1.4,-2.5 -2.01,-4.03 -0.66,-1.64 -0.71,-3.42 -1.11,-5.12 -0.6,-2.59 -2.06,-6.58 -5.08,-7.34 -1.92,-0.48 -3.08,0.7 -3.46,2.45 -0.53,2.45 -1.62,2.46 -1.99,4.25 -0.44,2.05 0.03,9.14 -2.19,9.87l-2.62 -2.43c-0.92,-1.04 -0.13,-0.65 -1.39,-1.07 -1.6,2.55 -7.84,2.03 -10.47,2.76 -1.92,0.53 -2.79,2.3 -3.39,4.04 -0.73,2.14 -1.66,1.84 -3.94,1.95 -3.7,0.17 -16.11,0.27 -19.34,2.16 -2.66,1.55 -9.76,2.06 -11.79,2.61 -2.25,0.62 -2.86,1.24 -5.51,1.59l-12.06 2.41c-1.67,0.34 -3.8,1.14 -5.51,1.64 -2.24,0.65 -3.9,0.66 -6.13,0.98 -0.94,0.13 -2.09,0.27 -2.98,0.56 -0.87,0.29 -1.73,0.94 -2.55,1.09 -2.16,0.39 -3.11,-1.65 -3.61,-3.31 0.25,0.12 2.35,-1.04 2.72,-1.26 1.39,-0.83 3.99,-0.13 8,-1.28 1.9,-0.54 1.18,-0.45 2.11,-1 0.27,-0.16 0.16,0.37 0.98,-0.57 -2.63,-0.18 -3.82,0.42 -6.19,1.21 -2.02,0.68 -3.95,0.07 -6.22,0.95 -1.87,0.72 -3.47,1.53 -5.61,1.47 -2.56,-0.08 -3.75,-0.8 -5.94,0.59 2.04,2.42 3.18,1.11 5.61,0.87 2.79,-0.27 2.68,1.9 3.97,3.35 1.41,1.59 3.5,1.62 5.23,0.56 2.87,-1.76 7.77,-2.32 11.82,-3.34 5.93,-1.49 3.63,0.01 11.75,-2.88 1.92,-0.68 4.13,-0.88 6.14,-1.21 4.28,-0.71 7.55,-2.4 12.37,-2.75 3.79,-0.27 8.28,-2.25 12.38,-2.79 1.24,-0.17 2.41,-0.07 3.65,-0.14 1.74,-0.1 6.59,-1.24 9.16,1.42 1.11,1.15 0.92,3.32 1.05,4.83 0.27,3.06 0.39,3.01 -1.2,5.68 1.72,0.5 1.73,1.09 5.62,0.65 1.54,-3.21 1.29,-4.68 0,-7.84 -3.08,-1.74 -3,-2.26 -3.05,-5.88 -0.07,-5.94 6.73,-5.33 11.56,-6.7 3.42,-0.97 3.11,1.55 5.24,3.06 2.48,0.61 2.59,-7.06 2.97,-9.1 0.35,-1.87 2.56,-7.29 4.3,-8.15 1.86,1.03 2.83,3.3 3.92,5.19 1.33,2.29 1.24,4.92 2.24,7.12 1.26,2.77 0.74,-1.15 2.65,6.46 0.87,3.46 1.51,3.91 2.59,6.78 1.37,3.68 0.81,13.14 0.7,17.43 -0.1,3.94 -1.67,3.56 -4,5.17 -1.25,0.86 -4.98,1.86 -5.77,3.39 1.13,0.7 1.96,0.53 3.31,1.82 1.83,1.75 0.57,1.5 3.46,1.89 15.21,2.06 8.4,-1.8 7.66,-7 -0.45,-3.13 0.24,-5.39 0.2,-8.41 -0.04,-3.43 1.04,-4.33 1.57,-7.53 0.82,-5.04 1.83,-3.99 3.7,-5.39 -1.04,-2.44 -4.15,-1.82 -5.15,-3.25 -1.16,-1.66 -1.73,-3.93 -3.03,-5.67 -1.39,-1.85 -1.68,-4.27 -2.24,-6.46 -0.75,-2.98 -1.79,-3.73 -2.62,-6.02 -0.87,-2.42 -0.21,-3.88 -1.77,-6.73 -1.22,-2.25 -1.96,-3.97 -2.11,-6.6 -0.4,-7.04 1.48,-7.16 5.13,-12.28 0.82,0.57 1.57,2.26 2.08,3.1 2.27,3.72 -0.03,2.02 2.07,3.21 1.23,0.69 1.26,2.41 1.61,3.65 0.6,2.11 0.44,2.26 2.93,2.24 2.06,-0.02 2.67,-0.16 4.53,0.7 1.54,0.71 2.21,-0 3.78,-0.54 1.48,-0.51 3.55,-0.23 4.72,-0.62 1.11,-0.36 1.56,-1.77 3.16,-2.08 2.36,1.09 2.47,2.92 5.22,1.11 1.08,-0.71 1.18,-1.35 2.45,-1.27 1.63,0.1 2.06,0.21 3.71,-0.15 1.83,-0.4 5.1,-0.7 6.56,-1.46 5.3,-2.76 5.45,-2.14 9.97,-2.27 2.56,-0.07 7.09,-0.89 9.13,-2.9 1.71,-1.69 2.56,-2.39 3.1,-4.95 0.52,-2.48 -0.2,-4.33 2.01,-6.18 2.87,0.5 4.61,6.74 5.18,9.26l1.44 13.22c-0.02,2.6 -0.18,4.13 -0.03,6.89 0.11,1.95 0.36,5.11 -0.41,6.85 -0.67,1.51 -1.29,3.88 -3.27,4.05 -1.17,0.1 -2.26,-0.12 -3.49,0.1 -0.92,0.16 -2.02,0.58 -2.98,0.81 0.85,3.83 1.19,4.24 5.37,3.83 2.69,-0.27 5.83,0.08 8.3,1.23 3.15,1.47 1.87,3.92 3.75,5.82 1.55,1.57 1.22,0.2 2.12,2.79 0.14,0.4 0.6,2.44 0.67,2.54 1.54,2.1 0.88,5.29 -0.81,7.19 -3,3.38 -8.71,1.23 -15.17,4.02 -1.4,0.6 -2.34,0.32 -3.83,1.07 -1.46,0.73 -2.64,0.66 -4.25,0.62 0.92,-0.16 0.79,-0.09 1.26,0.28 -1.81,0.37 -12.25,1.28 -12.73,1.52 -2.03,0.99 -0.36,-0.34 -4.31,1.81 -2.63,1.43 -7.74,1.57 -9.04,1.89 -4.66,1.16 -5.37,0.4 -9.38,1.56 -2.06,0.59 -1.89,2.12 -5.11,2.06 -2.25,-0.04 -4.1,0.02 -6.26,0.58 -0.79,1.15 -0.42,3.43 -2.48,3.56 9.98,0.56 5.26,-2.64 15.6,-2.15 6.95,0.33 11.25,-2.07 17.62,-3.34 3.1,-0.62 6.13,-0.73 9.21,-1.24 3.02,-0.5 5.98,-1.2 9.02,-1.67 6.08,-0.94 11.56,-3 17.53,-3.63 5.84,-0.61 10.55,-2.21 15.19,-5.89 4.38,-3.48 8.33,-5.39 13.3,-7.88 5.94,-2.98 11.94,-1.4 18.28,-0.97 5.7,0.39 11.81,2.06 17.45,3.33 5.13,1.15 10.04,3.44 13.87,7.09 5.43,5.17 4.98,7.18 7.31,13.85 3.67,10.56 6.48,22.72 8.57,33.72 1.09,5.74 2.93,11.75 3.73,17.43 0.43,3.06 0.58,6.18 1.27,9.2 0.67,2.89 1.81,5.42 2.29,8.4 0.51,3.14 0.67,5.78 1.54,8.92 0.86,3.11 1.69,5.35 2.04,8.64 0.36,3.4 0.55,5.69 1.44,9.05 0.68,2.58 1.49,6.38 1.74,9l0.15 -1.4c0.39,2.99 1.23,10.39 2.26,12.95 1.44,3.58 1.66,9.17 -0.76,12.37 -2.46,3.26 -5.32,4.58 -9.02,6.11 -1.68,0.7 -4.57,0.64 -5.46,2.09 -0.89,1.46 -1.26,4.29 -0.67,5.86 1.02,2.71 1.97,2.51 5.1,2.08 2.04,-0.28 12.85,-4.62 15.14,-6.59 2.35,-2.04 4.75,-6.52 5.67,-9.49 1,-3.23 1.73,-10.48 0.79,-13.65 -0.29,0.6 -0.12,0.22 -0.76,0.32 -0.1,-0.55 -0.14,-0.95 -0.26,-1.42 -0.25,-0.95 -0.08,-0.76 -0.74,-0.97 0.12,1.04 0.5,1.76 0.6,2.62 0.47,3.9 1.19,2.21 0.15,8.6 -0.5,3.05 -1.56,7.86 -3.85,10 -1.14,1.07 -1.88,3.26 -3.01,3.8 -1.26,0.61 -3.36,2.09 -4.69,2.39 -2.34,0.53 -10.78,2.15 -12.6,1.17 -0.62,-1.15 0.93,-3.03 1.98,-3.58 5.42,-2.85 8.78,-1.76 12.51,-6.92 2.39,-3.3 2.27,-6.53 2.25,-10.45 -0.02,-5.22 -0.45,-6.26 -2.23,-10.94 -2.21,-5.82 -1.24,-14.83 -2.01,-17.58 -0.47,-1.71 -1.74,-2.34 -2.34,-3.83 -1.46,-3.59 0.83,-6.61 -1.84,-10.96 -2.57,-4.18 -1.44,-6.36 -2.27,-10.76 -0.68,-3.59 -1.52,-7.17 -2.48,-10.69 -1.05,-3.83 -1.24,-7.39 -1.81,-11.27 -0.55,-3.75 -2.22,-6.43 -2.65,-10.55 -0.35,-3.3 0.08,-8.18 -1.82,-10.79 -1.97,-2.72 -1.39,-6.8 -2.17,-10.19 -0.82,-3.53 -1.57,-2.12 -3.02,-9.62 -0.76,-3.93 -2.62,-4.84 -3.28,-9.86 -0.59,-4.5 -3.1,-4.85 -4.8,-8.43 0.6,-0.4 0.84,-0.76 1.98,-0.82 0.35,0.8 0.78,2.05 1.31,2.71 0.87,1.07 1.82,0.8 2.66,1.57 0.7,0.65 0.77,1.83 1.52,2.71 0.74,0.88 1.46,1.1 1.91,2.3 0.7,1.88 0.47,4.65 1.68,6.58 2.2,3.55 1.64,2.03 2.15,6.35 0.22,1.82 0.72,5.37 1.14,7.07 0.66,2.65 1.79,2.65 2.14,6.31 0.23,2.44 0.68,4.85 0.87,7.28 0.25,3.3 -0.32,3.79 1.8,6.34 1.27,1.53 1.69,12.24 1.87,14.78 0.17,2.42 -0.75,5.45 1.42,6.85 4.4,2.84 0.91,6.92 2.11,14.11 0.33,2.01 2.31,2.35 2.98,5.05 0.84,3.38 1.26,11.48 2.71,13.69 2.84,-0.27 2.22,-3.96 1.94,-6.04 -0.35,-2.6 -0,-5.72 -0.01,-8.37 -0,-1.37 -1.18,-5.12 -1.93,-6.19 -1.91,-2.75 -0.05,-5.25 -0.99,-7.25 -0.68,-1.46 -0.69,-0.52 -0.65,-2.77 0.02,-1.19 -0.5,-6.76 -0.94,-7.63 -0.67,-1.3 -1.2,-0.7 -1.65,-2.52 -0.82,-3.28 -0.71,-4.29 -0.75,-7.67 -0.02,-1.42 0.01,-2.83 0,-4.25 -0.01,-1.51 0.35,-2.31 0.42,-3.64l0.14 1.22c0.33,-1.14 -0.06,-1.18 0.77,-1.65 0.93,0.99 1.28,9.73 1.61,11.83 0.68,4.25 2.53,1.94 2.58,11.41 0.06,11.02 2.28,7.66 3.06,11.01 0.37,1.62 0.44,4.34 0.66,6.17 0.39,3.21 0.56,2.68 2.08,5.21l4.03 -0.07c0.5,0.63 -1.2,0.82 -1.75,1.46 -0.78,0.89 -1.26,5.63 -0.68,6.77 2.95,5.72 5.54,-1.82 5.83,-2.15 1.04,-1.16 1.67,-3.85 2.43,-5.58 1.27,-2.87 0.27,-0.66 2.01,-2.14 0.93,-0.8 0.79,-2.64 0.69,-3.76 -0.1,-1.24 -0.13,-2.83 -0.3,-3.96 -0.27,-1.86 0.32,-1.98 0.27,-3.39 0.5,0.57 0.35,-0.22 2.29,-0.2 0.02,0.95 0.54,3.28 0.66,4.53 0.16,1.59 0.03,3.64 0.02,5.28 -0.01,1.86 -0.59,2.93 0.11,4.89 0.98,2.73 1.46,-0.09 1.26,3.78 -0.51,9.68 -3.31,7.41 -5.17,10.99 -0.81,1.56 -1.85,1.98 -2.44,3.31 1.42,-0.3 5.77,-5.02 6.26,-5.8 0.45,-0.73 0.47,-1.23 1.03,-1.87 1.66,-1.88 1.85,-3.78 2.78,-6.13 0.89,-2.26 2.02,-2.09 2.55,-3.26 1.78,-3.94 2.24,-11.54 -0.14,-15.11 -1.35,1.33 -1.24,4.98 -1.46,7.14 -0.35,3.47 -0.03,3.83 -2.08,6.26l-1.43 -2.5c-0.41,-0.79 -0.15,0.44 -0.29,-0.37l-0.05 -12.26c-1.12,-0.82 -2.6,-1.26 -3.22,-2.38 -0.94,-1.72 -0.87,-2.7 -1.37,-4.44 -0.48,-1.67 -0.88,-2.52 -1.49,-4.07 -0.57,-1.47 -0.78,-2.98 -1.22,-4.55 -0.34,-1.21 -0.6,-3.22 -1.31,-4.26 -1.14,-1.64 -1.71,-0.72 -2.06,-3.72 -0.15,-1.23 -0.18,-4.26 -0.46,-5.12 -1.14,-3.45 -1.52,-1.66 -2.66,-3.08 0,-1.54 0.12,-6.33 0.37,-7.63 0.85,-4.5 2.46,-1.33 5,-2.34 1.56,-1.96 1.98,-9.6 2.68,-12.47 0.49,-1.99 1.21,-3.9 1.67,-5.91 0.52,-2.3 0.55,-4.54 0.99,-6.79 0.99,-5.1 2.49,-6.5 2.7,-12.54 0.18,-5.03 -0.4,-8.06 -3.06,-12.35 -5.75,-9.27 -12.71,-8.47 -19.04,-11.47 -4.96,-2.35 -4.62,-6.33 -7.6,-7.62 -4.64,-2 -7.5,2.89 -11.83,2.48 -2.9,-0.27 -5.84,-5.95 -6.86,-8.48 -1.36,-3.4 -1.13,-8.78 -2.55,-12.8 -0.92,-2.6 -5.19,-7.33 -8.15,-6.42 -3.68,1.12 1.17,7.2 -6.35,8.17 -2.14,0.27 -3.24,0.94 -5.03,1.27 -1.77,0.32 -3.46,-0.32 -5.17,-0.01 -4.52,0.82 0.18,7.38 -0.55,10.62 -0.55,2.49 -2.14,2.8 -4.31,3.11 -2.44,0.35 -2.66,1.01 -4.66,1.79 -2.26,0.88 -4.14,0.2 -6.4,0.09 -2.21,-0.1 -3.35,0.57 -5.29,1.27 -0.37,-0.62 -0.5,-0.83 -0.77,-1.53 -0.46,-1.18 0.03,-0.29 -0.92,-1.26 0,-1.92 -0.09,-3.83 0.16,-5.67 0.39,-2.74 0.68,-2.3 1.59,-4.22 3.38,1.3 3.46,2.25 3.49,4.51 0.47,0 -0.5,-0.16 0.47,-0.07 4.77,0.4 2.33,1.83 6.99,-3.77l3.36 0.92c0.36,-0.62 1.44,-2.27 1.44,-2.83 0.02,-1.54 -0.85,-2.36 -0.93,-3.35 0.99,-1 4.08,-1.47 5.51,-2.01 0.77,-2.82 2.22,-2.19 4.05,-3.76 1.94,-1.66 1.32,-3.01 2.61,-4.93 -4.5,-1.2 -6.26,-1.72 -11.07,-1.07 -3.38,0.45 -8.8,-0.3 -11.57,1.2l0.44 3.58c1.86,0.4 1.17,0.75 2.67,1.34 0.87,0.35 2.23,0.86 2.97,1.26 0.77,0.42 3.23,3.69 3.61,4.53 -2.54,4.26 -4.37,1.41 -5.27,1.24 -1.86,-0.02 -3.8,0.09 -5.61,0.03 -1.47,-0.05 -2.91,-0.85 -4.38,-1.24 -1.77,-0.48 -2.53,-0.34 -3.99,-1.6 -2.5,-2.14 -0.92,-1.67 -2.19,-3.39l-0.2 1.32c-0.52,-4.84 -5.15,-2.33 -6.59,-0.98 -1.67,1.56 -0.34,6.16 -3.19,8.19 -0.84,-0.02 -3.39,-0.94 -4.06,-1.4 -1.05,-0.72 -1.83,-2.76 -2.92,-3.75 -2.31,-2.14 -6.64,-9.15 -6.89,-9.38 -0.81,-0.72 -0.93,-0.3 -1.74,-1.57 -1.17,-1.84 -0.1,-2.06 -2.49,-4.21 -1.32,-1.2 -1.41,-2.05 -3.04,-3.42 -0.59,-0.5 -3.32,-2.84 -3.48,-3.17 1.02,-0.19 1.89,0.41 2.62,1.24 -0.04,-0.1 -4.78,-3.43 -5.26,-3.66 -3.78,-1.86 -5.74,-0.47 -8.28,-1.28 -1.26,-0.4 -1.53,-1.51 -2.51,-2.23 -1.13,-0.83 -2.17,-0.4 -3.25,-1.71 -1.29,-1.59 -0.72,-1.61 -3.15,-1.54 -1.56,0.04 -3.37,-0.15 -4.86,0.02 -1.74,0.19 -1.82,1.12 -3.36,1.37 -1.49,0.23 -3.23,-0.51 -4.47,0.3 -2.83,1.85 -5.8,1.69 -7.01,2.56 -1.24,0.89 -0.53,1.38 -2.64,2.05 -1.19,0.38 -2.51,0.99 -3.63,1.28 -1,0.26 -2.84,0.25 -3.58,0.81 -0.58,0.43 -1.6,1.99 -1.56,2.73 1.21,1.24 3.81,0.26 5.47,0.21 6.1,-0.19 2.24,-0.13 6.01,-0.74 1.05,-0.17 5.58,-0.12 6.71,0.01 2.31,0.26 2.59,2.64 2.32,4.59 -0.25,1.84 -1.17,3.21 -2.34,4.48 -1.28,1.4 -3.5,1.03 -5.36,1.01 -1.96,-0.02 -3.57,0.84 -5.57,1.06 -1.36,0.15 -1.32,0.33 -2.59,0.73 -2.13,0.68 -1.15,0.02 -1.82,1.22l-5.25 0.1c-1.27,-3.46 -3.03,-4.12 -1.55,-8.6 1.15,-3.48 1.85,-4.28 -1.57,-6.54 -2.76,-1.83 -5.67,-1.73 -6.34,2.03 -0.12,0.67 1.06,2.92 1.38,3.9 0.5,1.51 1.8,1.87 2.52,3.07 0.45,2.52 -2.14,5.21 -2.23,7.12 -0.12,2.62 1.15,6.07 -2.78,6.8 -1.16,-0.72 -0.33,-0.58 -1.86,-1.34 -0.85,-0.43 -1.38,-0.7 -2.29,-1.08 -0.64,-1.46 -0.82,-7.41 -1.07,-9.52 -0.16,-1.38 0.22,-3.5 0.39,-4.92 0.1,-0.9 -0.04,-1.59 0.35,-2.39 0.66,-1.37 0.72,-0.3 1.39,-1.34 -1.39,-2.17 -4.92,-0.62 -6.11,1.76 -1.18,2.36 -2.65,3.94 -4.18,6.04 -1.57,2.16 -3.29,3.62 -4.72,5.52 -0.82,1.07 -1.14,2.21 -1.74,3.38 -0.59,1.13 -1.37,2.02 -2.04,3.08 -1.42,2.26 -1.3,4.87 -2.81,7.45 -1.49,2.55 -1.42,4.54 -3.17,7.07 -1.52,2.2 -2.46,3.9 -4.42,5.82 -1.91,1.88 -4.58,2.17 -7.04,3.21 -2.88,1.22 -4.95,1.56 -8.02,2.01 -3.09,0.45 -5.21,1.72 -8.03,2.23 -3.32,0.6 -5.13,1.08 -8.32,1.89 -2.69,0.68 -5.51,1.49 -8.2,2.05 -2.77,0.57 -15.34,2.93 -16.97,3.53 -1.22,0.45 -2.21,1.17 -3.49,1.59 -3.7,1.19 -8.4,1.15 -12.88,2.74zm-69.35 65.12c0.14,-2.24 5.84,-12.45 7.84,-4.04 0.8,3.4 2.99,13.43 3.08,16.51 0.24,8.22 4.83,23.47 6.85,31.9 2.27,9.52 3.22,21.98 5.46,31.23 1.73,7.14 6.22,25.49 6.38,32.07 0.37,15.07 -15.71,-5.37 -17.05,-9.16 -2.73,-7.73 -4.99,-26.3 -3.89,-34.26 1.15,-8.42 3.41,-28.31 1.23,-35.97 -1.39,-4.86 -10.1,-24.78 -9.89,-28.28zm-5.34 42.3l0.03 0c1.41,0.03 -1.3,-26.86 4.54,-20.85 4.48,4.62 7.16,15.64 7.21,21.97l-1.18 0.22 0.19 57.43 -0.78 0.07 -2.52 -7.31c-3.55,2.49 2.72,13.33 4.52,16.14 4.25,6.64 6.12,6.59 11.96,10.74 4.19,2.97 12.17,4.53 15.3,7.95 2.62,2.86 5.47,11.24 5.97,15.35 1.45,12.01 9.52,22.9 22.37,22.75 7.27,-0.09 13.97,0.45 21.25,-0.59 2.26,-0.32 17.33,-4.2 17.48,-5.05 -2.14,-1.07 -11.71,-0.16 -13.98,0.99 -5.16,2.6 -9.52,2.31 -15.36,2.32 -14.46,0.01 -15.34,-0.88 -23.7,-11.36 -6.19,-7.76 -4.92,-16.35 -8.77,-24.36 -1.92,-4 -0.22,-9.64 -2.91,-14.66 -3.04,-5.67 -0.38,-9.65 -2.59,-14.63 -2.11,-4.77 -5.18,-22.71 -6.01,-28.64 -0.7,-5.08 -3.01,-8.45 -3.61,-13.93 -0.73,-6.71 -1.49,-8.56 -2.87,-14.69 -0.94,-4.18 -3.13,-10.07 -3.65,-12.75 -0.46,-2.36 -0.42,-5.18 -0.69,-7.57 -0.33,-2.91 -1.81,-4.03 -2.37,-6.49 -1.01,-4.49 -1.32,-11.73 -1.1,-16.36 0.21,-4.5 1.19,-3.09 2.7,-6.07 1.59,-3.14 -1.57,-3.68 -2.01,-4.34 -0.11,-8.04 -0.05,-7.75 1.83,-14.97 0.67,-2.59 1.6,-5.27 0.98,-7.96 -0.75,-3.21 -2.28,1.41 -3.53,2.4 -3.7,2.96 -11.61,-5.5 -12.68,2.35 -0.37,2.73 -4.38,10.64 -6.58,12.38 -7.21,5.72 -7.67,21.48 -6.78,30.12 0.16,1.59 3.48,12.99 4.12,13.65 4.09,4.23 2.74,9.6 3.21,15.75zm299.03 -48.77c-0.33,1.14 -0.43,4.3 0.28,5l4.86 -0.74 -0.7 4.21 -10.92 0.01 0.52 -0.82 -11.24 -6.88 -0.55 0.91c-0.03,0.2 1.61,8.89 1.75,10.61 0.3,3.83 4.93,4.6 7.54,5.78 2.61,1.19 14.18,11.28 10.66,14.46l-5.39 1.19c0.41,0.74 0.32,2.61 0.37,3.53 3.01,1.03 6.86,0.91 7.3,3.13 0.27,1.36 5.23,4.35 6.07,5.57 2,2.88 3,3.43 5.36,5.72 0.81,0.78 -0.16,2.03 1.35,3.86 1,1.21 1.94,1.54 2.9,3.1 6.07,9.83 12.28,22.26 13.89,34.02l0.32 -1.78c0.25,12.24 1.57,19.96 -0.49,32.68 -0.64,3.95 -7.83,24.94 -4.92,27.48 0.56,-0.11 4.6,-11.6 4.67,-13.09 0.4,-8.58 3.39,-7.03 3.71,-13.99 0.54,-11.92 1.34,-22.43 0.38,-34.41 -0.47,-5.78 -3.31,-26.19 -5.35,-30.91 -2.11,-4.87 -2.16,-7.28 -4.78,-12.77 -2.57,-5.37 -0.18,-11.03 -1.29,-16.49 -3.66,-0.66 -4.5,2.38 -6.36,-2.26 -0.55,-1.37 -2.06,-6.81 -3.42,-7.06l-0.17 0.88c-0.15,-1.04 -0.57,-5.68 -1.07,-6.22l-4.6 0.78 -1.92 -2.65 0.98 0.43 3.4 -10.74c-1.43,-0.95 -1.4,-0.64 -4.28,-0.8 0.06,-3.75 0.99,-6.74 -2.34,-3.44 -4.39,4.36 -2.09,0.1 -6.53,1.71zm-55.07 217.56l10.84 -0.22 -1.2 -21.13c1,-0.55 8.18,-4.01 8.43,-4.03 5.19,-0.56 4.79,0.11 9.7,-2.31 4.43,-2.19 13.9,-4.8 16.74,-8 2.18,-2.46 1.68,-1.16 4.34,-1.97 1.74,-0.53 1.46,-1.83 2.96,-3.03 1.66,-1.32 5.78,-4.13 6.91,-5.29 5.17,-5.34 2.05,-6.37 0.49,-4.46 -3.68,4.52 -2.67,1.12 -6.07,6.22l-0.55 -1.29 -42.62 18.38 -1.23 -1.45c-10.01,0.24 -22.23,-0.81 -31.3,-4.49 -2.39,-0.97 -11.35,-5.08 -13.26,-6.29 -1.8,-1.14 -4.23,-4.05 -5.42,-2.6 -2.28,2.76 -2.69,1.17 -4.56,-1.01 -1.29,-1.5 -3.78,-2.91 -3.56,-5.09 0.18,-1.85 -3.01,-2.66 -4.88,-4.3 -1.82,-1.59 -2.47,-3.54 -4.2,-5.59 -1.97,-2.34 -4.44,-3.24 -4.8,-4.73 -1.62,-6.7 -8.58,-18.01 -11.31,-25.66l-4.05 0.32 -2.14 -35.05c-2.96,0.18 -2.72,17.97 -2.61,20.71 0.15,3.76 0.43,7.11 0.75,10.84 0.66,7.57 1.05,3.95 2.95,8.64 1.98,4.87 -1.31,1.88 3.16,8.42 1.55,2.26 0.31,4.59 3.08,8.55 3.75,5.37 5.27,7.65 9.57,12.85 6.69,8.1 14.99,15.56 24.07,20.96 5.2,3.08 34.32,8.49 35.3,10.9l-1.19 0.37 5.66 20.84zm125.4 -137.01c-0.97,-2.09 -0.89,-6.66 -0.34,-8.88 0.46,-1.82 2.79,-5.8 4.62,-5.5l-0.12 0.6 2.29 -2.59c0.6,-1.33 1.64,-1.75 2.44,-3.31 1.86,-3.58 4.66,-1.31 5.17,-10.99 0.2,-3.86 -0.28,-1.05 -1.26,-3.78 -0.7,-1.95 -0.12,-3.03 -0.11,-4.89 0.01,-1.64 0.14,-3.69 -0.02,-5.28 -0.12,-1.25 -0.64,-3.58 -0.66,-4.53 -1.94,-0.02 -1.79,0.76 -2.29,0.2 0.05,1.41 -0.54,1.53 -0.27,3.39 0.17,1.14 0.2,2.73 0.3,3.96 0.1,1.12 0.24,2.97 -0.69,3.76 -1.74,1.48 -0.74,-0.73 -2.01,2.14 -0.77,1.73 -1.39,4.42 -2.43,5.58 -0.29,0.32 -2.88,7.87 -5.83,2.15 -0.58,-1.14 -0.1,-5.88 0.68,-6.77 0.55,-0.63 2.25,-0.83 1.75,-1.46l-4.03 0.07c-1.52,-2.52 -1.69,-2 -2.08,-5.21 -0.22,-1.82 -0.29,-4.55 -0.66,-6.17 -0.77,-3.36 -2.99,0.01 -3.06,-11.01 -0.05,-9.47 -1.9,-7.16 -2.58,-11.41 -0.33,-2.09 -0.68,-10.84 -1.61,-11.83 -0.83,0.47 -0.44,0.51 -0.77,1.65l-0.14 -1.22c-0.07,1.33 -0.43,2.14 -0.42,3.64 0.01,1.42 -0.02,2.83 0,4.25 0.03,3.38 -0.08,4.38 0.75,7.67 0.45,1.82 0.99,1.22 1.65,2.52 0.44,0.87 0.97,6.44 0.94,7.63 -0.04,2.25 -0.03,1.32 0.65,2.77 0.94,2 -0.92,4.5 0.99,7.25 0.75,1.07 1.92,4.82 1.93,6.19 0,2.65 -0.34,5.77 0.01,8.37 0.28,2.08 0.91,5.77 -1.94,6.04 -1.46,-2.21 -1.87,-10.31 -2.71,-13.69 -0.67,-2.7 -2.64,-3.03 -2.98,-5.05 -1.2,-7.18 2.29,-11.27 -2.11,-14.11 -2.17,-1.39 -1.26,-4.43 -1.42,-6.85 -0.17,-2.54 -0.6,-13.25 -1.87,-14.78 -2.12,-2.55 -1.55,-3.04 -1.8,-6.34 -0.19,-2.43 -0.64,-4.85 -0.87,-7.28 -0.35,-3.66 -1.47,-3.66 -2.14,-6.31 -0.42,-1.7 -0.93,-5.25 -1.14,-7.07 -0.52,-4.32 0.05,-2.8 -2.15,-6.35 -1.2,-1.93 -0.97,-4.7 -1.68,-6.58 -0.45,-1.2 -1.18,-1.42 -1.91,-2.3 -0.75,-0.88 -0.82,-2.06 -1.52,-2.71 -0.84,-0.78 -1.79,-0.5 -2.66,-1.57 -0.53,-0.65 -0.96,-1.91 -1.31,-2.71 -1.14,0.05 -1.38,0.42 -1.98,0.82 1.7,3.58 4.21,3.93 4.8,8.43 0.66,5.02 2.52,5.93 3.28,9.86 1.45,7.5 2.2,6.09 3.02,9.62 0.79,3.39 0.2,7.47 2.17,10.19 1.9,2.61 1.47,7.49 1.82,10.79 0.43,4.12 2.1,6.8 2.65,10.55 0.56,3.88 0.76,7.43 1.81,11.27 0.96,3.52 1.8,7.11 2.48,10.69 0.83,4.41 -0.3,6.58 2.27,10.76 2.67,4.35 0.38,7.37 1.84,10.96 0.6,1.48 1.87,2.11 2.34,3.83 0.76,2.75 -0.2,11.76 2.01,17.58 1.78,4.69 2.21,5.72 2.23,10.94 0.02,3.93 0.13,7.15 -2.25,10.45 -3.73,5.16 -7.09,4.07 -12.51,6.92 -1.05,0.55 -2.6,2.44 -1.98,3.58 1.81,0.97 10.26,-0.64 12.6,-1.17 1.33,-0.3 3.43,-1.79 4.69,-2.39 1.14,-0.55 1.87,-2.73 3.01,-3.8 2.29,-2.15 3.36,-6.95 3.85,-10 1.04,-6.39 0.32,-4.7 -0.15,-8.6 -0.1,-0.87 -0.48,-1.58 -0.6,-2.62zm-122.23 -83.13c1.47,0.94 1.56,1.34 1.63,3.06 0.1,2.41 -0.15,1.71 -1.31,3.37 -1.47,-0.79 -1.29,-1.11 -1.42,-2.94 -0.19,-2.79 -1,-1.79 1.09,-3.49zm-28.32 2.71c-1.06,-1 -0.82,-1.84 -0.81,-3.23 0.02,-1.82 -0.23,-1.81 0.82,-3.21 0.84,0.15 2.11,0.88 2.78,1.44 -1.34,3.32 -1.05,4.36 -2.8,5zm4.59 -5.35c0.48,-0.56 2.15,-2.43 2.68,-2.64l4.07 2.29 2.76 -2.88c5.45,-0.28 7.66,5.45 -1.53,4.42 -3.63,-0.4 -7.45,6.42 -7.97,-1.18zm-61.01 67.22c2.14,-2.01 9.3,-10.49 10.96,-12.85 2.01,-2.86 10.12,-8.16 13.2,-10.39 12.58,-9.12 20.04,-9.12 32.71,-14.71 9.65,-4.25 31.55,-3.58 42.25,-2.84 5.76,0.4 13.15,2.61 18.63,4.57 3.71,1.32 14.53,6.77 17.63,4.65 1.07,-9.74 -20.1,-14.38 -21.54,-17.66 0.47,-0.63 7.92,-3.98 3.36,-8.2 -1.38,-1.28 -2.1,0.59 -4.13,0.28 -2.06,-0.31 -1.79,-2.89 -3.63,-3.66l-1.89 0.17 0.96 10.76 0.5 -0.05c-0.02,-0.01 -6.03,1.39 -4.63,-3.68 1.81,-6.56 -0.08,-8.06 -0.05,-8.95l-4.65 0.22 -0.35 10.23c-3.55,-0.12 0.69,-9.03 -2.84,-11.15 -5.64,-3.39 -4.19,-3.63 -8.2,0.42 -4.42,-4.72 -2.63,-4.61 -7.24,-0.59l-2.39 -7.03c28.39,-0.55 21.16,0.22 43.78,8.62 4.96,1.84 7.86,6.56 11.23,2.48l-2.53 -4.4 0.54 4.41c-1.63,0.6 -13.36,-6.19 -16.53,-7.1 -2.87,-0.83 -6.09,-2.49 -9.03,-3.56 -3.69,-1.35 -6.58,-1.13 -10.17,-2.21 -3.83,-1.16 -17.38,-1.64 -21.36,-0.94 -3.92,0.7 -6.74,0.96 -10.49,0.77 -1.75,-0.09 -2.12,1.63 -3.45,2.42 -1.84,1.1 -2.14,-0.65 -4.9,-0.04l-0.94 0.02 0.15 9.58 1.64 0.37 3.13 -3.23 4.61 2.85 0.16 -2.44 13.02 -2.51 1.32 -0.89 1.45 13.75 0.41 -0.67 21.45 2.27c-0.5,-3.05 -0.79,-7.33 -1.08,-10.53 6.4,-0.6 0.75,7.83 2.49,10.82 2.86,4.92 7.58,1.38 10.93,4.32 3.16,2.77 18.48,5.82 17.65,11.81 -1.64,2.24 -14.92,-3.18 -17.75,-4.19 -5.34,-1.89 -13.13,-3.86 -18.75,-4.5 -11.61,-1.33 -31,0.35 -41.95,4.45 -10.68,4 -22.01,7.38 -31.1,14.83 -9.55,7.83 -16.53,12.55 -22.6,23.92zm-10.57 -133.4c-1,-0.4 -0.77,-0.79 -1.02,-1.77 -0.24,-0.98 -0.58,-0.94 -0.62,-1.86 -0.04,-0.86 1.13,-2.54 1.62,-3.37l0.42 0.77c0.07,0.21 0.18,0.69 0.22,0.92 0.27,1.37 0.16,4.29 -0.63,5.32zm-77.13 12.75l-0.36 0.23c-0.82,0.94 -0.7,0.4 -0.98,0.57 -0.93,0.55 -0.21,0.46 -2.11,1 -4.01,1.14 -6.61,0.45 -8,1.28 -0.37,0.22 -2.46,1.39 -2.72,1.26 0.5,1.65 1.45,3.69 3.61,3.31 0.82,-0.15 1.69,-0.8 2.55,-1.09 0.89,-0.3 2.04,-0.43 2.98,-0.56 2.24,-0.32 3.89,-0.32 6.13,-0.98 1.71,-0.5 3.84,-1.3 5.51,-1.64l12.06 -2.41c2.64,-0.35 3.26,-0.97 5.51,-1.59 2.03,-0.55 9.14,-1.06 11.79,-2.61 3.23,-1.89 15.64,-1.99 19.34,-2.16 2.28,-0.11 3.21,0.19 3.94,-1.95 0.6,-1.74 1.47,-3.51 3.39,-4.04 2.63,-0.73 8.87,-0.21 10.47,-2.76 1.25,0.43 0.46,0.03 1.39,1.07l2.62 2.43c2.22,-0.73 1.75,-7.82 2.19,-9.87 0.38,-1.79 1.46,-1.8 1.99,-4.25 0.38,-1.75 1.54,-2.93 3.46,-2.45 3.01,0.76 4.47,4.75 5.08,7.34 0.4,1.7 0.45,3.48 1.11,5.12 0.62,1.53 1.46,2.21 2.01,4.03 0.56,1.82 0.76,3.31 1.22,5.03 0.4,1.49 1.46,1.82 2.08,3.43 1.62,4.18 1.97,20.46 0.59,22.75 -0.75,1.24 -6.22,5.61 -6.37,5.08 1.99,1.69 1.13,1.13 3.72,2.11 9.2,3.48 5.97,-5.58 5.84,-8.4 -0.09,-2.04 0.48,-3.56 0.46,-5.57 -0.02,-2.18 -0.1,-3.06 0.89,-5.06 0.92,-1.87 -0.02,-2.57 1.02,-4.77 0.29,-0.62 1.74,-3.05 2.32,-3.1 -1.77,-1.31 -2.76,-1.19 -4,-2.01 -0.82,-1.31 0,-1.42 -1.17,-2.86 -0.85,-1.05 -0.45,-1.36 -1.64,-2.32 -2.48,-2.02 -2.4,-6.97 -3.07,-9.1 -0.26,-0.82 -1.07,-1.04 -1.59,-2.39 -0.89,-2.33 -0.62,-4.61 -1.37,-6.66 -1,-2.76 -2.13,-1.51 -2.61,-5.49 -0.49,-4.1 -1.83,-10.14 1.84,-13.27 2.16,-1.85 1.27,-4.3 3.9,-4.15 1.14,0.96 0.95,1.39 1.68,2.66 0.5,0.88 1.83,2.45 1.74,2.44l-0.18 -0.26c1.88,-1.07 1.27,-5.52 0.82,-7.4 -0.59,-2.45 0.73,-6.09 -0.28,-8.05 -1,-0.29 -3.25,3.55 -4.16,4.65 -1.14,1.37 -2.16,4.57 -6.65,8.32 -1.17,0.97 -1.15,1.75 -1.8,3.01 -1.3,2.54 -2.61,3.06 -3.52,6.23 -0.38,1.32 -0.63,2.71 -1.22,3.95 -0.6,1.27 -1.19,1.84 -1.51,3.31 -0.97,4.43 -0.28,3.35 -3.45,6.5 -2.01,2 -1.96,3.09 -4.77,5.07 -2.29,1.6 -4.63,2.09 -7.33,2.58 -2.84,0.52 -4.97,1.92 -7.73,2.3 -2.88,0.4 -5.37,1.1 -8.22,1.57 -3.17,0.52 -4.77,1.67 -7.55,2.22 -2.73,0.55 -5.47,1.04 -8.19,1.61 -2.75,0.57 -5.1,1.61 -7.76,2.24 -2.49,0.59 -6.73,0.54 -8.55,1.22 -1.17,0.43 -1.86,1.28 -3.21,1.69 -1.26,0.38 -12.05,1.59 -13.18,1.61zm163.08 131.92c-10.14,7.09 -21.12,6.66 -23.54,20.77 -2.01,11.75 1.07,25 10.86,32.67 9.71,7.62 21.77,8.24 31.47,0.2 3.55,-2.94 7.69,-8.93 8.96,-13.34 4.04,-13.95 5.68,-2.64 4.38,1.72 -7.3,24.39 -37.87,29.79 -54.89,8.79 -17.68,-21.81 4.28,-56.38 22.76,-50.81zm-5.09 -3.98c-12.87,1.82 -21.05,13.42 -24.46,24.95 -4.19,14.15 -0.32,26.18 9.74,36.68 22.82,23.84 61.9,-4.84 54.71,-26.8 -3.79,-11.56 -7.98,5.5 -8.82,7.74 -2.32,6.17 -4.87,10.79 -10.62,14.24 -11.83,7.1 -27.42,3.31 -33.76,-8.94 -6.28,-12.15 -6.64,-27.78 7.23,-34.49 4.82,-2.33 15.76,-4.51 17.49,-5.81 8.39,-6.28 -6.55,-8.28 -11.51,-7.57zm141.61 -86.44c0.37,-2.14 0.77,-4.28 1.12,-6.43 0.48,-2.92 -0.04,-3.06 2,-5.33 1.14,-1.26 0.84,-4.45 1.06,-6.31 0.27,-2.26 0.55,-4.41 0.66,-6.69 0.19,-3.98 3.6,-8.88 2.06,-12.24 -0.4,-0.87 -1.08,-1.33 -1.51,-2.26 -0.4,-0.88 -0.53,-1.64 -1.01,-2.55 -1.31,-2.49 -2,-2.39 -3.21,-4.13 -1.56,-2.23 -1.54,-2.27 -4.39,-2.95 -3.85,-0.92 -2.11,-1.77 -4.15,-2.79 -0.76,-0.38 -4.46,-0.9 -5.95,-1.38 -8.83,-2.84 -5.83,-4.71 -7.66,-6.63 -0.72,-0.76 -2.6,-1.49 -3.65,-1.41 -1.3,0.1 -3.11,1.38 -4.58,1.98 -2.78,1.13 -3.31,0.95 -6.3,0.71l0 3.88c1.63,2.2 2.21,2.02 2.61,5.03 1.24,9.47 0.92,5.07 2.47,8.18 0.82,1.64 0.94,7.49 2.14,9.05 1.63,-2.23 0.53,-10.87 3.34,-13.35 1.77,0.41 1.02,0.48 1.86,1.88 0.78,1.29 0.77,0.05 1.73,2.04 0.79,1.62 2.3,1.9 2.81,4.09 0.79,3.39 2.26,1 2.74,4.6 0.14,1.03 1.12,4.35 1.58,5.39 0.95,-0.76 0.37,-0.32 0.65,-0.45l0.73 -7.86 2.56 -0.82c0.23,-2.07 -0.93,-2.09 -1.7,-3.4 -0.47,-0.8 -0.19,-1.24 -0.27,-2.16 -0.12,-1.48 -0.29,-0.43 -0.65,-1.77 0.7,-0.88 1.91,-0.93 2.62,-1.57 0.99,-0.89 1.09,-1.2 2.63,-1.59 2.36,-0.6 3.32,1.05 5.31,1.92 -0.09,2.21 0.77,1.02 1.21,2.93 0.34,1.47 0.12,1.94 1.04,3.28 0.75,1.09 1.17,0.71 1.84,2.39 1.11,2.74 1.24,8.37 0.58,11.45 -0.6,2.83 -0.12,3.88 -2.51,5.63 -1.9,-1.02 -1.89,-2.14 -2.23,-2.41 -0.38,-0.3 0.1,0.72 -0.36,-0.36 -0.42,-0.99 -0.41,-2.29 -1.02,-2.96 -0.52,4.54 -0.03,3.13 -3.36,5.74 -3.38,-1.81 -0.87,-4.94 -3.84,-5.37 -1.52,1.19 -0.84,2.26 -0.52,3.9 0.49,2.54 0.03,2.32 2.78,2.26 0.53,0.97 0.94,3.95 1.41,5.45 0.36,1.15 2.11,2.81 2.39,4.02 0.14,0.63 0.17,6.03 1.12,9.81 1.3,0.02 2.81,0.05 3.8,-0.45zm-156.6 187.27c2.61,-0.54 8.52,0.67 9,1.77 -1.31,0.89 -6.89,1.6 -9.48,-0.2l0.47 -1.57zm-40.04 -56.33c0.12,-6.04 1.96,-23.61 5.49,-28.12 2.53,-3.23 10.64,-19.55 15.36,-17.51 1.03,1.22 -10.65,19.47 -12.1,22.11 -3.41,6.22 -5.25,23.36 -3.88,30.43 1.55,8.01 5.62,18.32 10.15,25.03 2.99,4.44 3.34,6.18 7.23,10.36 1.13,1.22 8.55,8.51 8.47,8.73l-4.08 0.28c-3.8,-4.97 -9.64,-6.47 -18.42,-20.39 -3.28,-5.21 -4.11,-7.63 -6.02,-13.56 -1.06,-3.3 -1.86,-16.68 -2.35,-17.39 -0.92,18.72 2.7,18.73 3.88,24.85 0.74,3.82 2.39,3.16 3.51,6.31 1.35,3.78 14.06,19.18 17.86,20.49 4.8,1.65 6.96,3.53 11.5,6.17 0.94,0.55 13.93,4.74 14.76,4.78 8.67,0.4 27.46,1.55 33.44,-4.91l-0.67 -2.23c-16.98,2.93 -33.9,2.7 -49.77,-4.65 -10.54,-4.88 -22.23,-23.34 -25.6,-34.14 -5.33,-17.05 -3.96,-31.73 5.14,-47.31 3.59,-6.14 7.45,-12.2 13.18,-16.6 3.04,-2.33 5.42,-4.15 8.57,-6.35 2.4,-1.69 9.81,-4.87 9.99,-5.03l-0.12 -2.71c-3.94,-3.01 -15.68,4.49 -18.74,7.11 -2.15,1.84 -4.7,3.28 -7.71,5.88 -3.92,3.39 -3.62,4.09 -6.5,6.86 -6.38,6.15 -16.77,33.41 -12.59,41.5zm65.92 -211.31c0.73,-0.65 1.02,-0.99 1.2,-2.03 0.24,-1.42 1.18,-3.6 2.2,-4.77 0.46,-0.53 1.39,-0.91 2.34,-1.32 3.09,-1.35 2.24,0.69 3.47,2.72 0.51,0.85 0.72,1.62 1.14,2.41 0.55,1.06 1.2,0.76 2.21,1.3 1.02,1.81 0.66,4.86 2.59,6.29 1.91,1.42 1.56,4.93 2.39,6.64 0.35,0.71 1.74,1.08 2.14,1.79 0.6,1.06 1.43,10.58 1.46,11.95l0.77 -3.08c0.84,0.82 0.21,1.34 0.22,2.44 -0.11,-0.5 1.15,-2.8 1.68,-3.38 0.88,-0.96 3.09,-0.95 4.5,-1.21 2.16,-0.4 8.07,-0.02 10.59,0.08l1.01 -1.29c-0.65,-1.91 -0.74,-4.8 -0.48,-7.21 0.25,-2.36 0.89,-4.87 0.99,-7.1 -2.56,-2.74 -3.57,-0.66 -5.42,-2.31 -0.74,-0.65 -1.73,-4.06 -2.3,-5.37 -8.33,-0.67 -1.79,12.05 -10.07,9.79 -2.54,-0.69 -3.62,-3.6 -5.1,-5.22 -1.12,-1.22 -1.64,-0.98 -2.4,-2.78 -0.75,-1.77 -1.14,-1.72 -2.19,-3.12 -0.84,-1.11 -1.06,-2.3 -1.83,-3.29 -0.88,-1.14 -2.21,-1.19 -2.79,-2.36 -0.71,-1.42 0.09,-2.44 -1.54,-3.51 -1.44,-0.94 -1.72,-0.41 -2.55,-2.12 -0.52,-1.08 -4.35,-4.25 -5.44,-4.6 -10.93,-3.46 -9.32,-0.18 -12.03,-3.68 -1.46,-1.89 -1.52,0.82 -1.5,1.77 0.07,4.25 1.05,5.34 -1.66,8.85 -0.65,0.83 -2.86,6.2 -2.88,7.14 -0.02,1.69 2.02,1.46 3.21,1.47 2.93,0.04 2.24,0.23 3.56,-1.81 0.79,-1.22 1.96,-1.11 2.3,-2.77 1.04,-5.02 -0.17,-5.49 2.56,-7.71 1.12,-0.91 3.23,-0.81 4.05,0.01 0.65,0.64 0.81,2.97 1.07,4.05 0.54,2.19 0.87,1.09 1.22,4.2l1.28 9.14zm-101.54 244.45l-1.56 -0.47c-7.98,-0.21 -11.33,0.76 -11.95,-8.47 -0.47,-6.99 -3.44,-11.09 -4.08,-17.26 -0.7,-6.82 -3.24,-8.85 -3.77,-17.39 -0.29,-4.67 -2.96,-11.42 -3.58,-17.85 -0.36,-3.73 -2.06,-4.83 -2.56,-7.89 -0.5,-3.08 -0.22,-6.65 -1.04,-9.67 -1.01,-3.76 -2.1,-3.31 -2.46,-8.24 -0.2,-2.73 -0.28,-6.54 -1.92,-8.77 -2.58,-3.51 -6.14,-29.76 -6.42,-35.13 -0.22,-0.51 -1.03,5.96 -1.07,6.1 -0.57,2.08 -2.24,2.72 -3.51,4.34 -5.2,6.66 -2.01,2.76 -7.97,7.36 -3.26,2.52 7.81,0.6 9.82,1.67 4.8,2.57 2.95,13.66 7.39,22.31 1.73,3.36 0.88,9.21 2.3,13.28 2.08,5.93 5.13,18.7 5.77,24.96 0.62,6.09 2.3,7.57 2.98,11.51 0.71,4.13 0.66,9.42 1.92,13.42 1.7,5.38 5.54,20.53 4.79,25.64 -1.29,8.82 -7.86,14.32 -6.99,15.03 1.31,1.07 4.71,-0.19 5.79,-1.36 1.02,-1.09 7.1,-8.43 7.13,-8.45 0.12,-0.09 10.08,-4.38 10.96,-4.69zm-64.66 -137.28c0.16,-1.39 0.32,-0.75 1.45,-1.16 0.74,-0.27 2.5,-1.94 3.31,-0.44 0.13,0.24 0.14,0.54 0.27,0.85 0.06,0.15 0.34,0.54 0.46,0.74 -1.64,0.22 -3.84,0.69 -5.49,0.01zm-46.24 -3.92c-2.33,4.03 10.06,8.28 13.83,8.51 7.17,0.44 14.14,0.05 21.01,0.52 9.97,0.69 24.49,-4.67 32.37,-10.77 13.7,-10.62 11.38,-14.61 19.79,-25.67 1.79,-2.36 10.02,-5.94 13.46,-7.76 5.14,-2.7 16.21,-1.94 17.26,-5.14 2.45,-7.46 -29.38,5.87 -31.82,7.61 -2.87,2.04 -13.4,19.97 -19.38,26.03 -7.15,7.26 -8.03,2.64 -15.73,5.06 -5.84,1.83 -7.26,5.54 -15.69,6.85 -6.79,1.05 -12.86,0.47 -19.24,-2.13 -4.94,-2.02 -10.46,-10.18 -11.54,-0.5l-4.34 -2.62zm38.75 -29.11c-7.48,1.05 -14.84,2.1 -20.41,7.87 -1.72,1.79 -2.39,9.43 1.23,11.07 5.07,2.3 5.22,3.55 11.15,3.57 1.94,0.01 8.98,-1.63 10.94,-2.24 6.62,-2.06 4.22,-4.07 7.75,-6.94 3.92,-3.18 2.56,-6.24 0.08,-9.84 -2.59,-3.75 -6.05,-4.17 -10.74,-3.51zm55.34 -35.05c1.27,-0.62 2.25,-0.59 3.46,0.02 1.29,0.66 0.94,-0.01 0.45,1.11 -0.99,2.27 -4.46,1.84 -3.9,-1.13zm0.89 -2.02c-4.8,0.47 -35.95,6.41 -38.59,7.89 -1.81,1.02 -14.6,2.86 -18.13,3.88 -0.97,0.28 -6.31,3.94 -6.81,4.65 -1.27,1.76 3.37,5.07 4.99,5.07 1.94,0 4.78,-2.43 8.7,-2.71 4.72,-0.33 4.89,-0.45 9.18,-1.69 6.24,-1.81 12.55,-2.66 18.7,-4.45 5.19,-1.5 12.84,-3.26 18.1,-4.37 2.56,-0.54 8.55,-0.25 9.33,-2.18 1.42,-3.48 -1.98,-6.44 -5.48,-6.09zm51.41 174.23l0.13 0.02c-4.18,-8.09 6.22,-35.35 12.59,-41.5 2.88,-2.77 2.58,-3.47 6.5,-6.86 3.01,-2.6 5.57,-4.04 7.71,-5.88 3.06,-2.62 14.8,-10.12 18.74,-7.11l0.12 2.71c-0.18,0.16 -7.59,3.34 -9.99,5.03 -3.15,2.21 -5.53,4.02 -8.57,6.35 -5.73,4.4 -9.59,10.46 -13.18,16.6 -9.1,15.58 -10.47,30.26 -5.14,47.31 3.38,10.81 15.06,29.26 25.6,34.14 15.86,7.34 32.79,7.57 49.77,4.65l0.67 2.23c-5.97,6.46 -24.77,5.31 -33.44,4.91 -0.83,-0.04 -13.82,-4.23 -14.76,-4.78 -4.54,-2.64 -6.7,-4.52 -11.5,-6.17 -3.8,-1.3 -16.51,-16.7 -17.86,-20.49 -1.12,-3.16 -2.78,-2.49 -3.51,-6.31 -1.18,-6.12 -4.8,-6.13 -3.88,-24.85zm2.99 -26.08c-10.79,26.89 -2.95,53.8 16.41,73.84 4.88,5.05 8.15,6.97 14.47,10.07 2.93,1.44 16,5.81 18.94,5.91 8.65,0.31 14.73,0.55 23.31,-0.87 5.42,-0.89 4.52,-1.81 8.68,-3.7 4.74,-2.16 1.73,-2.47 5.03,-4.82 0.55,-0.75 -5.15,-2.93 -6.7,-2.22 -4.11,1.86 0.02,1.78 -7.4,2.94 -17.81,2.78 -33.94,-0.12 -48.64,-11.26 -0.74,-1.85 -3.7,-3.68 -5.36,-5.51 -2.86,-3.17 -2.22,-4.56 -4.33,-7.04 -1.84,-2.16 -7.1,-12.18 -7.93,-14.73 -1.32,-4.05 -3.69,-14.84 -3.69,-18.99 0,-2.18 3.38,-16.81 4.4,-18.19 2.05,-2.76 5.2,-9.88 7.68,-13.9 0.79,-1.27 9.91,-11.29 10.89,-11.85 3.2,-1.82 10.79,-8.71 12.73,-9.6 3.22,-1.47 14.01,-1.79 10.95,-9.4 -4.08,-0.24 -14.8,1.45 -18.31,3.7 -2.38,1.52 -3.3,3.19 -5.74,4.68 -1.46,0.89 -1.99,1.91 -3.15,2.68 -1.89,1.25 -2.9,0.28 -4.33,1.02l-0.42 -0.29 -17.52 27.54zm87.47 28.17c-1.07,-1.65 -0.32,-6.72 0.47,-8.13 -0.09,0.27 0.8,3.02 0.81,4.06l-0.51 3.37c-0.51,1.12 -0.05,0.43 -0.77,0.7zm-56.34 -23.49c1.4,-0.85 1.4,16.41 1.75,18.72 0.04,0.25 8.89,17.35 5.29,14.32 -3.42,-2.88 -7.94,-8.34 -8.48,-13.71 -0.29,-2.9 -1.12,-17.79 1.44,-19.33zm26.13 -19.1c-18.49,-5.57 -40.45,29 -22.76,50.81 17.02,21 47.59,15.6 54.89,-8.79 1.3,-4.35 -0.34,-15.67 -4.38,-1.72 -1.27,4.41 -5.41,10.39 -8.96,13.34 -9.7,8.04 -21.76,7.42 -31.47,-0.2 -9.78,-7.67 -12.87,-20.92 -10.86,-32.67 2.42,-14.11 13.4,-13.67 23.54,-20.77zm-128.83 49.01c-0.86,-0.58 -1.07,-3.67 -1.24,-5.15 -0.23,-1.94 -0.51,-4.57 0.43,-5.43 1.25,2.08 1.59,8.55 0.81,10.58zm-11.25 -48.12c0.08,0.83 4.29,21.5 4.52,22.26 0.57,1.84 4.44,19.73 4.65,21.68 0.49,4.49 1.01,6.72 2.31,10.86 1.3,4.11 1.18,7.56 1.84,11.71 1.59,10.02 7.83,9.53 4.06,-2.04 -1.51,-4.64 -1.6,-5.15 -2.21,-10.29 -0.72,-6.18 -1.18,-5.33 -2.37,-10.19 -0.76,-3.1 -0.77,-6.99 -1.57,-10.62 -0.87,-3.88 -1.95,-6.53 -2.48,-10.67 -0.13,-1.03 -4.32,-21.23 -4.52,-21.93 -2.33,-8.12 -5.88,-16.99 -4.23,-0.79zm57.46 4.86l-2.47 5.1c-5.32,-1.95 -4.23,-38.55 -0.77,-39.94l4.89 -0.41 -3.37 -15.08c0.3,-0.7 5.85,-6.36 2.4,-8.68 -0.1,-0.07 -3.76,6.83 -4.25,7.82 -1.85,3.77 0.97,4.48 -2.74,9.94 -1.81,2.67 -1.22,8.26 -1.42,11.61 -0.94,16.18 -0.34,31.85 -0.2,47.95 0.06,6.86 -0.7,17.82 1.16,24.1 1.64,5.54 5.71,19.74 4.43,3.04 -0.67,-8.79 -0.77,-15.64 -0.34,-24.49 0.14,-2.9 4.78,-20.34 2.68,-20.95zm26.93 49.65c0.59,-0.41 0.89,-0.8 1.68,-0.82 0.24,0.88 1.6,9.38 -0.04,9.77 -0.5,-0.34 -0.9,-3.39 -1.05,-4.24l-0.59 -4.71zm-1.98 -2.71c-0.64,-0.87 -0.91,-10.9 -1.07,-12.7 -0.18,-2.06 0.02,-4.31 0.39,-6.34 0.22,-1.24 -0.25,-5.47 0.72,-5.97 0.82,1.25 1.54,24.19 -0.03,25.01zm-2.45 -12.17l-0.13 -0.02c0.49,0.71 1.29,14.09 2.35,17.39 1.9,5.92 2.73,8.35 6.02,13.56 8.78,13.92 14.62,15.42 18.42,20.39l4.08 -0.28c0.07,-0.22 -7.34,-7.51 -8.47,-8.73 -3.89,-4.18 -4.24,-5.92 -7.23,-10.36 -4.53,-6.72 -8.6,-17.02 -10.15,-25.03 -1.36,-7.07 0.47,-24.21 3.88,-30.43 1.45,-2.64 13.13,-20.9 12.1,-22.11 -4.72,-2.04 -12.83,14.28 -15.36,17.51 -3.53,4.51 -5.37,22.08 -5.49,28.12zm69.51 -9.84c-2.11,-0.51 -1.98,-2.25 -1.98,-4.18 -0,-2 -0.23,-3.63 1.93,-4.15 1.79,1.59 1.27,6.64 0.05,8.34zm-6.4 -1.19c-1.86,0.62 -13.59,-2.74 -7.79,6.46 0.05,0.05 6.12,1.12 7.22,1.47 4.33,1.35 3.5,0.9 5.84,-1.76 3.99,-4.52 5.08,-6.91 3.26,-13.58 -0.78,-2.87 -6.02,-9.04 -8.83,-4.46 -3.25,5.32 4.65,4.95 0.29,11.87zm-170.88 -126.14c4.69,-0.66 8.15,-0.25 10.74,3.51 2.48,3.6 3.84,6.66 -0.08,9.84 -3.53,2.86 -1.12,4.87 -7.75,6.94 -1.96,0.61 -9,2.24 -10.94,2.24 -5.93,-0.02 -6.08,-1.27 -11.15,-3.57 -3.62,-1.64 -2.95,-9.29 -1.23,-11.07 5.56,-5.77 12.93,-6.82 20.41,-7.87zm13.62 1.79c1.03,-7.77 -5.75,-3.21 -9.6,-3.57 -16.01,-1.47 -32.75,8.98 -26.41,19.71 4.28,7.25 18.24,7.78 24.94,4.25 7.74,-4.08 3.96,-1.34 9.14,-7.57 5.34,-6.42 1.13,-6.79 1.92,-12.82zm244.67 -78.49c-1.09,0.59 -0.47,1.02 -2.28,1.29 -3.73,0.55 -2.79,4.92 -1.83,6.71 0.52,0.96 0.27,0 0.4,0.57 0.03,0.13 0.13,0.97 0.25,1.43 0.41,1.57 -1.35,6.92 -0.67,8.53 0.6,0.14 4.2,-0.08 5.22,-0.07 1.95,0.02 3.36,0.36 4.96,-0.76 -1.22,-0.8 -0.89,-0.09 -1.39,-1.75 -1.42,-4.67 0.57,-4.32 -1.81,-7.33 -1.19,-1.51 -1.08,-3.01 -1.34,-4.84 -0.4,-2.68 -0.65,-1.63 -0.8,-1.74 -0.18,-0.14 -0.23,-1.45 -0.72,-2.04zm44.48 99.2c0.09,1.34 9.98,38.35 10.71,21.38 0.13,-3.08 -0.26,-5.97 -2.54,-8.13 -1.76,-1.66 -1.69,-5.16 -2.65,-7.5 -1.5,-3.66 -2.25,-1.72 -2.99,-7.28 -0.89,-6.66 -2.66,-0.42 -2.52,1.54zm-161.02 93.25c-2.56,1.54 -1.72,16.43 -1.44,19.33 0.53,5.37 5.05,10.84 8.48,13.71 3.6,3.03 -5.25,-14.07 -5.29,-14.32 -0.35,-2.31 -0.35,-19.57 -1.75,-18.72zm60.22 -146.71c-0.71,-0.4 -0.6,-0.09 -1.17,-0.32 -0.79,-0.32 0.45,0.14 -0.68,-0.51 -1.21,-0.69 -3.11,-0.4 -4.11,-2.09l-1.13 -1.68c-0.02,-0.1 -0.08,-0.12 -0.13,-0.16 -0.21,2.19 0.02,1.71 -0.75,3.49 -0.47,1.08 -0.15,0.72 -1.07,1.19 -1.21,0.62 -0.37,0.42 -1.23,0.78 -0.93,-0.08 -2.98,-1.67 -3.97,-1.98 -1.25,0.95 -0.87,2.54 -0.87,4.2 -0,1.32 -0.54,3.41 -0.44,4.39 1.07,0.85 3.98,0.8 5.22,0.2 1.02,-0.49 0.81,-0.85 1.46,-1.64 0.75,-0.91 1.23,-0.8 1.74,-1.16 1.19,-0.83 0.18,-2.18 2.88,-3.08 0.91,-0.31 3.81,-1.31 4.25,-1.62zm-76.4 -57.47c-0.75,0.15 -6.81,-0.4 -4.75,1.58 1.24,1.19 16.32,-0.15 18.33,-1.77 7.78,-6.27 -7.05,-3.48 -10.34,-2.71 -3.51,0.82 -2.31,2.26 -3.24,2.91zm0 0c0.94,-0.64 -0.27,-2.08 3.24,-2.91 3.29,-0.77 18.12,-3.56 10.34,2.71 -2.01,1.62 -17.09,2.96 -18.33,1.77 -2.06,-1.98 3.99,-1.43 4.75,-1.58zm-4.81 4.37c2.93,0.42 10.84,-1.62 14.25,-2.02 4.25,-0.49 12.07,-4.06 5.54,-7.04 -2.94,-1.34 -10.43,0.13 -13.67,1.11 -1.19,0.36 -6.24,1.4 -6.32,1.49 -1.19,1.33 -0.92,5.25 0.2,6.46zm-186.98 164.33c-1.24,4.18 -2.1,39.95 0.1,41.38 2.8,1.82 -0.43,-38.61 -0.1,-41.38zm176.51 -160.12c1.3,-2.89 3.74,-14.71 -1.81,-12.41 -3.51,1.45 -4.65,15.55 1.81,12.41zm67 20.11c-1.75,-0.29 -1.32,4.31 -2.09,6.04 -0.46,1.04 -3.23,4.54 -3.08,5.32 0.11,0.56 1.65,1.82 2.24,2.03 1.04,0.37 2.76,0.37 3.46,0.8 2.64,1.61 2.29,4.52 3.21,4.97 0.46,-0.83 0.34,-4.5 -0.02,-5.49 -0.36,-1 -0.78,-1.07 -1.2,-1.69 -0.29,-0.43 -1.13,-1.57 -1.19,-1.69 -1.65,-3.33 -0.22,-7.12 -1.32,-10.28zm-23.77 77.89c0.52,7.6 4.35,0.77 7.97,1.18 9.19,1.03 6.99,-4.7 1.53,-4.42l-2.76 2.88 -4.07 -2.29c-0.52,0.22 -2.2,2.09 -2.68,2.64zm70.88 -98.28c1.16,0.5 2.39,0.95 3.6,1.32 1.9,0.58 1.51,1.63 3.42,1.19 3.26,-0.74 1.51,-0.84 3.19,-1.23 0.77,-0.18 1.49,-0.14 2.2,-0.32 0.9,-0.23 0.82,-0.47 1.54,-0.83l-0.95 -2.65 -10.96 0.01c-0.74,1.04 -1.56,1.19 -2.03,2.5zm26.32 275.57l2.67 -4.39c-0.94,-0.4 -1.15,-1.95 -1.28,-3.01 -0.16,-1.37 0.32,-3.41 -0.37,-4.51 -0.57,0.18 -1.06,-0.5 -1.02,2.17 0.04,3.1 -1.52,3.81 -3.33,4.59l-0.29 3.43c-0.5,0.4 -0.93,0.25 -1.38,0.8 -0.02,0.02 -0.05,0.8 0.04,0.08 -1.32,0.02 -0.87,-0.23 -1.76,0.45 1.51,0.89 4.82,0.41 6.71,0.38zm-195.35 -194.14c-1.81,2.23 -3.03,10.24 0.69,10.91 4.39,0.8 8.05,-1.17 10.48,-3.8 -1.44,-6.38 -8.16,-6.05 -11.17,-7.12zm54.86 148.03c1.58,-0.82 0.85,-23.77 0.03,-25.01 -0.97,0.5 -0.49,4.73 -0.72,5.97 -0.37,2.03 -0.57,4.28 -0.39,6.34 0.16,1.79 0.43,11.83 1.07,12.7zm-78.88 -158.96c0.85,1.91 3.05,1.77 4.39,4.62 1.12,-0.21 0.75,-0.48 1.72,-0.65 0.89,-0.15 1.38,0.09 2.31,-0.22 1.52,-4.44 -6.73,-7.55 -8.43,-3.75zm-9.5 28.41c2.16,-1.53 2.45,-12.03 -0.11,-13.96 -0.6,2.54 -0.72,4.25 -0.89,6.98 -0.11,1.81 -0.32,6.16 1.01,6.99zm277.63 85.13c0.66,0.22 0.49,0.02 0.74,0.97 0.12,0.47 0.17,0.87 0.26,1.42 0.64,-0.1 0.47,0.28 0.76,-0.32 0.03,-3.55 -1.34,-4.48 -0.68,-8.91 0.16,-1.09 2.45,-5.89 3.08,-6.95l0.12 -0.6c-1.83,-0.3 -4.16,3.68 -4.62,5.5 -0.56,2.21 -0.63,6.79 0.34,8.88zm-213.99 66.08c1.98,-1.14 0.89,-7.48 -0.12,-8.97 -1.16,-0.05 -2.22,0.21 -2.97,1.1 -1.41,1.66 0.35,1.08 0.47,2.65 0.12,1.6 -0.17,1.78 1,2.96 0.95,0.96 0.77,1.5 1.62,2.26zm91.8 -42.68c1.22,-1.7 1.74,-6.75 -0.05,-8.34 -2.16,0.52 -1.94,2.15 -1.93,4.15 0,1.94 -0.13,3.67 1.98,4.18zm-29.95 67.75c2.59,1.81 8.17,1.09 9.48,0.2 -0.48,-1.1 -6.39,-2.31 -9,-1.77l-0.47 1.57zm1.59 -171.56c1.74,-0.65 1.45,-1.69 2.8,-5 -0.67,-0.56 -1.94,-1.29 -2.78,-1.44 -1.05,1.4 -0.8,1.39 -0.82,3.21 -0.01,1.39 -0.25,2.23 0.81,3.23zm-50.73 59.57l1.36 0.47c1.5,-1.2 1.19,-2.16 1.24,-4.01 1,-0.51 1.55,-0.26 2.69,-0.52 0.19,-0.84 0.18,-1.3 -0.07,-2.06l-4.1 1.44c-0.3,0.45 -0.27,1.61 -0.62,2.34 -0.55,1.17 -0.87,0.67 -0.5,2.35zm53.97 -128.04c0.62,0.46 4.3,0.56 5.03,0.57 1.76,0.01 3.79,0.13 5.06,-0.75 -0.71,-2.76 -5.78,-0.99 -8.62,-0.36l-1.47 0.54zm-39.37 201.72c0.15,0.85 0.55,3.9 1.05,4.24 1.64,-0.4 0.28,-8.89 0.04,-9.77 -0.79,0.02 -1.09,0.42 -1.68,0.82l0.59 4.71zm-16.83 -41.77c0.76,-0.81 0.86,-3.26 0.98,-4.53 0.15,-1.56 0.55,-4 -0.62,-5.16 -1.74,0.78 -1.84,7.87 -0.36,9.69zm81.28 -94.19c-2.1,1.7 -1.28,0.7 -1.09,3.49 0.12,1.83 -0.05,2.15 1.42,2.94 1.16,-1.67 1.41,-0.96 1.31,-3.37 -0.07,-1.72 -0.16,-2.12 -1.63,-3.06zm115.13 -44.61c0.05,0.65 0.5,2.92 2.04,1.86 1.74,-1.19 0.43,-7.55 -1.16,-5.44 -0.27,0.35 -0.91,3.25 -0.88,3.58zm-337.59 16.98c1.48,-2.21 1.71,-3.74 1.54,-6.47l-1.54 -0.06c-1.27,4.1 -1.93,4.2 -0.01,6.54zm127.16 -41.18c0.79,-1.02 0.9,-3.94 0.63,-5.32 -0.05,-0.22 -0.15,-0.7 -0.22,-0.92l-0.42 -0.77c-0.49,0.83 -1.66,2.51 -1.62,3.37 0.04,0.92 0.37,0.89 0.62,1.86 0.24,0.98 0.02,1.37 1.02,1.77zm121.22 91.22c1.31,1.09 3.73,1.16 5.15,0.23 -0.41,-0.74 -0.66,-0.57 -1.5,-1.12 -0.13,-0.08 -0.5,-0.38 -0.61,-0.48 -1.87,-1.72 -3.01,0.26 -3.04,1.37zm-5.06 96.04c0.72,-0.27 0.26,0.42 0.77,-0.7l0.51 -3.37c-0,-1.04 -0.9,-3.8 -0.81,-4.06 -0.79,1.41 -1.54,6.49 -0.47,8.13zm103.54 -68.36c-1.57,-0.45 -1.75,0.97 -1.83,2.38 -0.02,0.26 -0.05,0.92 -0.04,1.16 0.04,0.72 0.33,1.4 1.02,1.91l0.81 -0.97c0.45,-0.88 0.34,-3.57 0.03,-4.47zm-294.15 -37.84c1.65,0.68 3.85,0.21 5.49,-0.01 -0.12,-0.2 -0.4,-0.59 -0.46,-0.74 -0.13,-0.31 -0.14,-0.61 -0.27,-0.85 -0.81,-1.5 -2.57,0.17 -3.31,0.44 -1.13,0.4 -1.29,-0.24 -1.45,1.16zm92.04 156.24c-2.03,1.2 -1.11,4.11 1.12,3.72 0.66,-0.11 0.83,-0.13 0.96,-0.85 0.25,-1.36 -0.31,-0.72 -1.19,-1.93 -0.57,-0.77 -0,-0.41 -0.89,-0.94zm-83.57 -188.62c0.15,1.09 1.54,1.81 2.55,2.08 1.62,-1.14 1,-1.94 0,-3.06 -0.97,0.07 -1.91,0.2 -2.55,0.98zm78.76 183.14c-0.07,0.89 0.23,1.54 0.53,2.32l0.97 1.94c0.61,-1.17 2.18,-5.83 -1.51,-4.26zm-123.32 -211.26c0.11,1.28 0.13,0.93 0.95,1.69 0.89,-0.09 3.65,-1.09 4.11,-1.68 -1.25,-0.52 -3.87,-0.61 -5.07,-0.02zm131.65 223.96c2.38,-0.36 1.62,-2.42 0.2,-2.81 -1.86,-0.51 -1.73,1.56 -0.2,2.81zm8.62 -128.35c0.32,0.63 -0.05,0.41 0.96,0.75 2.61,0.86 3.14,-2.98 0.05,-1.66 -0.8,0.34 -0.76,0.3 -1.02,0.91z"/>
  </g>
 </g>
</svg>
